# Blender v2.83.18 OBJ File: 'untitle3d.blend'
# www.blender.org
mtllib bullet_case.mtl
o 큐브.003
v -0.596016 2.431754 4.290189
v -0.596016 0.431754 0.825366
v -0.596016 0.431753 4.290189
v -0.596016 2.431755 0.825366
v 0.581575 0.431754 0.825366
v 0.581575 2.431755 0.825366
v 0.581575 0.431753 4.290189
v 0.581575 2.431754 4.290189
v 0.581575 -1.132702 4.416871
v -0.596016 -1.132702 4.416871
v -0.596016 -2.778543 1.248229
v -0.596016 -2.778544 4.835248
v -0.596016 -1.132701 0.937421
v 0.581575 -1.132701 0.937421
v 0.581575 -4.594232 5.436551
v 0.581575 -2.778544 4.835248
v 0.581575 -2.778543 1.248229
v -0.596016 -4.594232 5.436551
v -0.596016 -4.594232 1.826206
v -0.596016 -6.159904 2.518713
v 0.581575 -4.594232 1.826206
v 0.581575 -6.159904 2.518713
v -0.486473 2.431755 0.934908
v -0.486473 2.431754 4.180647
v 0.472032 2.431754 4.180647
v 0.472032 2.431755 0.934908
vn -1.0000 0.0000 0.0000
vn 0.0000 0.0000 -1.0000
vn 1.0000 0.0000 0.0000
vn 0.0000 -0.0000 1.0000
vn 0.0000 0.0807 0.9967
vn 0.0000 -0.0714 -0.9974
vn 0.0000 0.3144 0.9493
vn 0.0000 0.2464 0.9692
vn 0.0000 -0.1856 -0.9826
vn 0.0000 -0.3033 -0.9529
vn 0.0000 -0.8812 0.4728
vn 0.0000 -0.4045 -0.9145
vn -0.0000 1.0000 -0.0000
usemtl None.005
s 1
f 1//1 2//1 3//1
f 4//2 5//2 2//2
f 6//3 7//3 5//3
f 8//4 3//4 7//4
f 3//5 9//5 7//5
f 10//1 11//1 12//1
f 5//6 13//6 2//6
f 3//1 13//1 10//1
f 7//3 14//3 5//3
f 12//7 15//7 16//7
f 10//8 16//8 9//8
f 14//9 11//9 13//9
f 9//3 17//3 14//3
f 18//1 19//1 20//1
f 17//10 19//10 11//10
f 16//3 21//3 17//3
f 12//1 19//1 18//1
f 20//11 15//11 18//11
f 21//3 15//3 22//3
f 21//12 20//12 19//12
f 23//13 1//13 24//13
f 23//13 6//13 4//13
f 25//13 6//13 26//13
f 24//13 8//13 25//13
f 1//1 4//1 2//1
f 4//2 6//2 5//2
f 6//3 8//3 7//3
f 8//4 1//4 3//4
f 3//5 10//5 9//5
f 10//1 13//1 11//1
f 5//6 14//6 13//6
f 3//1 2//1 13//1
f 7//3 9//3 14//3
f 12//7 18//7 15//7
f 10//8 12//8 16//8
f 14//9 17//9 11//9
f 9//3 16//3 17//3
f 17//10 21//10 19//10
f 16//3 15//3 21//3
f 12//1 11//1 19//1
f 20//11 22//11 15//11
f 21//12 22//12 20//12
f 23//13 4//13 1//13
f 23//13 26//13 6//13
f 25//13 8//13 6//13
f 24//13 1//13 8//13
