# Blender v2.83.18 OBJ File: 'untitle3d.blend'
# www.blender.org
mtllib case_button.mtl
o 실린더
v -0.653534 1.666111 0.532041
v -0.863599 1.660870 0.478825
v -0.863599 1.666112 0.532041
v -0.653534 1.660870 0.478825
v -0.863599 1.645348 0.427654
v -0.653534 1.645348 0.427654
v -0.863599 1.620141 0.380495
v -0.653534 1.620141 0.380494
v -0.863599 1.586217 0.339159
v -0.653534 1.586217 0.339159
v -0.863599 1.544882 0.305236
v -0.653534 1.544882 0.305236
v -0.863599 1.497723 0.280029
v -0.653534 1.497723 0.280029
v -0.863599 1.446552 0.264506
v -0.653534 1.446552 0.264506
v -0.863599 1.393336 0.259265
v -0.653534 1.393336 0.259265
v -0.863599 1.340120 0.264506
v -0.653534 1.340120 0.264506
v -0.863599 1.288949 0.280029
v -0.653534 1.288949 0.280029
v -0.863599 1.241790 0.305236
v -0.653534 1.241790 0.305236
v -0.863599 1.200454 0.339159
v -0.653534 1.166531 0.380495
v -0.863599 1.166531 0.380495
v -0.863599 1.141324 0.427654
v -0.653534 1.141324 0.427654
v -0.863599 1.125801 0.478825
v -0.653534 1.120560 0.532041
v -0.863599 1.120560 0.532041
v -0.863599 1.125801 0.585257
v -0.653534 1.141324 0.636428
v -0.863599 1.141324 0.636428
v -0.863599 1.166531 0.683587
v -0.653534 1.166531 0.683587
v -0.863599 1.200454 0.724922
v -0.653534 1.241790 0.758846
v -0.863599 1.241790 0.758846
v -0.653534 1.288949 0.784053
v -0.863599 1.288949 0.784053
v -0.863599 1.340120 0.799575
v -0.653534 1.340120 0.799575
v -0.863599 1.393336 0.804816
v -0.653534 1.393336 0.804816
v -0.863599 1.446552 0.799575
v -0.653534 1.446552 0.799575
v -0.863599 1.497723 0.784053
v -0.653534 1.497723 0.784053
v -0.863599 1.544882 0.758845
v -0.653534 1.544882 0.758845
v -0.863599 1.586218 0.724922
v -0.653534 1.586218 0.724922
v -0.863599 1.620141 0.683586
v -0.653534 1.620141 0.683586
v -0.863599 1.645348 0.636427
v -0.653534 1.645348 0.636427
v -0.863599 1.660870 0.585256
v -0.653534 1.660870 0.585256
v -0.863599 1.585306 0.532041
v -0.785701 1.581617 0.569492
v -0.863599 1.581617 0.569492
v -0.863599 1.581617 0.494589
v -0.863599 1.570693 0.458577
v -0.863599 1.552953 0.425388
v -0.863599 1.529079 0.396297
v -0.863599 1.499989 0.372423
v -0.863599 1.466800 0.354683
v -0.863599 1.430787 0.343759
v -0.863599 1.393336 0.340070
v -0.863599 1.355884 0.343759
v -0.863599 1.319872 0.354683
v -0.863599 1.286683 0.372423
v -0.863599 1.257592 0.396297
v -0.863599 1.233718 0.425388
v -0.863599 1.215978 0.458577
v -0.863599 1.205054 0.494589
v -0.863599 1.201365 0.532041
v -0.863599 1.205054 0.569492
v -0.863599 1.215978 0.605505
v -0.863599 1.233718 0.638694
v -0.863599 1.257592 0.667784
v -0.863599 1.286683 0.691658
v -0.863599 1.319872 0.709398
v -0.863599 1.355884 0.720322
v -0.863599 1.393336 0.724011
v -0.863599 1.430787 0.720322
v -0.863599 1.466800 0.709398
v -0.863599 1.499989 0.691658
v -0.863599 1.529079 0.667784
v -0.863599 1.552953 0.638693
v -0.863599 1.570693 0.605504
v -0.785701 1.205054 0.494589
v -0.785701 1.355884 0.720322
v -0.785701 1.215978 0.605505
v -0.785701 1.499989 0.372423
v -0.785701 1.233718 0.638694
v -0.785701 1.466800 0.354683
v -0.785701 1.257592 0.667784
v -0.785701 1.430787 0.343759
v -0.785701 1.286683 0.691658
v -0.785701 1.393336 0.340070
v -0.785701 1.319872 0.709398
v -0.785701 1.355884 0.343759
v -0.785701 1.319872 0.354683
v -0.785701 1.393336 0.724011
v -0.785701 1.286683 0.372423
v -0.785701 1.430787 0.720322
v -0.785701 1.257592 0.396297
v -0.785701 1.466800 0.709398
v -0.785701 1.233718 0.425388
v -0.785701 1.585306 0.532041
v -0.785701 1.499989 0.691658
v -0.785701 1.215978 0.458577
v -0.785701 1.581617 0.494589
v -0.785701 1.529079 0.667784
v -0.785701 1.201365 0.532041
v -0.785701 1.570693 0.458577
v -0.785701 1.552953 0.638693
v -0.785701 1.552953 0.425388
v -0.785701 1.570693 0.605504
v -0.785701 1.205054 0.569492
v -0.785701 1.529079 0.396297
v -0.653534 1.200454 0.339159
v -0.653534 1.125801 0.478825
v -0.653534 1.125801 0.585257
v -0.653534 1.200454 0.724922
vn 0.0000 0.9952 -0.0980
vn 0.0000 0.9569 -0.2903
vn -0.0000 0.8819 -0.4714
vn -0.0000 0.7730 -0.6344
vn 0.0000 0.6344 -0.7730
vn 0.0000 0.4714 -0.8819
vn 0.0000 0.2903 -0.9569
vn 0.0000 0.0980 -0.9952
vn 0.0000 -0.0980 -0.9952
vn 0.0000 -0.2903 -0.9569
vn 0.0000 -0.4714 -0.8819
vn 0.0000 -0.6344 -0.7730
vn 0.0000 -0.7730 -0.6344
vn 0.0000 -0.8819 -0.4714
vn 0.0000 -0.9569 -0.2903
vn 0.0000 -0.9952 -0.0980
vn 0.0000 -0.9952 0.0980
vn 0.0000 -0.9569 0.2903
vn 0.0000 -0.8819 0.4714
vn 0.0000 -0.7730 0.6344
vn 0.0000 -0.6344 0.7730
vn 0.0000 -0.4714 0.8819
vn 0.0000 -0.2903 0.9569
vn 0.0000 -0.0980 0.9952
vn 0.0000 0.0980 0.9952
vn 0.0000 0.2903 0.9569
vn 0.0000 0.4714 0.8819
vn 0.0000 0.6344 0.7730
vn 0.0000 0.7730 0.6344
vn 0.0000 0.8819 0.4714
vn 1.0000 0.0000 0.0000
vn 0.0000 0.9569 0.2903
vn 0.0000 0.9952 0.0980
vn -1.0000 -0.0000 0.0000
usemtl None.007
s 1
f 1//1 2//1 3//1
f 4//2 5//2 2//2
f 6//3 7//3 5//3
f 8//4 9//4 7//4
f 10//5 11//5 9//5
f 12//6 13//6 11//6
f 14//7 15//7 13//7
f 16//8 17//8 15//8
f 18//9 19//9 17//9
f 20//10 21//10 19//10
f 22//11 23//11 21//11
f 24//12 25//12 23//12
f 25//13 26//13 27//13
f 26//14 28//14 27//14
f 29//15 30//15 28//15
f 30//16 31//16 32//16
f 31//17 33//17 32//17
f 33//18 34//18 35//18
f 34//19 36//19 35//19
f 37//20 38//20 36//20
f 38//21 39//21 40//21
f 40//22 41//22 42//22
f 41//23 43//23 42//23
f 44//24 45//24 43//24
f 46//25 47//25 45//25
f 48//26 49//26 47//26
f 50//27 51//27 49//27
f 52//28 53//28 51//28
f 54//29 55//29 53//29
f 56//30 57//30 55//30
f 34//31 22//31 50//31
f 58//32 59//32 57//32
f 60//33 3//33 59//33
f 61//16 62//16 63//16
f 64//34 3//34 2//34
f 64//34 5//34 65//34
f 66//34 5//34 7//34
f 66//34 9//34 67//34
f 68//34 9//34 11//34
f 68//34 13//34 69//34
f 69//34 15//34 70//34
f 70//34 17//34 71//34
f 71//34 19//34 72//34
f 72//34 21//34 73//34
f 74//34 21//34 23//34
f 74//34 25//34 75//34
f 75//34 27//34 76//34
f 77//34 27//34 28//34
f 78//34 28//34 30//34
f 79//34 30//34 32//34
f 79//34 33//34 80//34
f 80//34 35//34 81//34
f 82//34 35//34 36//34
f 82//34 38//34 83//34
f 83//34 40//34 84//34
f 84//34 42//34 85//34
f 85//34 43//34 86//34
f 86//34 45//34 87//34
f 87//34 47//34 88//34
f 89//34 47//34 49//34
f 89//34 51//34 90//34
f 90//34 53//34 91//34
f 92//34 53//34 55//34
f 92//34 57//34 93//34
f 63//34 57//34 59//34
f 63//34 3//34 61//34
f 94//34 95//34 62//34
f 82//3 96//3 81//3
f 69//22 97//22 68//22
f 83//4 98//4 82//4
f 70//23 99//23 69//23
f 84//5 100//5 83//5
f 71//24 101//24 70//24
f 85//6 102//6 84//6
f 72//25 103//25 71//25
f 86//7 104//7 85//7
f 73//26 105//26 72//26
f 87//8 95//8 86//8
f 74//27 106//27 73//27
f 88//9 107//9 87//9
f 75//28 108//28 74//28
f 89//10 109//10 88//10
f 76//29 110//29 75//29
f 90//11 111//11 89//11
f 77//30 112//30 76//30
f 64//17 113//17 61//17
f 91//12 114//12 90//12
f 78//32 115//32 77//32
f 65//18 116//18 64//18
f 92//13 117//13 91//13
f 78//33 118//33 94//33
f 66//19 119//19 65//19
f 93//14 120//14 92//14
f 80//1 118//1 79//1
f 67//20 121//20 66//20
f 63//15 122//15 93//15
f 81//2 123//2 80//2
f 68//21 124//21 67//21
f 1//1 4//1 2//1
f 4//2 6//2 5//2
f 6//3 8//3 7//3
f 8//4 10//4 9//4
f 10//5 12//5 11//5
f 12//6 14//6 13//6
f 14//7 16//7 15//7
f 16//8 18//8 17//8
f 18//9 20//9 19//9
f 20//10 22//10 21//10
f 22//11 24//11 23//11
f 24//12 125//12 25//12
f 25//13 125//13 26//13
f 26//14 29//14 28//14
f 29//15 126//15 30//15
f 30//16 126//16 31//16
f 31//17 127//17 33//17
f 33//18 127//18 34//18
f 34//19 37//19 36//19
f 37//20 128//20 38//20
f 38//21 128//21 39//21
f 40//22 39//22 41//22
f 41//23 44//23 43//23
f 44//24 46//24 45//24
f 46//25 48//25 47//25
f 48//26 50//26 49//26
f 50//27 52//27 51//27
f 52//28 54//28 53//28
f 54//29 56//29 55//29
f 56//30 58//30 57//30
f 6//31 4//31 1//31
f 1//31 60//31 6//31
f 58//31 56//31 54//31
f 54//31 52//31 50//31
f 50//31 48//31 46//31
f 46//31 44//31 41//31
f 41//31 39//31 34//31
f 128//31 37//31 34//31
f 34//31 127//31 31//31
f 31//31 126//31 29//31
f 29//31 26//31 125//31
f 125//31 24//31 22//31
f 22//31 20//31 18//31
f 18//31 16//31 14//31
f 14//31 12//31 10//31
f 10//31 8//31 6//31
f 6//31 60//31 58//31
f 58//31 54//31 6//31
f 50//31 46//31 34//31
f 39//31 128//31 34//31
f 34//31 31//31 22//31
f 29//31 125//31 22//31
f 22//31 18//31 14//31
f 14//31 10//31 22//31
f 6//31 54//31 50//31
f 46//31 41//31 34//31
f 31//31 29//31 22//31
f 22//31 10//31 6//31
f 6//31 50//31 22//31
f 58//32 60//32 59//32
f 60//33 1//33 3//33
f 61//16 113//16 62//16
f 64//34 61//34 3//34
f 64//34 2//34 5//34
f 66//34 65//34 5//34
f 66//34 7//34 9//34
f 68//34 67//34 9//34
f 68//34 11//34 13//34
f 69//34 13//34 15//34
f 70//34 15//34 17//34
f 71//34 17//34 19//34
f 72//34 19//34 21//34
f 74//34 73//34 21//34
f 74//34 23//34 25//34
f 75//34 25//34 27//34
f 77//34 76//34 27//34
f 78//34 77//34 28//34
f 79//34 78//34 30//34
f 79//34 32//34 33//34
f 80//34 33//34 35//34
f 82//34 81//34 35//34
f 82//34 36//34 38//34
f 83//34 38//34 40//34
f 84//34 40//34 42//34
f 85//34 42//34 43//34
f 86//34 43//34 45//34
f 87//34 45//34 47//34
f 89//34 88//34 47//34
f 89//34 49//34 51//34
f 90//34 51//34 53//34
f 92//34 91//34 53//34
f 92//34 55//34 57//34
f 63//34 93//34 57//34
f 63//34 59//34 3//34
f 62//34 113//34 121//34
f 116//34 119//34 121//34
f 121//34 124//34 101//34
f 97//34 99//34 101//34
f 101//34 103//34 108//34
f 105//34 106//34 108//34
f 108//34 110//34 112//34
f 112//34 115//34 94//34
f 94//34 118//34 123//34
f 123//34 96//34 98//34
f 98//34 100//34 102//34
f 102//34 104//34 95//34
f 95//34 107//34 109//34
f 109//34 111//34 114//34
f 114//34 117//34 120//34
f 120//34 122//34 114//34
f 113//34 116//34 121//34
f 124//34 97//34 101//34
f 103//34 105//34 108//34
f 108//34 112//34 101//34
f 94//34 123//34 95//34
f 98//34 102//34 95//34
f 95//34 109//34 62//34
f 114//34 122//34 62//34
f 62//34 121//34 94//34
f 101//34 112//34 94//34
f 123//34 98//34 95//34
f 109//34 114//34 62//34
f 121//34 101//34 94//34
f 82//3 98//3 96//3
f 69//22 99//22 97//22
f 83//4 100//4 98//4
f 70//23 101//23 99//23
f 84//5 102//5 100//5
f 71//24 103//24 101//24
f 85//6 104//6 102//6
f 72//25 105//25 103//25
f 86//7 95//7 104//7
f 73//26 106//26 105//26
f 87//8 107//8 95//8
f 74//27 108//27 106//27
f 88//9 109//9 107//9
f 75//28 110//28 108//28
f 89//10 111//10 109//10
f 76//29 112//29 110//29
f 90//11 114//11 111//11
f 77//30 115//30 112//30
f 64//17 116//17 113//17
f 91//12 117//12 114//12
f 78//32 94//32 115//32
f 65//18 119//18 116//18
f 92//13 120//13 117//13
f 78//33 79//33 118//33
f 66//19 121//19 119//19
f 93//14 122//14 120//14
f 80//1 123//1 118//1
f 67//20 124//20 121//20
f 63//15 62//15 122//15
f 81//2 96//2 123//2
f 68//21 97//21 124//21
