# Blender v2.83.18 OBJ File: 'untitle3d.blend'
# www.blender.org
mtllib case_bullet.mtl
o 실린더.002
v -0.111331 1.626849 3.392973
v -0.169157 1.632545 3.392973
v -0.169157 1.632546 1.204674
v -0.111331 1.626850 1.204674
v -0.224761 1.649412 3.392973
v -0.224761 1.649413 1.204674
v -0.276006 1.676803 3.392973
v -0.276006 1.676804 1.204674
v -0.320923 1.713665 3.392973
v -0.320923 1.713666 1.204674
v -0.357785 1.758581 3.392973
v -0.357785 1.758582 1.204674
v -0.385176 1.809826 3.392973
v -0.385176 1.809827 1.204674
v -0.402043 1.865430 3.392973
v -0.402043 1.865431 1.204674
v -0.407738 1.923256 3.392973
v -0.407738 1.923257 1.204674
v -0.402043 1.981083 3.392973
v -0.402043 1.981084 1.204674
v -0.385176 2.036686 3.392973
v -0.385176 2.036687 1.204674
v -0.357785 2.087932 3.392973
v -0.357785 2.087932 1.204674
v -0.320923 2.132849 3.392973
v -0.320923 2.132849 1.204674
v -0.276006 2.169711 3.392973
v -0.276006 2.169711 1.204674
v -0.224761 2.197102 3.392973
v -0.224761 2.197102 1.204674
v -0.169157 2.213969 3.392973
v -0.169157 2.213969 1.204674
v -0.111331 2.219665 3.392973
v -0.111331 2.219665 1.204674
v -0.053505 2.213969 3.392973
v -0.053505 2.213969 1.204674
v 0.002099 2.197102 3.392973
v 0.002099 2.197102 1.204674
v 0.053344 2.169711 3.392973
v 0.053344 2.169711 1.204674
v 0.098261 2.132849 3.392973
v 0.098261 2.132849 1.204674
v 0.135123 2.087932 3.392973
v 0.135123 2.087932 1.204674
v 0.162514 2.036686 3.392973
v 0.162514 2.036687 1.204674
v 0.179381 1.981082 3.392973
v 0.179381 1.981083 1.204674
v 0.185076 1.923256 3.392973
v 0.185076 1.923257 1.204674
v 0.179381 1.865430 3.392973
v 0.179381 1.865431 1.204674
v 0.162513 1.809826 3.392973
v 0.162513 1.809827 1.204674
v 0.135122 1.758581 3.392973
v 0.135122 1.758582 1.204674
v 0.098260 1.713665 3.392973
v 0.098260 1.713666 1.204674
v 0.053344 1.676803 3.392973
v 0.053344 1.676804 1.204674
v 0.002099 1.649412 3.392973
v 0.002099 1.649413 1.204674
v -0.053505 1.632545 1.204674
v -0.053505 1.632544 3.392973
v -0.111331 1.923256 4.158299
v -0.044720 1.588379 3.223253
v -0.111331 1.581818 3.223253
v -0.111331 1.581818 0.984384
v -0.044720 1.588379 0.984384
v -0.241994 1.607808 3.223253
v -0.301024 1.639361 3.223253
v -0.301024 1.639361 0.984384
v -0.241994 1.607809 0.984384
v -0.352765 1.681823 3.223253
v -0.352765 1.681823 0.984384
v -0.395227 1.733564 3.223253
v -0.395227 1.733564 0.984384
v -0.426779 1.792593 3.223253
v -0.426779 1.792594 0.984384
v -0.446209 1.856645 3.223253
v -0.446209 1.856646 0.984384
v -0.452770 1.923257 3.223253
v -0.452770 1.923257 0.984384
v -0.446209 1.989868 3.223253
v -0.446209 1.989868 0.984384
v -0.426779 2.053920 3.223253
v -0.426779 2.053920 0.984384
v -0.395227 2.112950 3.223253
v -0.395227 2.112950 0.984384
v -0.352765 2.164690 3.223253
v -0.352765 2.164691 0.984384
v -0.301024 2.207153 3.223253
v -0.301024 2.207153 0.984384
v -0.241994 2.238704 3.223253
v -0.241994 2.238705 0.984384
v -0.177942 2.258135 3.223253
v -0.177942 2.258135 0.984384
v -0.111331 2.264695 3.223253
v -0.111331 2.264696 0.984384
v -0.044720 2.258135 3.223253
v -0.044720 2.258135 0.984384
v 0.019332 2.238704 3.223253
v 0.019332 2.238705 0.984384
v 0.078362 2.207153 3.223253
v 0.078362 2.207153 0.984384
v 0.130103 2.164690 3.223253
v 0.130103 2.164690 0.984384
v 0.172565 2.112950 3.223253
v 0.172565 2.112950 0.984384
v 0.204117 2.053920 3.223253
v 0.204117 2.053920 0.984384
v 0.223547 1.989868 3.223253
v 0.223547 1.989868 0.984384
v 0.230108 1.923257 3.223253
v 0.230108 1.923257 0.984384
v 0.223547 1.856645 3.223253
v 0.223547 1.856645 0.984384
v 0.204117 1.792593 3.223253
v 0.204117 1.792594 0.984384
v 0.172565 1.733564 3.223253
v 0.172565 1.733564 0.984384
v 0.130102 1.681823 3.223253
v 0.130102 1.681823 0.984384
v 0.078362 1.639361 3.223253
v 0.078362 1.639361 0.984384
v 0.019331 1.607808 3.223253
v 0.019331 1.607809 0.984384
v -0.177942 1.588379 0.984384
v -0.177942 1.588379 3.223253
v -0.111331 1.672739 3.313737
v -0.160205 1.677553 3.313737
v -0.207200 1.691809 3.313737
v -0.250511 1.714959 3.313737
v -0.288473 1.746114 3.313737
v -0.319628 1.784076 3.313737
v -0.342778 1.827387 3.313737
v -0.357034 1.874382 3.313737
v -0.361848 1.923256 3.313737
v -0.357034 1.972129 3.313737
v -0.342778 2.019125 3.313737
v -0.319628 2.062437 3.313737
v -0.288473 2.100399 3.313737
v -0.250511 2.131553 3.313737
v -0.207200 2.154704 3.313737
v -0.160204 2.168960 3.313737
v -0.111331 2.173774 3.313737
v -0.062458 2.168960 3.313737
v -0.015462 2.154704 3.313737
v 0.027849 2.131553 3.313737
v 0.065811 2.100399 3.313737
v 0.096966 2.062437 3.313737
v 0.120116 2.019125 3.313737
v 0.134372 1.972129 3.313737
v 0.139186 1.923256 3.313737
v 0.134372 1.874382 3.313737
v 0.120116 1.827387 3.313737
v 0.096966 1.784076 3.313737
v 0.065811 1.746114 3.313737
v 0.027848 1.714959 3.313737
v -0.015463 1.691808 3.313737
v -0.062458 1.677553 3.313737
vn -0.0980 -0.9952 -0.0000
vn -0.2903 -0.9569 -0.0000
vn -0.4714 -0.8819 -0.0000
vn -0.6344 -0.7730 -0.0000
vn -0.7730 -0.6344 -0.0000
vn -0.8819 -0.4714 -0.0000
vn -0.9569 -0.2903 -0.0000
vn -0.9952 -0.0980 -0.0000
vn -0.9952 0.0980 0.0000
vn -0.9569 0.2903 0.0000
vn -0.8819 0.4714 0.0000
vn -0.7730 0.6344 0.0000
vn -0.6344 0.7730 0.0000
vn -0.4714 0.8819 0.0000
vn -0.2903 0.9569 0.0000
vn -0.0980 0.9952 0.0000
vn 0.0980 0.9952 0.0000
vn 0.2903 0.9569 0.0000
vn 0.4714 0.8819 0.0000
vn 0.6344 0.7730 0.0000
vn 0.7730 0.6344 0.0000
vn 0.8819 0.4714 0.0000
vn 0.9569 0.2903 0.0000
vn 0.9952 0.0980 0.0000
vn 0.9952 -0.0980 -0.0000
vn 0.9569 -0.2903 -0.0000
vn 0.8819 -0.4714 -0.0000
vn 0.7730 -0.6344 -0.0000
vn 0.6344 -0.7730 -0.0000
vn 0.4714 -0.8819 -0.0000
vn -0.0000 0.0000 -1.0000
vn 0.2903 -0.9569 -0.0000
vn 0.0980 -0.9952 -0.0000
vn 0.2709 0.8929 0.3596
vn 0.8229 -0.4399 0.3596
vn -0.7213 -0.5919 0.3596
vn -0.4399 0.8229 0.3596
vn 0.8929 0.2709 0.3596
vn -0.0915 -0.9286 0.3596
vn 0.0915 -0.9286 0.3596
vn -0.8929 0.2709 0.3596
vn 0.4399 0.8229 0.3596
vn 0.7213 -0.5920 0.3596
vn -0.8229 -0.4399 0.3596
vn -0.2709 0.8929 0.3596
vn 0.9286 0.0915 0.3596
vn -0.2709 -0.8929 0.3596
vn -0.8229 0.4399 0.3596
vn 0.5919 0.7213 0.3596
vn 0.5920 -0.7213 0.3596
vn -0.8929 -0.2709 0.3596
vn -0.0915 0.9286 0.3596
vn 0.9286 -0.0915 0.3596
vn -0.4399 -0.8229 0.3596
vn -0.7213 0.5919 0.3596
vn 0.7213 0.5919 0.3596
vn 0.4399 -0.8229 0.3596
vn -0.9286 -0.0915 0.3596
vn 0.0915 0.9286 0.3596
vn 0.8929 -0.2709 0.3596
vn -0.5919 -0.7213 0.3596
vn -0.5919 0.7213 0.3596
vn 0.8229 0.4399 0.3596
vn 0.2709 -0.8929 0.3596
vn -0.9286 0.0915 0.3596
vn -0.0693 -0.7037 0.7071
vn -0.2053 -0.6767 0.7071
vn -0.3333 -0.6236 0.7071
vn -0.4486 -0.5466 0.7071
vn -0.5466 -0.4486 0.7071
vn -0.6236 -0.3333 0.7071
vn -0.6767 -0.2053 0.7071
vn -0.7037 -0.0693 0.7071
vn -0.7037 0.0693 0.7071
vn -0.6767 0.2053 0.7071
vn -0.6236 0.3333 0.7071
vn -0.5466 0.4486 0.7071
vn -0.4486 0.5466 0.7071
vn -0.3333 0.6236 0.7071
vn -0.2053 0.6767 0.7071
vn -0.0693 0.7037 0.7071
vn 0.0693 0.7037 0.7071
vn 0.2053 0.6767 0.7071
vn 0.3333 0.6236 0.7071
vn 0.4486 0.5466 0.7071
vn 0.5466 0.4486 0.7071
vn 0.6236 0.3333 0.7071
vn 0.6767 0.2053 0.7071
vn 0.7037 0.0693 0.7071
vn 0.7037 -0.0693 0.7071
vn 0.6767 -0.2053 0.7071
vn 0.6236 -0.3333 0.7071
vn 0.5466 -0.4486 0.7071
vn 0.4486 -0.5466 0.7071
vn 0.3333 -0.6236 0.7071
vn 0.2053 -0.6767 0.7071
vn 0.0693 -0.7037 0.7071
vn 0.0000 0.0000 1.0000
usemtl None.006
s 1
f 1//1 2//1 3//1 4//1
f 2//2 5//2 6//2 3//2
f 5//3 7//3 8//3 6//3
f 7//4 9//4 10//4 8//4
f 9//5 11//5 12//5 10//5
f 11//6 13//6 14//6 12//6
f 13//7 15//7 16//7 14//7
f 15//8 17//8 18//8 16//8
f 17//9 19//9 20//9 18//9
f 19//10 21//10 22//10 20//10
f 21//11 23//11 24//11 22//11
f 23//12 25//12 26//12 24//12
f 25//13 27//13 28//13 26//13
f 27//14 29//14 30//14 28//14
f 29//15 31//15 32//15 30//15
f 31//16 33//16 34//16 32//16
f 33//17 35//17 36//17 34//17
f 35//18 37//18 38//18 36//18
f 37//19 39//19 40//19 38//19
f 39//20 41//20 42//20 40//20
f 41//21 43//21 44//21 42//21
f 43//22 45//22 46//22 44//22
f 45//23 47//23 48//23 46//23
f 47//24 49//24 50//24 48//24
f 49//25 51//25 52//25 50//25
f 51//26 53//26 54//26 52//26
f 53//27 55//27 56//27 54//27
f 55//28 57//28 58//28 56//28
f 57//29 59//29 60//29 58//29
f 59//30 61//30 62//30 60//30
f 3//31 6//31 8//31 10//31 12//31 14//31 16//31 18//31 20//31 22//31 24//31 26//31 28//31 30//31 32//31 34//31 36//31 38//31 40//31 42//31 44//31 46//31 48//31 50//31 52//31 54//31 56//31 58//31 60//31 62//31 63//31 4//31
f 61//32 64//32 63//32 62//32
f 64//33 1//33 4//33 63//33
f 35//34 65//34 37//34
f 53//35 65//35 55//35
f 9//36 65//36 11//36
f 27//37 65//37 29//37
f 45//38 65//38 47//38
f 1//39 65//39 2//39
f 64//40 65//40 1//40
f 19//41 65//41 21//41
f 37//42 65//42 39//42
f 55//43 65//43 57//43
f 11//44 65//44 13//44
f 29//45 65//45 31//45
f 47//46 65//46 49//46
f 2//47 65//47 5//47
f 21//48 65//48 23//48
f 39//49 65//49 41//49
f 57//50 65//50 59//50
f 13//51 65//51 15//51
f 31//52 65//52 33//52
f 49//53 65//53 51//53
f 5//54 65//54 7//54
f 23//55 65//55 25//55
f 41//56 65//56 43//56
f 59//57 65//57 61//57
f 15//58 65//58 17//58
f 33//59 65//59 35//59
f 51//60 65//60 53//60
f 7//61 65//61 9//61
f 25//62 65//62 27//62
f 43//63 65//63 45//63
f 61//64 65//64 64//64
f 17//65 65//65 19//65
f 66//33 67//33 68//33 69//33
f 70//3 71//3 72//3 73//3
f 71//4 74//4 75//4 72//4
f 74//5 76//5 77//5 75//5
f 76//6 78//6 79//6 77//6
f 78//7 80//7 81//7 79//7
f 80//8 82//8 83//8 81//8
f 82//9 84//9 85//9 83//9
f 84//10 86//10 87//10 85//10
f 86//11 88//11 89//11 87//11
f 88//12 90//12 91//12 89//12
f 90//13 92//13 93//13 91//13
f 92//14 94//14 95//14 93//14
f 94//15 96//15 97//15 95//15
f 96//16 98//16 99//16 97//16
f 98//17 100//17 101//17 99//17
f 100//18 102//18 103//18 101//18
f 102//19 104//19 105//19 103//19
f 104//20 106//20 107//20 105//20
f 106//21 108//21 109//21 107//21
f 108//22 110//22 111//22 109//22
f 110//23 112//23 113//23 111//23
f 112//24 114//24 115//24 113//24
f 114//25 116//25 117//25 115//25
f 116//26 118//26 119//26 117//26
f 118//27 120//27 121//27 119//27
f 120//28 122//28 123//28 121//28
f 122//29 124//29 125//29 123//29
f 124//30 126//30 127//30 125//30
f 126//32 66//32 69//32 127//32
f 128//31 73//31 72//31 75//31 77//31 79//31 81//31 83//31 85//31 87//31 89//31 91//31 93//31 95//31 97//31 99//31 101//31 103//31 105//31 107//31 109//31 111//31 113//31 115//31 117//31 119//31 121//31 123//31 125//31 127//31 69//31 68//31
f 129//2 70//2 73//2 128//2
f 67//1 129//1 128//1 68//1
f 67//66 130//66 131//66 129//66
f 129//67 131//67 132//67 70//67
f 70//68 132//68 133//68 71//68
f 71//69 133//69 134//69 74//69
f 74//70 134//70 135//70 76//70
f 76//71 135//71 136//71 78//71
f 78//72 136//72 137//72 80//72
f 80//73 137//73 138//73 82//73
f 82//74 138//74 139//74 84//74
f 84//75 139//75 140//75 86//75
f 86//76 140//76 141//76 88//76
f 88//77 141//77 142//77 90//77
f 90//78 142//78 143//78 92//78
f 92//79 143//79 144//79 94//79
f 94//80 144//80 145//80 96//80
f 96//81 145//81 146//81 98//81
f 98//82 146//82 147//82 100//82
f 100//83 147//83 148//83 102//83
f 102//84 148//84 149//84 104//84
f 104//85 149//85 150//85 106//85
f 106//86 150//86 151//86 108//86
f 108//87 151//87 152//87 110//87
f 110//88 152//88 153//88 112//88
f 112//89 153//89 154//89 114//89
f 114//90 154//90 155//90 116//90
f 116//91 155//91 156//91 118//91
f 118//92 156//92 157//92 120//92
f 120//93 157//93 158//93 122//93
f 122//94 158//94 159//94 124//94
f 124//95 159//95 160//95 126//95
f 126//96 160//96 161//96 66//96
f 66//97 161//97 130//97 67//97
f 130//98 161//98 160//98 159//98 158//98 157//98 156//98 155//98 154//98 153//98 152//98 151//98 150//98 149//98 148//98 147//98 146//98 145//98 144//98 143//98 142//98 141//98 140//98 139//98 138//98 137//98 136//98 135//98 134//98 133//98 132//98 131//98
o 실린더.000_실린더.001
v 0.093104 1.374167 3.392973
v 0.035278 1.379863 3.392973
v 0.035278 1.379864 1.204674
v 0.093104 1.374168 1.204674
v -0.020326 1.396730 3.392973
v -0.020326 1.396731 1.204674
v -0.071571 1.424121 3.392973
v -0.071571 1.424122 1.204674
v -0.116487 1.460983 3.392973
v -0.116487 1.460984 1.204674
v -0.153349 1.505900 3.392973
v -0.153349 1.505901 1.204674
v -0.180740 1.557144 3.392973
v -0.180740 1.557145 1.204674
v -0.197607 1.612748 3.392973
v -0.197607 1.612749 1.204674
v -0.203303 1.670575 3.392973
v -0.203303 1.670576 1.204674
v -0.197607 1.728401 3.392973
v -0.197607 1.728402 1.204674
v -0.180740 1.784005 3.392973
v -0.180740 1.784006 1.204674
v -0.153349 1.835250 3.392973
v -0.153349 1.835251 1.204674
v -0.116487 1.880166 3.392973
v -0.116487 1.880167 1.204674
v -0.071571 1.917028 3.392973
v -0.071571 1.917029 1.204674
v -0.020326 1.944419 3.392973
v -0.020326 1.944420 1.204674
v 0.035278 1.961286 3.392973
v 0.035278 1.961287 1.204674
v 0.093105 1.966982 3.392973
v 0.093105 1.966983 1.204674
v 0.150931 1.961286 3.392973
v 0.150931 1.961287 1.204674
v 0.206535 1.944419 3.392973
v 0.206535 1.944420 1.204674
v 0.257780 1.917028 3.392973
v 0.257780 1.917029 1.204674
v 0.302696 1.880166 3.392973
v 0.302696 1.880167 1.204674
v 0.339558 1.835249 3.392973
v 0.339558 1.835250 1.204674
v 0.366949 1.784005 3.392973
v 0.366949 1.784006 1.204674
v 0.383816 1.728401 3.392973
v 0.383816 1.728402 1.204674
v 0.389512 1.670574 3.392973
v 0.389512 1.670575 1.204674
v 0.383816 1.612748 3.392973
v 0.383816 1.612749 1.204674
v 0.366949 1.557144 3.392973
v 0.366949 1.557145 1.204674
v 0.339558 1.505899 3.392973
v 0.339558 1.505900 1.204674
v 0.302696 1.460983 3.392973
v 0.302696 1.460984 1.204674
v 0.257779 1.424121 3.392973
v 0.257779 1.424122 1.204674
v 0.206534 1.396730 3.392973
v 0.206534 1.396731 1.204674
v 0.150930 1.379864 1.204674
v 0.150930 1.379863 3.392973
v 0.093105 1.670574 4.158299
v 0.159715 1.335697 3.223253
v 0.093104 1.329136 3.223253
v 0.093104 1.329137 0.984384
v 0.159715 1.335697 0.984384
v -0.037558 1.355127 3.223253
v -0.096589 1.386679 3.223253
v -0.096589 1.386680 0.984384
v -0.037558 1.355127 0.984384
v -0.148329 1.429142 3.223253
v -0.148329 1.429142 0.984384
v -0.190791 1.480882 3.223253
v -0.190791 1.480882 0.984384
v -0.222344 1.539912 3.223253
v -0.222344 1.539912 0.984384
v -0.241773 1.603963 3.223253
v -0.241773 1.603964 0.984384
v -0.248334 1.670575 3.223253
v -0.248334 1.670575 0.984384
v -0.241774 1.737187 3.223253
v -0.241774 1.737187 0.984384
v -0.222344 1.801237 3.223253
v -0.222344 1.801238 0.984384
v -0.190791 1.860268 3.223253
v -0.190791 1.860268 0.984384
v -0.148329 1.912009 3.223253
v -0.148329 1.912009 0.984384
v -0.096589 1.954471 3.223253
v -0.096589 1.954471 0.984384
v -0.037558 1.986022 3.223253
v -0.037558 1.986024 0.984384
v 0.026493 2.005453 3.223253
v 0.026493 2.005453 0.984384
v 0.093105 2.012013 3.223253
v 0.093105 2.012014 0.984384
v 0.159716 2.005453 3.223253
v 0.159716 2.005453 0.984384
v 0.223768 1.986022 3.223253
v 0.223768 1.986023 0.984384
v 0.282798 1.954471 3.223253
v 0.282798 1.954471 0.984384
v 0.334538 1.912009 3.223253
v 0.334538 1.912009 0.984384
v 0.377000 1.860268 3.223253
v 0.377000 1.860268 0.984384
v 0.408553 1.801237 3.223253
v 0.408553 1.801238 0.984384
v 0.427983 1.737185 3.223253
v 0.427983 1.737186 0.984384
v 0.434543 1.670575 3.223253
v 0.434543 1.670575 0.984384
v 0.427982 1.603963 3.223253
v 0.427982 1.603964 0.984384
v 0.408552 1.539912 3.223253
v 0.408552 1.539912 0.984384
v 0.377000 1.480882 3.223253
v 0.377000 1.480882 0.984384
v 0.334538 1.429141 3.223253
v 0.334538 1.429142 0.984384
v 0.282797 1.386679 3.223253
v 0.282797 1.386679 0.984384
v 0.223767 1.355127 3.223253
v 0.223767 1.355127 0.984384
v 0.026493 1.335697 0.984384
v 0.026493 1.335697 3.223253
v 0.093105 1.420057 3.313737
v 0.044231 1.424871 3.313737
v -0.002764 1.439127 3.313737
v -0.046075 1.462277 3.313737
v -0.084038 1.493432 3.313737
v -0.115193 1.531395 3.313737
v -0.138343 1.574706 3.313737
v -0.152599 1.621701 3.313737
v -0.157412 1.670574 3.313737
v -0.152599 1.719448 3.313737
v -0.138343 1.766443 3.313737
v -0.115193 1.809754 3.313737
v -0.084038 1.847716 3.313737
v -0.046075 1.878871 3.313737
v -0.002764 1.902022 3.313737
v 0.044231 1.916277 3.313737
v 0.093105 1.921091 3.313737
v 0.141978 1.916277 3.313737
v 0.188973 1.902022 3.313737
v 0.232284 1.878871 3.313737
v 0.270247 1.847716 3.313737
v 0.301402 1.809754 3.313737
v 0.324552 1.766443 3.313737
v 0.338808 1.719447 3.313737
v 0.343621 1.670574 3.313737
v 0.338808 1.621700 3.313737
v 0.324552 1.574705 3.313737
v 0.301401 1.531394 3.313737
v 0.270246 1.493432 3.313737
v 0.232284 1.462277 3.313737
v 0.188973 1.439127 3.313737
v 0.141977 1.424871 3.313737
vn -0.0980 -0.9952 -0.0000
vn -0.2903 -0.9569 -0.0000
vn -0.4714 -0.8819 -0.0000
vn -0.6344 -0.7730 -0.0000
vn -0.7730 -0.6344 -0.0000
vn -0.8819 -0.4714 -0.0000
vn -0.9569 -0.2903 -0.0000
vn -0.9952 -0.0980 -0.0000
vn -0.9952 0.0980 0.0000
vn -0.9569 0.2903 0.0000
vn -0.8819 0.4714 0.0000
vn -0.7730 0.6344 0.0000
vn -0.6344 0.7730 0.0000
vn -0.4714 0.8819 0.0000
vn -0.2903 0.9569 0.0000
vn -0.0980 0.9952 0.0000
vn 0.0980 0.9952 0.0000
vn 0.2903 0.9569 0.0000
vn 0.4714 0.8819 0.0000
vn 0.6344 0.7730 0.0000
vn 0.7730 0.6344 0.0000
vn 0.8819 0.4714 0.0000
vn 0.9569 0.2903 0.0000
vn 0.9952 0.0980 0.0000
vn 0.9952 -0.0980 -0.0000
vn 0.9569 -0.2903 -0.0000
vn 0.8819 -0.4714 -0.0000
vn 0.7730 -0.6344 -0.0000
vn 0.6344 -0.7730 -0.0000
vn 0.4714 -0.8819 -0.0000
vn -0.0000 0.0000 -1.0000
vn 0.2903 -0.9569 -0.0000
vn 0.0980 -0.9952 -0.0000
vn 0.2709 0.8929 0.3596
vn 0.8229 -0.4399 0.3596
vn -0.7213 -0.5919 0.3596
vn -0.4399 0.8229 0.3596
vn 0.8929 0.2709 0.3596
vn -0.0915 -0.9286 0.3596
vn 0.0915 -0.9286 0.3596
vn -0.8929 0.2709 0.3596
vn 0.4399 0.8229 0.3596
vn 0.7213 -0.5920 0.3596
vn -0.8229 -0.4399 0.3596
vn -0.2709 0.8929 0.3596
vn 0.9286 0.0915 0.3596
vn -0.2709 -0.8929 0.3596
vn -0.8229 0.4399 0.3596
vn 0.5920 0.7213 0.3596
vn 0.5919 -0.7213 0.3596
vn -0.8929 -0.2709 0.3596
vn -0.0915 0.9286 0.3596
vn 0.9286 -0.0915 0.3596
vn -0.4399 -0.8229 0.3596
vn -0.7213 0.5919 0.3596
vn 0.7213 0.5919 0.3596
vn 0.4399 -0.8229 0.3596
vn -0.9286 -0.0915 0.3596
vn 0.0915 0.9286 0.3596
vn 0.8929 -0.2709 0.3596
vn -0.5920 -0.7213 0.3596
vn -0.5920 0.7213 0.3596
vn 0.8229 0.4399 0.3596
vn 0.2709 -0.8929 0.3596
vn -0.9286 0.0915 0.3596
vn -0.0693 -0.7037 0.7071
vn -0.2053 -0.6767 0.7071
vn -0.3333 -0.6236 0.7071
vn -0.4486 -0.5466 0.7071
vn -0.5466 -0.4486 0.7071
vn -0.6236 -0.3333 0.7071
vn -0.6767 -0.2053 0.7071
vn -0.7037 -0.0693 0.7071
vn -0.7037 0.0693 0.7071
vn -0.6767 0.2053 0.7071
vn -0.6236 0.3333 0.7071
vn -0.5466 0.4486 0.7071
vn -0.4486 0.5466 0.7071
vn -0.3333 0.6236 0.7071
vn -0.2053 0.6767 0.7071
vn -0.0693 0.7037 0.7071
vn 0.0693 0.7037 0.7071
vn 0.2053 0.6767 0.7071
vn 0.3333 0.6236 0.7071
vn 0.4486 0.5466 0.7071
vn 0.5466 0.4486 0.7071
vn 0.6236 0.3333 0.7071
vn 0.6767 0.2053 0.7071
vn 0.7037 0.0693 0.7071
vn 0.7037 -0.0693 0.7071
vn 0.6767 -0.2053 0.7071
vn 0.6236 -0.3333 0.7071
vn 0.5466 -0.4486 0.7071
vn 0.4486 -0.5466 0.7071
vn 0.3333 -0.6236 0.7071
vn 0.2053 -0.6767 0.7071
vn 0.0693 -0.7037 0.7071
vn -0.0000 0.0000 1.0000
usemtl None.006
s 1
f 162//99 163//99 164//99 165//99
f 163//100 166//100 167//100 164//100
f 166//101 168//101 169//101 167//101
f 168//102 170//102 171//102 169//102
f 170//103 172//103 173//103 171//103
f 172//104 174//104 175//104 173//104
f 174//105 176//105 177//105 175//105
f 176//106 178//106 179//106 177//106
f 178//107 180//107 181//107 179//107
f 180//108 182//108 183//108 181//108
f 182//109 184//109 185//109 183//109
f 184//110 186//110 187//110 185//110
f 186//111 188//111 189//111 187//111
f 188//112 190//112 191//112 189//112
f 190//113 192//113 193//113 191//113
f 192//114 194//114 195//114 193//114
f 194//115 196//115 197//115 195//115
f 196//116 198//116 199//116 197//116
f 198//117 200//117 201//117 199//117
f 200//118 202//118 203//118 201//118
f 202//119 204//119 205//119 203//119
f 204//120 206//120 207//120 205//120
f 206//121 208//121 209//121 207//121
f 208//122 210//122 211//122 209//122
f 210//123 212//123 213//123 211//123
f 212//124 214//124 215//124 213//124
f 214//125 216//125 217//125 215//125
f 216//126 218//126 219//126 217//126
f 218//127 220//127 221//127 219//127
f 220//128 222//128 223//128 221//128
f 164//129 167//129 169//129 171//129 173//129 175//129 177//129 179//129 181//129 183//129 185//129 187//129 189//129 191//129 193//129 195//129 197//129 199//129 201//129 203//129 205//129 207//129 209//129 211//129 213//129 215//129 217//129 219//129 221//129 223//129 224//129 165//129
f 222//130 225//130 224//130 223//130
f 225//131 162//131 165//131 224//131
f 196//132 226//132 198//132
f 214//133 226//133 216//133
f 170//134 226//134 172//134
f 188//135 226//135 190//135
f 206//136 226//136 208//136
f 162//137 226//137 163//137
f 225//138 226//138 162//138
f 180//139 226//139 182//139
f 198//140 226//140 200//140
f 216//141 226//141 218//141
f 172//142 226//142 174//142
f 190//143 226//143 192//143
f 208//144 226//144 210//144
f 163//145 226//145 166//145
f 182//146 226//146 184//146
f 200//147 226//147 202//147
f 218//148 226//148 220//148
f 174//149 226//149 176//149
f 192//150 226//150 194//150
f 210//151 226//151 212//151
f 166//152 226//152 168//152
f 184//153 226//153 186//153
f 202//154 226//154 204//154
f 220//155 226//155 222//155
f 176//156 226//156 178//156
f 194//157 226//157 196//157
f 212//158 226//158 214//158
f 168//159 226//159 170//159
f 186//160 226//160 188//160
f 204//161 226//161 206//161
f 222//162 226//162 225//162
f 178//163 226//163 180//163
f 227//131 228//131 229//131 230//131
f 231//101 232//101 233//101 234//101
f 232//102 235//102 236//102 233//102
f 235//103 237//103 238//103 236//103
f 237//104 239//104 240//104 238//104
f 239//105 241//105 242//105 240//105
f 241//106 243//106 244//106 242//106
f 243//107 245//107 246//107 244//107
f 245//108 247//108 248//108 246//108
f 247//109 249//109 250//109 248//109
f 249//110 251//110 252//110 250//110
f 251//111 253//111 254//111 252//111
f 253//112 255//112 256//112 254//112
f 255//113 257//113 258//113 256//113
f 257//114 259//114 260//114 258//114
f 259//115 261//115 262//115 260//115
f 261//116 263//116 264//116 262//116
f 263//117 265//117 266//117 264//117
f 265//118 267//118 268//118 266//118
f 267//119 269//119 270//119 268//119
f 269//120 271//120 272//120 270//120
f 271//121 273//121 274//121 272//121
f 273//122 275//122 276//122 274//122
f 275//123 277//123 278//123 276//123
f 277//124 279//124 280//124 278//124
f 279//125 281//125 282//125 280//125
f 281//126 283//126 284//126 282//126
f 283//127 285//127 286//127 284//127
f 285//128 287//128 288//128 286//128
f 287//130 227//130 230//130 288//130
f 289//129 234//129 233//129 236//129 238//129 240//129 242//129 244//129 246//129 248//129 250//129 252//129 254//129 256//129 258//129 260//129 262//129 264//129 266//129 268//129 270//129 272//129 274//129 276//129 278//129 280//129 282//129 284//129 286//129 288//129 230//129 229//129
f 290//100 231//100 234//100 289//100
f 228//99 290//99 289//99 229//99
f 228//164 291//164 292//164 290//164
f 290//165 292//165 293//165 231//165
f 231//166 293//166 294//166 232//166
f 232//167 294//167 295//167 235//167
f 235//168 295//168 296//168 237//168
f 237//169 296//169 297//169 239//169
f 239//170 297//170 298//170 241//170
f 241//171 298//171 299//171 243//171
f 243//172 299//172 300//172 245//172
f 245//173 300//173 301//173 247//173
f 247//174 301//174 302//174 249//174
f 249//175 302//175 303//175 251//175
f 251//176 303//176 304//176 253//176
f 253//177 304//177 305//177 255//177
f 255//178 305//178 306//178 257//178
f 257//179 306//179 307//179 259//179
f 259//180 307//180 308//180 261//180
f 261//181 308//181 309//181 263//181
f 263//182 309//182 310//182 265//182
f 265//183 310//183 311//183 267//183
f 267//184 311//184 312//184 269//184
f 269//185 312//185 313//185 271//185
f 271//186 313//186 314//186 273//186
f 273//187 314//187 315//187 275//187
f 275//188 315//188 316//188 277//188
f 277//189 316//189 317//189 279//189
f 279//190 317//190 318//190 281//190
f 281//191 318//191 319//191 283//191
f 283//192 319//192 320//192 285//192
f 285//193 320//193 321//193 287//193
f 287//194 321//194 322//194 227//194
f 227//195 322//195 291//195 228//195
f 291//196 322//196 321//196 320//196 319//196 318//196 317//196 316//196 315//196 314//196 313//196 312//196 311//196 310//196 309//196 308//196 307//196 306//196 305//196 304//196 303//196 302//196 301//196 300//196 299//196 298//196 297//196 296//196 295//196 294//196 293//196 292//196
