# Blender v2.83.18 OBJ File: 'untitle3d.blend'
# www.blender.org
mtllib cover_1.mtl
o 실린더.003_실린더.001
v 0.206609 5.480712 14.310927
v 0.412962 5.361780 15.929597
v 0.206609 5.480713 12.654548
v 0.603137 5.168642 17.623684
v 0.603137 5.168643 15.929597
v 0.769827 4.908725 15.929597
v 0.769827 4.908724 17.623684
v 0.906626 4.592012 15.929597
v 0.906626 4.592012 17.623684
v 1.008277 4.230680 15.929597
v 1.008277 4.230679 17.623684
v 1.070873 3.838610 15.929597
v 1.070873 3.838610 17.623684
v 1.092010 3.430871 15.929597
v 1.092010 3.430871 17.623684
v 1.070874 3.023132 15.929597
v 1.070874 3.023132 17.623684
v 1.008277 2.631063 15.929596
v 1.008277 2.631063 17.623684
v 0.906626 2.269729 15.929596
v 0.906626 2.269729 17.623684
v 0.769827 1.953018 15.929596
v 0.769827 1.953018 17.623684
v 0.603137 1.693099 15.929596
v 0.603137 1.693099 17.623684
v 0.412961 1.499962 15.929596
v 0.412961 1.499962 17.623684
v 0.206609 1.381029 15.929596
v 0.206609 5.480712 7.685411
v -0.007990 5.520872 9.341790
v 0.206609 5.480713 9.341790
v 0.206609 5.480713 4.372653
v -0.007990 5.520872 6.029032
v 0.206609 5.480714 6.029032
v -0.007990 5.520872 12.654548
v 0.206609 5.480713 10.998169
v -0.007990 5.520872 10.998169
v -0.007990 5.520872 15.967306
v -0.007990 5.520872 14.310927
v -0.007991 1.386151 4.372652
v 0.206609 1.381031 6.013670
v -0.007991 1.386152 6.013670
v 0.206609 5.480712 17.623684
v -0.007990 5.520871 16.795494
v -0.007990 5.520871 17.623684
v -0.007991 1.386150 15.929596
v 0.206609 1.381029 17.623684
v -0.007991 1.386150 17.623684
v 0.412962 5.361781 4.372653
v 0.603137 5.168644 6.013671
v 0.603137 5.168644 4.372653
v 0.769827 4.908726 4.372653
v 0.769827 4.908725 6.013671
v 0.906626 4.592014 4.372653
v 0.906626 4.592014 6.013671
v 1.008277 4.230680 4.372653
v 1.008277 4.230680 6.013670
v 1.070873 3.838611 4.372653
v 1.070873 3.838611 6.013670
v 1.092010 3.430872 4.372653
v 1.092010 3.430872 6.013670
v 1.070874 3.023134 4.372653
v 1.070874 3.023134 6.013670
v 1.008277 2.631064 4.372653
v 1.008277 2.631064 6.013670
v 0.906626 2.269731 4.372653
v 0.906626 2.269731 6.013670
v 0.769827 1.953019 4.372653
v 0.769827 1.953019 6.013670
v 0.603137 1.693101 4.372653
v 0.603137 1.693101 6.013670
v 0.412961 1.499964 4.372653
v 0.412961 1.499964 6.013670
v 0.206609 1.381031 4.372652
v 0.500469 4.592012 17.623684
v 0.006804 5.361779 17.623684
v 0.196980 1.693099 17.623684
v 0.664716 3.023132 17.623684
v 0.602120 4.230679 17.623684
v 0.363670 1.953018 17.623684
v 0.500469 2.269729 17.623684
v -0.199549 1.381029 17.623684
v 0.363670 4.908724 17.623684
v 0.664716 3.838610 17.623684
v 0.685852 3.430871 17.623684
v 0.602120 2.631063 17.623684
v 0.006804 1.499962 17.623684
v 0.196980 5.168642 17.623684
v -0.199549 1.381031 4.372652
v 0.500469 2.269731 4.372653
v 0.602120 2.631064 4.372653
v 0.363670 4.908726 4.372653
v 0.412962 5.361779 17.623684
v 0.664716 3.023134 4.372653
v 0.196980 5.168644 4.372653
v 0.685852 3.430872 4.372653
v 0.006804 5.361781 4.372653
v -0.007990 5.520873 4.372653
v 0.006804 1.499964 4.372653
v 0.196980 1.693101 4.372653
v 0.664716 3.838611 4.372653
v 0.363670 1.953019 4.372653
v 0.602120 4.230680 4.372653
v 0.500469 4.592014 4.372653
v 1.403772 4.842077 15.929597
v 1.403772 4.842077 6.013671
v 0.412962 5.361780 6.013671
v 1.046907 1.433314 15.929596
v 0.840554 1.314381 15.929596
v 0.625955 1.319503 6.013670
v 0.625955 1.319501 15.929596
v 1.046907 1.433316 6.013670
v 0.840554 1.314383 6.013670
v 1.237082 1.626453 6.013670
v 1.403772 1.886371 6.013670
v 1.540572 4.525364 15.929597
v 1.540572 2.203083 6.013670
v 1.642223 4.164032 15.929597
v 1.540572 4.525366 6.013671
v 1.642223 4.164032 6.013670
v 1.704819 3.771961 15.929597
v 1.704819 3.771963 6.013670
v 1.725955 3.364223 15.929597
v 1.725955 3.364224 6.013670
v 1.704819 2.956484 15.929597
v 1.704819 2.956486 6.013670
v 1.642223 2.564415 15.929596
v 1.642223 2.564416 6.013670
v 1.540572 2.203081 15.929596
v 1.403772 1.886369 15.929596
v 1.237082 1.626451 15.929596
v 0.206609 5.480712 16.795494
v 0.206609 5.480712 15.967306
v -0.007990 5.520872 7.685411
vn 0.4994 0.8664 0.0000
vn 0.7125 0.7016 0.0000
vn 0.7126 0.7016 0.0000
vn 0.8418 0.5398 0.0000
vn 0.9180 0.3965 0.0000
vn 0.9626 0.2708 0.0000
vn 0.9875 0.1577 0.0000
vn 0.9987 0.0518 0.0000
vn 0.9987 -0.0518 0.0000
vn 0.9875 -0.1577 -0.0000
vn 0.9626 -0.2708 -0.0000
vn 0.9180 -0.3965 -0.0000
vn 0.8418 -0.5398 -0.0000
vn 0.7125 -0.7016 -0.0000
vn 0.4994 -0.8664 -0.0000
vn 0.1839 0.9829 0.0000
vn -0.0239 -0.9997 -0.0000
vn 0.0000 0.0000 1.0000
vn -0.0267 0.9996 0.0000
vn 0.0000 0.0000 -1.0000
vn 0.4645 0.8856 0.0000
vn -0.1452 -0.9894 -0.0000
vn 0.4993 0.8664 0.0000
usemtl None.008
s 1
f 1//1 2//1 3//1
f 2//2 4//3 5//2
f 4//4 6//4 5//4
f 7//5 8//5 6//5
f 9//6 10//6 8//6
f 11//7 12//7 10//7
f 13//8 14//8 12//8
f 15//9 16//9 14//9
f 17//10 18//10 16//10
f 19//11 20//11 18//11
f 21//12 22//12 20//12
f 23//13 24//13 22//13
f 25//14 26//14 24//14
f 27//15 28//15 26//15
f 29//16 30//16 31//16
f 32//16 33//16 34//16
f 35//16 36//16 37//16
f 38//16 1//16 39//16
f 40//17 41//17 42//17
f 43//16 44//16 45//16
f 46//17 47//17 48//17
f 49//2 50//2 51//2
f 50//4 52//4 51//4
f 53//5 54//5 52//5
f 55//6 56//6 54//6
f 57//7 58//7 56//7
f 59//8 60//8 58//8
f 61//9 62//9 60//9
f 63//10 64//10 62//10
f 65//11 66//11 64//11
f 67//12 68//12 66//12
f 69//13 70//13 68//13
f 71//14 72//14 70//14
f 73//15 74//15 72//15
f 75//18 76//18 77//18
f 78//18 79//18 75//18
f 80//18 81//18 78//18
f 76//18 82//18 77//18
f 75//18 83//18 76//18
f 84//18 79//18 78//18
f 78//18 85//18 84//18
f 81//18 86//18 78//18
f 77//18 80//18 78//18
f 82//18 87//18 77//18
f 76//18 45//18 82//18
f 83//18 88//18 76//18
f 40//19 89//19 82//19
f 4//18 88//18 83//18
f 66//20 90//20 91//20
f 51//20 52//20 92//20
f 19//18 17//18 78//18
f 93//18 76//18 88//18
f 64//20 91//20 94//20
f 49//20 51//20 95//20
f 17//18 15//18 85//18
f 43//18 45//18 76//18
f 62//20 94//20 96//20
f 47//18 27//18 87//18
f 97//20 98//20 32//20
f 13//18 84//18 85//18
f 74//20 89//20 99//20
f 58//20 60//20 96//20
f 27//18 25//18 77//18
f 11//18 79//18 84//18
f 72//20 99//20 100//20
f 56//20 58//20 101//20
f 25//18 23//18 80//18
f 9//18 75//18 79//18
f 70//20 100//20 102//20
f 54//20 56//20 103//20
f 23//18 21//18 81//18
f 7//18 83//18 75//18
f 68//20 102//20 90//20
f 52//20 54//20 104//20
f 21//18 19//18 86//18
f 2//21 105//21 106//21
f 105//18 2//18 5//18
f 50//20 107//20 106//20
f 24//18 26//18 108//18
f 26//18 28//18 109//18
f 41//22 110//22 111//22
f 73//20 112//20 113//20
f 42//17 41//17 28//17
f 71//20 114//20 112//20
f 69//20 115//20 114//20
f 8//18 116//18 105//18
f 67//20 117//20 115//20
f 10//18 118//18 116//18
f 110//17 113//17 109//17
f 105//5 116//5 119//5
f 116//6 118//6 120//6
f 118//7 121//7 122//7
f 121//8 123//8 124//8
f 123//9 125//9 126//9
f 125//10 127//10 128//10
f 127//11 129//11 117//11
f 129//12 130//12 115//12
f 130//13 131//13 114//13
f 131//14 108//14 112//14
f 108//15 109//15 113//15
f 22//18 24//18 131//18
f 55//20 53//20 106//20
f 20//18 22//18 130//18
f 57//20 55//20 119//20
f 18//18 20//18 129//18
f 59//20 57//20 120//20
f 16//18 18//18 127//18
f 61//20 59//20 122//20
f 14//18 16//18 125//18
f 61//20 124//20 126//20
f 65//20 117//20 67//20
f 12//18 118//18 10//18
f 63//20 128//20 65//20
f 14//18 121//18 12//18
f 61//20 126//20 63//20
f 14//18 125//18 123//18
f 61//20 122//20 124//20
f 16//18 127//18 125//18
f 59//20 120//20 122//20
f 18//18 129//18 127//18
f 57//20 119//20 120//20
f 20//18 130//18 129//18
f 55//20 106//20 119//20
f 22//18 131//18 130//18
f 14//18 123//18 121//18
f 63//20 126//20 128//20
f 12//18 121//18 118//18
f 65//20 128//20 117//20
f 73//15 41//15 74//15
f 71//14 73//14 72//14
f 69//13 71//13 70//13
f 67//12 69//12 68//12
f 65//11 67//11 66//11
f 63//10 65//10 64//10
f 61//9 63//9 62//9
f 59//8 61//8 60//8
f 57//7 59//7 58//7
f 55//6 57//6 56//6
f 53//5 55//5 54//5
f 50//4 53//4 52//4
f 108//15 113//15 112//15
f 131//14 112//14 114//14
f 130//13 114//13 115//13
f 129//12 115//12 117//12
f 127//11 117//11 128//11
f 125//10 128//10 126//10
f 123//9 126//9 124//9
f 121//8 124//8 122//8
f 118//7 122//7 120//7
f 116//6 120//6 119//6
f 105//5 119//5 106//5
f 110//17 109//17 111//17
f 10//18 116//18 8//18
f 67//20 115//20 69//20
f 8//18 105//18 6//18
f 69//20 114//20 71//20
f 71//20 112//20 73//20
f 42//17 28//17 46//17
f 73//20 113//20 41//20
f 111//18 109//18 28//18
f 41//22 111//22 28//22
f 26//18 109//18 108//18
f 24//18 108//18 131//18
f 50//20 106//20 53//20
f 105//18 5//18 6//18
f 2//21 106//21 107//21
f 113//20 110//20 41//20
f 49//2 107//2 50//2
f 46//17 28//17 47//17
f 43//16 132//16 44//16
f 40//17 74//17 41//17
f 38//16 133//16 1//16
f 35//16 3//16 36//16
f 32//16 98//16 33//16
f 29//16 134//16 30//16
f 27//15 47//15 28//15
f 25//14 27//14 26//14
f 23//13 25//13 24//13
f 21//12 23//12 22//12
f 19//11 21//11 20//11
f 17//10 19//10 18//10
f 15//9 17//9 16//9
f 13//8 15//8 14//8
f 11//7 13//7 12//7
f 9//6 11//6 10//6
f 7//5 9//5 8//5
f 4//4 7//4 6//4
f 2//2 93//3 4//3
f 107//1 36//1 2//1
f 132//1 2//1 133//1
f 1//1 133//1 2//1
f 43//1 93//1 132//1
f 107//1 31//1 36//1
f 36//1 3//1 2//1
f 107//1 34//1 29//1
f 93//1 2//1 132//1
f 32//1 34//1 107//1
f 29//23 31//1 107//1
f 49//1 32//1 107//1
f 21//18 86//18 81//18
f 52//20 104//20 92//20
f 68//20 90//20 66//20
f 7//18 75//18 9//18
f 23//18 81//18 80//18
f 54//20 103//20 104//20
f 70//20 102//20 68//20
f 9//18 79//18 11//18
f 25//18 80//18 77//18
f 56//20 101//20 103//20
f 72//20 100//20 70//20
f 11//18 84//18 13//18
f 27//18 77//18 87//18
f 58//20 96//20 101//20
f 74//20 99//20 72//20
f 13//18 85//18 15//18
f 97//20 32//20 49//20
f 47//18 87//18 82//18
f 62//20 96//20 60//20
f 43//18 76//18 93//18
f 17//18 85//18 78//18
f 49//20 95//20 97//20
f 64//20 94//20 62//20
f 93//18 88//18 4//18
f 19//18 78//18 86//18
f 51//20 92//20 95//20
f 66//20 91//20 64//20
f 4//18 83//18 7//18
f 40//19 82//19 48//19
f 77//18 78//18 75//18
