# Blender v2.83.18 OBJ File: 'untitle3d.blend'
# www.blender.org
mtllib cover_2.mtl
o 실린더.002_실린더.001
v -0.222590 5.480712 14.310927
v -0.222590 5.480713 12.654548
v -0.428942 5.361780 15.929597
v -0.619117 5.168643 15.929597
v -0.619117 5.168642 17.623684
v -0.785808 4.908725 15.929597
v -0.785808 4.908724 17.623684
v -0.922607 4.592012 15.929597
v -0.922607 4.592012 17.623684
v -1.024258 4.230680 15.929597
v -1.024258 4.230679 17.623684
v -1.086854 3.838610 15.929597
v -1.086854 3.838610 17.623684
v -1.107990 3.430871 15.929597
v -1.107990 3.430871 17.623684
v -1.086854 3.023132 15.929597
v -1.086854 3.023132 17.623684
v -1.024258 2.631063 15.929596
v -1.024258 2.631063 17.623684
v -0.922607 2.269729 15.929596
v -0.922607 2.269729 17.623684
v -0.785808 1.953018 15.929596
v -0.785808 1.953018 17.623684
v -0.619117 1.693099 15.929596
v -0.619117 1.693099 17.623684
v -0.428942 1.499962 15.929596
v -0.428942 1.499962 17.623684
v -0.222589 1.381029 15.929596
v -0.222590 5.480712 7.685411
v -0.222590 5.480713 9.341790
v -0.007990 5.520872 9.341790
v -0.222590 5.480713 4.372653
v -0.222590 5.480714 6.029032
v -0.007990 5.520872 6.029032
v -0.007990 5.520872 12.654548
v -0.007990 5.520872 10.998169
v -0.222590 5.480713 10.998169
v -0.007990 5.520872 15.967306
v -0.007990 5.520872 14.310927
v -0.007990 1.386151 4.372652
v -0.007990 1.386152 6.013670
v -0.222589 1.381031 6.013670
v -0.222590 5.480712 17.623684
v -0.007990 5.520871 17.623684
v -0.007990 5.520871 16.795494
v -0.007990 1.386150 15.929596
v -0.007990 1.386150 17.623684
v -0.222589 1.381029 17.623684
v -0.428942 5.361781 4.372653
v -0.619117 5.168644 4.372653
v -0.619117 5.168644 6.013671
v -0.785808 4.908726 4.372653
v -0.785808 4.908725 6.013671
v -0.922607 4.592014 4.372653
v -0.922607 4.592014 6.013671
v -1.024258 4.230680 4.372653
v -1.024258 4.230680 6.013670
v -1.086854 3.838611 4.372653
v -1.086854 3.838611 6.013670
v -1.107990 3.430872 4.372653
v -1.107990 3.430872 6.013670
v -1.086854 3.023134 4.372653
v -1.086854 3.023134 6.013670
v -1.024258 2.631064 4.372653
v -1.024258 2.631064 6.013670
v -0.922607 2.269731 4.372653
v -0.922607 2.269731 6.013670
v -0.785808 1.953019 4.372653
v -0.785808 1.953019 6.013670
v -0.619117 1.693101 4.372653
v -0.619117 1.693101 6.013670
v -0.428942 1.499964 4.372653
v -0.428942 1.499964 6.013670
v -0.222589 1.381031 4.372652
v -0.516449 4.592012 17.623684
v -0.212960 1.693099 17.623684
v -0.022785 5.361779 17.623684
v -0.680697 3.023132 17.623684
v -0.618100 4.230679 17.623684
v -0.379650 1.953018 17.623684
v -0.516449 2.269729 17.623684
v 0.183568 1.381029 17.623684
v -0.379650 4.908724 17.623684
v -0.680696 3.838610 17.623684
v -0.701833 3.430871 17.623684
v -0.618100 2.631063 17.623684
v -0.022784 1.499962 17.623684
v -0.212960 5.168642 17.623684
v 0.183568 1.381031 4.372652
v -0.618100 2.631064 4.372653
v -0.516449 2.269731 4.372653
v -0.379650 4.908726 4.372653
v -0.428942 5.361779 17.623684
v -0.680697 3.023134 4.372653
v -0.212960 5.168644 4.372653
v -0.701833 3.430872 4.372653
v -0.022785 5.361781 4.372653
v -0.007990 5.520873 4.372653
v -0.022784 1.499964 4.372653
v -0.212960 1.693101 4.372653
v -0.680696 3.838611 4.372653
v -0.379650 1.953019 4.372653
v -0.618100 4.230680 4.372653
v -0.516449 4.592014 4.372653
v -1.419753 4.842077 6.013671
v -1.419753 4.842077 15.929597
v -0.428942 5.361780 6.013671
v -1.062887 1.433314 15.929596
v -0.856534 1.314381 15.929596
v -0.641935 1.319501 15.929596
v -0.641935 1.319503 6.013670
v -0.856534 1.314383 6.013670
v -1.062887 1.433316 6.013670
v -1.253063 1.626453 6.013670
v -1.419753 1.886371 6.013670
v -1.556552 4.525364 15.929597
v -1.556552 2.203083 6.013670
v -1.658203 4.164032 15.929597
v -1.556552 4.525366 6.013671
v -1.658203 4.164032 6.013670
v -1.720799 3.771963 6.013670
v -1.720799 3.771961 15.929597
v -1.741935 3.364224 6.013670
v -1.741935 3.364223 15.929597
v -1.720799 2.956486 6.013670
v -1.720799 2.956484 15.929597
v -1.658203 2.564416 6.013670
v -1.658203 2.564415 15.929596
v -1.556552 2.203081 15.929596
v -1.419753 1.886369 15.929596
v -1.253063 1.626451 15.929596
v -0.222590 5.480712 16.795494
v -0.222590 5.480712 15.967306
v -0.007990 5.520872 7.685411
vn -0.4994 0.8664 0.0000
vn -0.7125 0.7016 0.0000
vn -0.7126 0.7016 0.0000
vn -0.8418 0.5398 0.0000
vn -0.9180 0.3965 0.0000
vn -0.9626 0.2708 0.0000
vn -0.9875 0.1577 0.0000
vn -0.9987 0.0518 0.0000
vn -0.9987 -0.0518 0.0000
vn -0.9875 -0.1577 -0.0000
vn -0.9626 -0.2708 -0.0000
vn -0.9180 -0.3965 -0.0000
vn -0.8418 -0.5398 -0.0000
vn -0.7126 -0.7016 -0.0000
vn -0.7125 -0.7016 -0.0000
vn -0.4994 -0.8664 -0.0000
vn -0.1839 0.9829 -0.0000
vn 0.0239 -0.9997 -0.0000
vn -0.0000 0.0000 1.0000
vn 0.0267 0.9996 0.0000
vn 0.0000 0.0000 -1.0000
vn -0.4645 0.8856 0.0000
vn 0.1452 -0.9894 -0.0000
usemtl None.010
s 1
f 1//1 2//1 3//1
f 3//2 4//2 5//3
f 5//4 4//4 6//4
f 7//5 6//5 8//5
f 9//6 8//6 10//6
f 11//7 10//7 12//7
f 13//8 12//8 14//8
f 15//9 14//9 16//9
f 17//10 16//10 18//10
f 19//11 18//11 20//11
f 21//12 20//12 22//12
f 23//13 22//13 24//13
f 25//14 24//15 26//15
f 27//16 26//16 28//16
f 29//17 30//17 31//17
f 32//17 33//17 34//17
f 35//17 36//17 37//17
f 38//17 39//17 1//17
f 40//18 41//18 42//18
f 43//17 44//17 45//17
f 46//18 47//18 48//18
f 49//2 50//2 51//2
f 51//4 50//4 52//4
f 53//5 52//5 54//5
f 55//6 54//6 56//6
f 57//7 56//7 58//7
f 59//8 58//8 60//8
f 61//9 60//9 62//9
f 63//10 62//10 64//10
f 65//11 64//11 66//11
f 67//12 66//12 68//12
f 69//13 68//13 70//13
f 71//15 70//15 72//15
f 73//16 72//16 74//16
f 75//19 76//19 77//19
f 78//19 75//19 79//19
f 80//19 78//19 81//19
f 77//19 76//19 82//19
f 75//19 77//19 83//19
f 84//19 78//19 79//19
f 78//19 84//19 85//19
f 81//19 78//19 86//19
f 76//19 78//19 80//19
f 82//19 76//19 87//19
f 77//19 82//19 44//19
f 83//19 77//19 88//19
f 40//20 82//20 89//20
f 5//19 83//19 88//19
f 66//21 90//21 91//21
f 50//21 92//21 52//21
f 19//19 78//19 17//19
f 93//19 88//19 77//19
f 64//21 94//21 90//21
f 49//21 95//21 50//21
f 17//19 85//19 15//19
f 43//19 77//19 44//19
f 62//21 96//21 94//21
f 48//19 87//19 27//19
f 97//21 32//21 98//21
f 13//19 85//19 84//19
f 74//21 99//21 89//21
f 58//21 96//21 60//21
f 27//19 76//19 25//19
f 11//19 84//19 79//19
f 72//21 100//21 99//21
f 56//21 101//21 58//21
f 25//19 80//19 23//19
f 9//19 79//19 75//19
f 70//21 102//21 100//21
f 54//21 103//21 56//21
f 23//19 81//19 21//19
f 7//19 75//19 83//19
f 68//21 91//21 102//21
f 52//21 104//21 54//21
f 21//19 86//19 19//19
f 3//22 105//22 106//22
f 106//19 4//19 3//19
f 51//21 105//21 107//21
f 24//19 108//19 26//19
f 26//19 109//19 28//19
f 42//23 110//23 111//23
f 73//21 112//21 113//21
f 41//18 28//18 42//18
f 71//21 113//21 114//21
f 69//21 114//21 115//21
f 8//19 106//19 116//19
f 67//21 115//21 117//21
f 10//19 116//19 118//19
f 111//18 109//18 112//18
f 106//5 119//5 116//5
f 116//6 120//6 118//6
f 118//7 121//7 122//7
f 122//8 123//8 124//8
f 124//9 125//9 126//9
f 126//10 127//10 128//10
f 128//11 117//11 129//11
f 129//12 115//12 130//12
f 130//13 114//13 131//13
f 131//15 113//15 108//15
f 108//16 112//16 109//16
f 22//19 131//19 24//19
f 55//21 105//21 53//21
f 20//19 130//19 22//19
f 57//21 119//21 55//21
f 18//19 129//19 20//19
f 59//21 120//21 57//21
f 16//19 128//19 18//19
f 61//21 121//21 59//21
f 14//19 126//19 16//19
f 61//21 125//21 123//21
f 65//21 67//21 117//21
f 12//19 10//19 118//19
f 63//21 65//21 127//21
f 14//19 12//19 122//19
f 61//21 63//21 125//21
f 14//19 124//19 126//19
f 61//21 123//21 121//21
f 16//19 126//19 128//19
f 59//21 121//21 120//21
f 18//19 128//19 129//19
f 57//21 120//21 119//21
f 20//19 129//19 130//19
f 55//21 119//21 105//21
f 22//19 130//19 131//19
f 14//19 122//19 124//19
f 63//21 127//21 125//21
f 12//19 118//19 122//19
f 65//21 117//21 127//21
f 73//16 74//16 42//16
f 71//15 72//15 73//15
f 69//13 70//13 71//13
f 67//12 68//12 69//12
f 65//11 66//11 67//11
f 63//10 64//10 65//10
f 61//9 62//9 63//9
f 59//8 60//8 61//8
f 57//7 58//7 59//7
f 55//6 56//6 57//6
f 53//5 54//5 55//5
f 51//4 52//4 53//4
f 108//16 113//16 112//16
f 131//15 114//15 113//15
f 130//13 115//13 114//13
f 129//12 117//12 115//12
f 128//11 127//11 117//11
f 126//10 125//10 127//10
f 124//9 123//9 125//9
f 122//8 121//8 123//8
f 118//7 120//7 121//7
f 116//6 119//6 120//6
f 106//5 105//5 119//5
f 111//18 110//18 109//18
f 10//19 8//19 116//19
f 67//21 69//21 115//21
f 8//19 6//19 106//19
f 69//21 71//21 114//21
f 71//21 73//21 113//21
f 41//18 46//18 28//18
f 73//21 42//21 112//21
f 110//19 28//19 109//19
f 42//23 28//23 110//23
f 26//19 108//19 109//19
f 24//19 131//19 108//19
f 51//21 53//21 105//21
f 106//19 6//19 4//19
f 3//22 107//22 105//22
f 112//21 42//21 111//21
f 49//2 51//2 107//2
f 46//18 48//18 28//18
f 43//17 45//17 132//17
f 40//18 42//18 74//18
f 38//17 1//17 133//17
f 35//17 37//17 2//17
f 32//17 34//17 98//17
f 29//17 31//17 134//17
f 27//16 28//16 48//16
f 25//14 26//15 27//14
f 23//13 24//13 25//13
f 21//12 22//12 23//12
f 19//11 20//11 21//11
f 17//10 18//10 19//10
f 15//9 16//9 17//9
f 13//8 14//8 15//8
f 11//7 12//7 13//7
f 9//6 10//6 11//6
f 7//5 8//5 9//5
f 5//4 6//4 7//4
f 3//2 5//3 93//3
f 107//1 3//1 37//1
f 132//1 133//1 3//1
f 1//1 3//1 133//1
f 43//1 132//1 93//1
f 107//1 37//1 30//1
f 37//1 3//1 2//1
f 107//1 29//1 33//1
f 93//1 132//1 3//1
f 32//1 107//1 33//1
f 29//1 107//1 30//1
f 49//1 107//1 32//1
f 21//19 81//19 86//19
f 52//21 92//21 104//21
f 68//21 66//21 91//21
f 7//19 9//19 75//19
f 23//19 80//19 81//19
f 54//21 104//21 103//21
f 70//21 68//21 102//21
f 9//19 11//19 79//19
f 25//19 76//19 80//19
f 56//21 103//21 101//21
f 72//21 70//21 100//21
f 11//19 13//19 84//19
f 27//19 87//19 76//19
f 58//21 101//21 96//21
f 74//21 72//21 99//21
f 13//19 15//19 85//19
f 97//21 49//21 32//21
f 48//19 82//19 87//19
f 62//21 60//21 96//21
f 43//19 93//19 77//19
f 17//19 78//19 85//19
f 49//21 97//21 95//21
f 64//21 62//21 94//21
f 93//19 5//19 88//19
f 19//19 86//19 78//19
f 50//21 95//21 92//21
f 66//21 64//21 90//21
f 5//19 7//19 83//19
f 40//20 47//20 82//20
f 76//19 75//19 78//19
