# Blender v2.83.18 OBJ File: 'untitle3d.blend'
# www.blender.org
mtllib gun_cover1.mtl
o 실린더.003_실린더.007
v 0.206609 5.480712 3.541174
v 0.412962 5.361780 5.159843
v 0.206609 5.480713 1.884794
v 0.588579 5.143271 6.866853
v 0.603137 5.168643 5.159843
v 0.769827 4.908725 5.159843
v 0.739984 4.855391 6.880706
v 0.906626 4.592012 5.159843
v 0.897915 4.583530 6.860227
v 1.010410 4.230680 5.151093
v 0.971769 4.238319 6.871055
v 1.080073 3.838610 5.124241
v 1.047729 3.839099 6.865720
v 1.098529 3.430871 5.134328
v 1.091115 3.430871 6.854390
v 1.070887 3.023132 5.159718
v 1.070874 3.023132 6.853930
v 1.008277 2.631063 5.159842
v 1.008277 2.631063 6.853930
v 0.906626 2.269729 5.159842
v 0.906626 2.269729 6.853930
v 0.769827 1.953018 5.159842
v 0.769827 1.953018 6.853930
v 0.603019 1.693402 5.159838
v 0.603137 1.693099 6.853930
v 0.412961 1.499962 5.159842
v 0.412961 1.499962 6.853930
v 0.206609 1.381029 5.159842
v 0.206609 5.480712 -3.084342
v -0.007990 5.520872 -1.427963
v 0.206609 5.480713 -1.427963
v 0.206609 5.480713 -6.397100
v -0.007990 5.520872 -4.740722
v 0.206609 5.480714 -4.740722
v -0.007990 5.520872 1.884794
v 0.206609 5.480713 0.228415
v -0.007990 5.520872 0.228415
v -0.007990 5.520872 5.197553
v -0.007990 5.520872 3.541174
v -0.007991 1.386151 -6.397101
v 0.206609 1.381031 -4.756083
v -0.007991 1.386152 -4.756083
v 0.197783 5.465800 6.861665
v -0.007990 5.520871 6.025741
v -0.008057 5.520758 6.853990
v -0.007991 1.386150 5.159842
v 0.206609 1.381029 6.853930
v -0.007991 1.386150 6.853930
v 0.412962 5.361781 -6.397100
v 0.603137 5.168644 -4.756083
v 0.603137 5.168644 -6.397100
v 0.769827 4.908726 -6.397100
v 0.769827 4.908725 -4.756083
v 0.906626 4.592014 -6.397100
v 0.906626 4.592014 -4.756083
v 1.008277 4.230680 -6.397101
v 1.008277 4.230680 -4.756083
v 1.070873 3.838611 -6.397101
v 1.070873 3.838611 -4.756083
v 1.092010 3.430872 -6.397101
v 1.092010 3.430872 -4.756083
v 1.070874 3.023134 -6.397101
v 1.070874 3.023134 -4.756083
v 1.008277 2.631064 -6.397101
v 1.008277 2.631064 -4.756083
v 0.906626 2.269731 -6.397101
v 0.906626 2.269731 -4.756083
v 0.769827 1.953019 -6.397101
v 0.769827 1.953019 -4.756083
v 0.603137 1.693101 -6.397101
v 0.603137 1.693101 -4.756083
v 0.412961 1.499964 -6.397101
v 0.412961 1.499964 -4.756083
v 0.206609 1.381031 -6.397101
v 0.499487 4.590256 6.854812
v 0.005968 5.360366 6.854663
v 0.196980 1.693099 6.853930
v 0.664716 3.023132 6.853930
v 0.600438 4.231043 6.854716
v 0.363670 1.953018 6.853930
v 0.500469 2.269729 6.853930
v -0.199549 1.381029 6.853930
v 0.362284 4.906250 6.855174
v 0.663758 3.838610 6.854423
v 0.685852 3.430871 6.853930
v 0.602120 2.631063 6.853930
v 0.006804 1.499962 6.853930
v 0.191112 5.158728 6.859073
v -0.199549 1.381031 -6.397101
v 0.500469 2.269731 -6.397101
v 0.602120 2.631064 -6.397101
v 0.363670 4.908726 -6.397100
v 0.394733 5.330981 6.869905
v 0.664716 3.023134 -6.397101
v 0.196980 5.168644 -6.397100
v 0.685852 3.430872 -6.397101
v 0.006804 5.361781 -6.397100
v -0.007990 5.520873 -6.397100
v 0.006804 1.499964 -6.397101
v 0.196980 1.693101 -6.397101
v 0.664716 3.838611 -6.397101
v 0.363670 1.953019 -6.397101
v 0.602120 4.230680 -6.397101
v 0.500469 4.592014 -6.397100
v 1.400195 4.837705 5.162620
v 1.400189 4.837353 -4.759175
v 0.412962 5.361780 -4.756083
v 1.035735 1.462034 5.159425
v 0.817479 1.373697 5.158979
v 0.625955 1.319503 -4.756083
v 0.613041 1.352698 5.159360
v 1.042016 1.452867 -4.758914
v 0.840554 1.314383 -4.756083
v 1.224196 1.677966 -4.763541
v 1.397495 1.904483 -4.760089
v 1.522652 4.498604 5.160978
v 1.523056 2.231596 -4.768441
v 1.660890 4.161807 5.092643
v 1.519270 4.497276 -4.774468
v 1.640101 4.161234 -4.757915
v 1.736379 3.771961 5.209845
v 1.703176 3.772261 -4.757369
v 1.745923 3.364223 5.090926
v 1.687612 3.371174 -4.786101
v 1.703908 2.963035 5.149591
v 1.703176 2.956784 -4.757369
v 1.582284 2.675429 5.166838
v 1.640478 2.567256 -4.757314
v 1.526294 2.221217 5.163291
v 1.348012 1.933876 5.178310
v 1.222269 1.639071 5.164748
v 0.206609 5.480712 6.025741
v 0.206609 5.480712 5.197553
v -0.007990 5.520872 -3.084342
vn 0.4994 0.8664 0.0000
vn 0.7108 0.7032 0.0169
vn 0.6974 0.7164 0.0200
vn 0.7125 0.7015 0.0165
vn 0.8797 0.4747 0.0282
vn 0.8470 0.5313 0.0169
vn 0.8417 0.5398 0.0152
vn 0.8725 0.4886 0.0097
vn 0.9123 0.4088 0.0258
vn 0.9177 0.3964 0.0282
vn 0.9756 0.2188 0.0190
vn 0.9636 0.2672 0.0083
vn 0.9612 0.2759 0.0063
vn 0.9826 0.1848 0.0186
vn 0.9843 0.1755 0.0209
vn 0.9846 0.1735 0.0213
vn 0.9953 0.0966 0.0064
vn 0.9984 0.0544 0.0165
vn 0.9988 0.0457 0.0185
vn 0.9986 -0.0523 0.0007
vn 0.9979 -0.0648 0.0037
vn 0.9977 -0.0674 0.0043
vn 0.9875 -0.1577 0.0000
vn 0.9626 -0.2708 -0.0000
vn 0.9180 -0.3965 -0.0000
vn 0.8417 -0.5399 -0.0001
vn 0.8414 -0.5405 -0.0000
vn 0.8413 -0.5406 -0.0000
vn 0.7126 -0.7015 -0.0000
vn 0.7132 -0.7009 -0.0002
vn 0.7133 -0.7008 -0.0002
vn 0.4994 -0.8664 -0.0000
vn 0.1839 0.9829 0.0000
vn -0.0239 -0.9997 -0.0000
vn 0.2458 0.9693 0.0034
vn 0.1957 0.9805 0.0164
vn 0.2580 0.9662 0.0002
vn 0.7125 0.7016 0.0000
vn 0.8418 0.5398 0.0000
vn 0.9180 0.3965 0.0000
vn 0.9626 0.2708 0.0000
vn 0.9875 0.1577 0.0000
vn 0.9987 0.0518 0.0000
vn 0.9987 -0.0518 0.0000
vn 0.8418 -0.5398 -0.0000
vn 0.7125 -0.7016 -0.0000
vn -0.0184 -0.0183 0.9997
vn -0.0323 -0.0021 0.9995
vn 0.0001 -0.0001 1.0000
vn 0.0006 -0.0002 1.0000
vn -0.0189 0.0002 0.9998
vn 0.0000 0.0000 1.0000
vn -0.0000 -0.0001 1.0000
vn -0.0308 -0.0128 0.9994
vn -0.0165 -0.0047 0.9999
vn 0.0016 -0.0045 1.0000
vn -0.0365 0.0010 0.9993
vn -0.0888 -0.0694 0.9936
vn -0.0267 0.9996 0.0000
vn -0.0407 -0.0127 0.9991
vn 0.0000 0.0000 -1.0000
vn -0.0003 -0.0003 1.0000
vn -0.0292 -0.0245 0.9993
vn -0.0011 -0.0142 0.9999
vn -0.0383 0.0034 0.9993
vn -0.0217 -0.0169 0.9996
vn -0.0402 0.0023 0.9992
vn -0.0241 -0.0248 0.9994
vn -0.0474 -0.0390 0.9981
vn 0.4689 0.8833 -0.0000
vn 0.4691 0.8831 -0.0000
vn -0.0035 -0.0046 1.0000
vn -0.0059 -0.0058 1.0000
vn -0.0057 -0.0053 1.0000
vn -0.0063 -0.0059 -1.0000
vn -0.0066 -0.0065 -1.0000
vn -0.0168 0.0208 -0.9996
vn -0.0033 -0.0012 1.0000
vn 0.0011 -0.0022 1.0000
vn -0.0065 -0.0146 0.9999
vn 0.0014 -0.0018 1.0000
vn 0.0005 -0.0051 1.0000
vn -0.1432 -0.9897 0.0030
vn -0.1452 -0.9894 0.0031
vn -0.0716 -0.9974 0.0001
vn -0.0016 -0.0002 -1.0000
vn -0.0094 -0.0089 -0.9999
vn -0.0046 -0.0106 -0.9999
vn -0.0077 0.0031 -1.0000
vn -0.0082 0.0084 -0.9999
vn -0.0087 0.0074 -0.9999
vn -0.0125 -0.0008 -0.9999
vn -0.0047 -0.0110 0.9999
vn 0.0306 -0.0866 0.9958
vn -0.0144 0.0003 -0.9999
vn -0.0118 0.0071 -0.9999
vn 0.0437 -0.0634 0.9970
vn 0.0014 0.0428 0.9991
vn -0.0222 -0.9997 0.0059
vn -0.0239 -0.9997 0.0059
vn 0.1005 -0.9949 0.0035
vn 0.9406 0.3394 -0.0004
vn 0.9406 0.3397 -0.0004
vn 0.9437 0.3307 -0.0000
vn 0.9254 0.3790 -0.0019
vn 0.9250 0.3801 -0.0020
vn 0.9407 0.3393 -0.0004
vn 0.9821 0.1885 -0.0032
vn 0.9819 0.1892 -0.0033
vn 0.9870 0.1608 -0.0021
vn 0.9997 0.0231 -0.0058
vn 0.9997 0.0251 -0.0059
vn 0.9993 -0.0368 -0.0034
vn 0.9949 -0.1007 -0.0002
vn 0.9946 -0.1042 -0.0000
vn 0.9994 0.0336 -0.0057
vn 0.9234 -0.3836 0.0094
vn 0.9212 -0.3890 0.0096
vn 0.9865 -0.1636 0.0002
vn 0.9919 -0.1272 -0.0002
vn 0.9925 -0.1223 -0.0005
vn 0.9459 -0.3245 0.0089
vn 0.8520 -0.5235 0.0057
vn 0.8499 -0.5270 0.0058
vn 0.9321 -0.3621 -0.0005
vn 0.9180 -0.3965 -0.0012
vn 0.9198 -0.3923 -0.0014
vn 0.7973 -0.6036 0.0056
vn 0.6902 -0.7237 0.0010
vn 0.6884 -0.7253 0.0011
vn 0.7759 -0.6308 -0.0023
vn 0.3783 -0.9257 0.0063
vn 0.3752 -0.9269 0.0064
vn 0.5638 -0.8259 0.0012
vn -0.0206 0.0016 0.9998
vn -0.0209 -0.0212 0.9996
vn -0.0179 0.0027 -0.9998
vn -0.0052 -0.0030 -1.0000
vn -0.0153 0.0154 0.9998
vn -0.0186 0.0147 0.9997
vn -0.0159 -0.0134 -0.9998
vn -0.0186 -0.0131 -0.9997
vn -0.0097 0.0000 1.0000
vn -0.0062 0.0194 0.9998
vn -0.0024 -0.0006 -1.0000
vn -0.0048 -0.0206 -0.9998
vn 0.0096 0.0387 0.9992
vn 0.0012 0.0184 0.9998
vn -0.0193 0.0014 -0.9998
vn -0.0163 0.0246 -0.9996
vn -0.0172 -0.0046 0.9998
vn 0.0423 0.0835 0.9956
vn -0.0507 -0.0035 -0.9987
vn -0.0185 -0.0211 -0.9996
vn -0.0078 0.0078 -0.9999
vn -0.0426 0.0401 0.9983
vn -0.0020 0.0002 -1.0000
vn -0.0005 0.0148 -0.9999
vn -0.0558 0.0154 0.9983
vn 0.0602 -0.0640 0.9961
vn 0.5665 -0.8241 0.0011
vn 0.7773 -0.6291 -0.0023
vn 0.7942 -0.6077 0.0058
vn 0.9336 -0.3584 -0.0007
vn 0.9438 -0.3305 0.0091
vn 0.9873 -0.1589 0.0000
vn 0.9993 0.0371 -0.0059
vn 0.9993 -0.0385 -0.0033
vn 0.9871 0.1601 -0.0021
vn 0.9410 0.3383 -0.0004
vn 0.9438 0.3305 -0.0000
vn 0.1022 -0.9948 0.0035
vn -0.0047 -0.0027 1.0000
vn 0.0015 0.0039 1.0000
vn -0.0695 -0.9976 -0.0000
vn 0.1839 0.9828 0.0195
vn 0.8418 -0.5398 -0.0002
vn 0.9988 -0.0496 0.0000
vn 0.9944 0.1056 0.0043
vn 0.9823 0.1867 0.0182
vn 0.9775 0.2098 0.0210
vn 0.8649 0.5019 0.0069
vn 0.8841 0.4664 0.0298
vn 0.6957 0.7181 0.0203
vn 0.5642 0.8254 0.0207
vn 0.5641 0.8255 0.0207
vn 0.5636 0.8258 0.0209
vn 0.4993 0.8664 0.0000
usemtl None.001
s 1
f 1//1 2//1 3//1
f 2//2 4//3 5//4
f 4//5 6//6 5//7
f 7//8 8//9 6//10
f 9//11 10//12 8//13
f 11//14 12//15 10//16
f 13//17 14//18 12//19
f 15//20 16//21 14//22
f 17//23 18//23 16//23
f 19//24 20//24 18//24
f 21//25 22//25 20//25
f 23//26 24//27 22//28
f 25//29 26//30 24//31
f 27//32 28//32 26//32
f 29//33 30//33 31//33
f 32//33 33//33 34//33
f 35//33 36//33 37//33
f 38//33 1//33 39//33
f 40//34 41//34 42//34
f 43//35 44//36 45//37
f 46//34 47//34 48//34
f 49//38 50//38 51//38
f 50//39 52//39 51//39
f 53//40 54//40 52//40
f 55//41 56//41 54//41
f 57//42 58//42 56//42
f 59//43 60//43 58//43
f 61//44 62//44 60//44
f 63//23 64//23 62//23
f 65//24 66//24 64//24
f 67//25 68//25 66//25
f 69//45 70//45 68//45
f 71//46 72//46 70//46
f 73//32 74//32 72//32
f 75//47 76//48 77//49
f 78//50 79//51 75//47
f 80//52 81//52 78//50
f 76//48 82//53 77//49
f 75//47 83//54 76//48
f 84//55 79//51 78//50
f 78//50 85//56 84//55
f 81//52 86//52 78//50
f 77//49 80//52 78//50
f 82//53 87//52 77//49
f 76//48 45//57 82//53
f 83//54 88//58 76//48
f 40//59 89//59 82//59
f 4//60 88//58 83//54
f 66//61 90//61 91//61
f 51//61 52//61 92//61
f 19//52 17//62 78//50
f 93//63 76//48 88//58
f 64//61 91//61 94//61
f 49//61 51//61 95//61
f 17//62 15//64 85//56
f 43//65 45//57 76//48
f 62//61 94//61 96//61
f 47//52 27//52 87//52
f 97//61 98//61 32//61
f 13//66 84//55 85//56
f 74//61 89//61 99//61
f 58//61 60//61 96//61
f 27//52 25//52 77//49
f 11//67 79//51 84//55
f 72//61 99//61 100//61
f 56//61 58//61 101//61
f 25//52 23//52 80//52
f 9//68 75//47 79//51
f 70//61 100//61 102//61
f 54//61 56//61 103//61
f 23//52 21//52 81//52
f 7//69 83//54 75//47
f 68//61 102//61 90//61
f 52//61 54//61 104//61
f 21//52 19//52 86//52
f 2//70 105//70 106//71
f 105//72 2//73 5//74
f 50//75 107//76 106//77
f 24//78 26//79 108//80
f 26//79 28//81 109//82
f 41//83 110//84 111//85
f 73//86 112//87 113//88
f 42//34 41//34 28//34
f 71//89 114//90 112//87
f 69//91 115//92 114//90
f 8//93 116//94 105//72
f 67//95 117//96 115//92
f 10//97 118//98 116//94
f 110//99 113//100 109//101
f 105//102 116//103 119//104
f 116//105 118//106 120//107
f 118//108 121//109 122//110
f 121//111 123//112 124//113
f 123//114 125//115 126//116
f 125//117 127//118 128//119
f 127//120 129//121 117//122
f 129//123 130//124 115//125
f 130//126 131//127 114//128
f 131//129 108//130 112//131
f 108//132 109//133 113//134
f 22//135 24//78 131//136
f 55//137 53//138 106//77
f 20//139 22//135 130//140
f 57//141 55//137 119//142
f 18//143 20//139 129//144
f 59//145 57//141 120//146
f 16//147 18//143 127//148
f 61//149 59//145 122//150
f 14//151 16//147 125//152
f 61//149 124//153 126//154
f 65//155 117//96 67//95
f 12//156 118//98 10//97
f 63//157 128//158 65//155
f 14//151 121//159 12//156
f 61//149 126//154 63//157
f 14//151 125//152 123//160
f 61//149 122//150 124//153
f 16//147 127//148 125//152
f 59//145 120//146 122//150
f 18//143 129//144 127//148
f 57//141 119//142 120//146
f 20//139 130//140 129//144
f 55//137 106//77 119//142
f 22//135 131//136 130//140
f 14//151 123//160 121//159
f 63//157 126//154 128//158
f 12//156 121//159 118//98
f 65//155 128//158 117//96
f 73//32 41//32 74//32
f 71//46 73//46 72//46
f 69//45 71//45 70//45
f 67//25 69//25 68//25
f 65//24 67//24 66//24
f 63//23 65//23 64//23
f 61//44 63//44 62//44
f 59//43 61//43 60//43
f 57//42 59//42 58//42
f 55//41 57//41 56//41
f 53//40 55//40 54//40
f 50//39 53//39 52//39
f 108//132 113//134 112//161
f 131//129 112//131 114//162
f 130//126 114//128 115//163
f 129//123 115//125 117//164
f 127//120 117//122 128//165
f 125//117 128//119 126//166
f 123//114 126//116 124//167
f 121//111 124//113 122//168
f 118//108 122//110 120//169
f 116//105 120//107 119//170
f 105//102 119//104 106//171
f 110//99 109//101 111//172
f 10//97 116//94 8//93
f 67//95 115//92 69//91
f 8//93 105//72 6//173
f 69//91 114//90 71//89
f 71//89 112//87 73//86
f 42//34 28//34 46//34
f 73//86 113//88 41//61
f 111//174 109//82 28//81
f 41//83 111//85 28//175
f 26//79 109//82 108//80
f 24//78 108//80 131//136
f 50//75 106//77 53//138
f 105//72 5//74 6//173
f 2//70 106//71 107//71
f 113//88 110//61 41//61
f 49//38 107//38 50//38
f 46//34 28//34 47//34
f 43//35 132//176 44//36
f 40//34 74//34 41//34
f 38//33 133//33 1//33
f 35//33 3//33 36//33
f 32//33 98//33 33//33
f 29//33 134//33 30//33
f 27//32 47//32 28//32
f 25//29 27//46 26//30
f 23//26 25//177 24//27
f 21//25 23//25 22//25
f 19//24 21//24 20//24
f 17//23 19//23 18//23
f 15//20 17//178 16//21
f 13//17 15//179 14//18
f 11//14 13//180 12//15
f 9//11 11//181 10//12
f 7//8 9//182 8//9
f 4//5 7//183 6//6
f 2//2 93//184 4//3
f 107//1 36//1 2//1
f 132//1 2//1 133//1
f 1//1 133//1 2//1
f 43//185 93//186 132//187
f 107//1 31//1 36//1
f 36//1 3//1 2//1
f 107//1 34//1 29//1
f 93//186 2//187 132//187
f 32//1 34//1 107//1
f 29//188 31//1 107//1
f 49//1 32//1 107//1
f 21//52 86//52 81//52
f 52//61 104//61 92//61
f 68//61 90//61 66//61
f 7//69 75//47 9//68
f 23//52 81//52 80//52
f 54//61 103//61 104//61
f 70//61 102//61 68//61
f 9//68 79//51 11//67
f 25//52 80//52 77//49
f 56//61 101//61 103//61
f 72//61 100//61 70//61
f 11//67 84//55 13//66
f 27//52 77//49 87//52
f 58//61 96//61 101//61
f 74//61 99//61 72//61
f 13//66 85//56 15//64
f 97//61 32//61 49//61
f 47//52 87//52 82//53
f 62//61 96//61 60//61
f 43//65 76//48 93//63
f 17//62 85//56 78//50
f 49//61 95//61 97//61
f 64//61 94//61 62//61
f 93//63 88//58 4//60
f 19//52 78//50 86//52
f 51//61 92//61 95//61
f 66//61 91//61 64//61
f 4//60 83//54 7//69
f 40//59 82//59 48//59
f 77//49 78//50 75//47
