# Blender v2.83.18 OBJ File: 'untitle3d.blend'
# www.blender.org
mtllib inner_bullet_outter.mtl
o ì‹¤ë¦°ë”.004
v 0.042677 3.141965 1.122597
v 0.042677 3.141964 3.206733
v 0.000000 3.137762 3.206733
v -0.029478 3.208323 3.278847
v -0.057824 3.216922 3.278847
v -0.055984 3.221362 3.278848
v -0.083947 3.230885 3.278847
v -0.081277 3.234880 3.278848
v -0.106845 3.249676 3.278847
v -0.103446 3.253074 3.278848
v -0.125636 3.272573 3.278847
v -0.121639 3.275244 3.278848
v -0.139599 3.298697 3.278847
v -0.135158 3.300535 3.278848
v -0.148198 3.327043 3.278847
v -0.143483 3.327980 3.278848
v -0.151101 3.356520 3.278847
v -0.146294 3.356520 3.278848
v -0.148198 3.385998 3.278847
v -0.143483 3.385062 3.278848
v -0.139599 3.414345 3.278847
v -0.135158 3.412504 3.278848
v -0.125636 3.440468 3.278847
v -0.121639 3.437798 3.278848
v -0.106845 3.463366 3.278847
v -0.103446 3.459966 3.278848
v -0.083947 3.482157 3.278847
v -0.081277 3.478159 3.278848
v -0.057824 3.496119 3.278847
v -0.055984 3.491678 3.278848
v -0.029478 3.504719 3.278847
v -0.028541 3.500004 3.278848
v 0.000000 3.507622 3.278847
v 0.000000 3.502815 3.278848
v 0.029478 3.504719 3.278847
v 0.028541 3.500004 3.278848
v 0.057824 3.496119 3.278847
v 0.055985 3.491678 3.278848
v 0.083947 3.482157 3.278847
v 0.081277 3.478159 3.278848
v 0.106845 3.463366 3.278847
v 0.103446 3.459966 3.278848
v 0.125636 3.440468 3.278847
v 0.121639 3.437798 3.278848
v 0.139599 3.414345 3.278847
v 0.135158 3.412504 3.278848
v 0.148198 3.385998 3.278847
v 0.143483 3.385062 3.278848
v 0.151101 3.356520 3.278847
v 0.146294 3.356520 3.278848
v 0.148198 3.327042 3.278847
v 0.143483 3.327980 3.278848
v 0.139599 3.298697 3.278847
v 0.135158 3.300535 3.278848
v 0.125636 3.272573 3.278847
v 0.121639 3.275244 3.278848
v 0.106845 3.249676 3.278847
v 0.103446 3.253074 3.278848
v 0.083947 3.230885 3.278847
v 0.081277 3.234880 3.278848
v 0.057824 3.216921 3.278847
v 0.055984 3.221362 3.278848
v 0.029478 3.208323 3.278847
v 0.028540 3.213037 3.278848
v 0.000000 3.205420 3.278847
v 0.000000 3.210227 3.278848
v -0.083947 3.230885 1.122597
v -0.057824 3.216922 1.122597
v -0.042678 3.141964 3.206733
v -0.042678 3.141965 1.122597
v -0.029478 3.208323 1.122597
v 0.000000 3.205420 1.122597
v 0.000000 3.137762 1.122597
v -0.083715 3.154414 1.122597
v -0.083715 3.154413 3.206733
v -0.121536 3.174628 3.206733
v -0.121536 3.174629 1.122597
v -0.154686 3.201834 3.206733
v -0.154686 3.201835 1.122597
v -0.181891 3.234985 3.206733
v -0.106845 3.249676 1.122597
v -0.181891 3.234985 1.122597
v -0.202107 3.272804 3.206733
v -0.125636 3.272573 1.122597
v -0.202107 3.272805 1.122597
v -0.214556 3.313843 3.206733
v -0.214556 3.313843 1.122597
v -0.218759 3.356520 3.206733
v -0.139599 3.298697 1.122597
v -0.218759 3.356521 1.122597
v -0.214556 3.399199 3.206733
v -0.151101 3.356521 1.122597
v -0.148198 3.327043 1.122597
v -0.214556 3.399199 1.122597
v -0.202107 3.440236 3.206733
v -0.148198 3.385999 1.122597
v -0.202107 3.440236 1.122597
v -0.181891 3.478056 3.206733
v -0.181891 3.478057 1.122597
v -0.154686 3.511207 3.206733
v -0.125636 3.440468 1.122597
v -0.139599 3.414345 1.122597
v -0.154686 3.511207 1.122597
v -0.121536 3.538412 3.206733
v -0.121536 3.538412 1.122597
v -0.083715 3.558628 3.206733
v -0.083947 3.482157 1.122597
v -0.106845 3.463366 1.122597
v -0.083715 3.558628 1.122597
v -0.042678 3.571075 3.206733
v -0.042678 3.571076 1.122597
v 0.000000 3.575279 3.206733
v -0.057824 3.496120 1.122597
v 0.042678 3.571075 3.206733
v 0.042678 3.571076 1.122597
v 0.000000 3.507622 1.122597
v -0.029478 3.504719 1.122597
v 0.083716 3.558628 3.206733
v 0.000000 3.575280 1.122597
v 0.121536 3.538412 3.206733
v 0.121536 3.538412 1.122597
v 0.057824 3.496120 1.122597
v 0.029478 3.504719 1.122597
v 0.154686 3.511207 3.206733
v 0.154686 3.511207 1.122597
v 0.083947 3.482157 1.122597
v 0.083716 3.558628 1.122597
v 0.181891 3.478056 3.206733
v 0.106845 3.463366 1.122597
v 0.181891 3.478057 1.122597
v 0.202107 3.440236 3.206733
v 0.125636 3.440468 1.122597
v 0.202107 3.440236 1.122597
v 0.214556 3.399199 3.206733
v 0.214556 3.399199 1.122597
v 0.218759 3.356520 3.206733
v 0.148198 3.385999 1.122597
v 0.139599 3.414345 1.122597
v 0.218759 3.356521 1.122597
v 0.214555 3.313843 3.206733
v 0.151101 3.356521 1.122597
v 0.214555 3.313843 1.122597
v 0.202107 3.272804 3.206733
v 0.202107 3.272805 1.122597
v 0.181891 3.234985 3.206733
v 0.139599 3.298697 1.122597
v 0.148198 3.327042 1.122597
v 0.181891 3.234985 1.122597
v 0.154686 3.201834 3.206733
v 0.125636 3.272573 1.122597
v 0.154686 3.201835 1.122597
v 0.121536 3.174628 3.206733
v 0.121536 3.174629 1.122597
v 0.083715 3.154413 3.206733
v 0.083947 3.230885 1.122597
v 0.106845 3.249676 1.122597
v 0.083715 3.154414 1.122597
v 0.029478 3.208323 1.122597
v 0.057824 3.216921 1.122597
v 0.083947 3.482157 1.178500
v -0.029478 3.208323 1.178499
v -0.125636 3.272573 1.178499
v 0.057824 3.216921 1.178499
v 0.148198 3.327042 1.178500
v 0.106845 3.249676 1.178499
v 0.029478 3.208323 1.178499
v 0.000000 3.507622 1.178500
v 0.151101 3.356521 1.178500
v -0.148198 3.327043 1.178500
v -0.139599 3.298697 1.178500
v -0.029478 3.504719 1.178500
v -0.083947 3.230885 1.178499
v -0.125636 3.440468 1.178500
v 0.125636 3.440468 1.178500
v 0.083947 3.230885 1.178499
v 0.125636 3.272573 1.178499
v -0.151101 3.356521 1.178500
v -0.057824 3.496120 1.178500
v 0.148198 3.385999 1.178500
v -0.148198 3.385999 1.178500
v -0.106845 3.463366 1.178500
v 0.000000 3.205420 1.178499
v -0.106845 3.249676 1.178499
v 0.139599 3.298697 1.178500
v 0.057824 3.496120 1.178500
v -0.057824 3.216922 1.178499
v 0.139599 3.414345 1.178500
v -0.083947 3.482157 1.178500
v 0.106845 3.463366 1.178500
v 0.029478 3.504719 1.178500
v -0.139599 3.414345 1.178500
v -0.028541 3.213037 3.278848
vn 0.0980 -0.9952 -0.0000
vn 0.0001 0.0004 -1.0000
vn 0.0002 0.0003 -1.0000
vn 0.0003 0.0003 -1.0000
vn 0.0003 0.0002 -1.0000
vn 0.0004 0.0001 -1.0000
vn 0.0003 -0.0000 -1.0000
vn 0.0004 -0.0001 -1.0000
vn 0.0004 -0.0002 -1.0000
vn 0.0000 -0.0001 -1.0000
vn 0.0003 -0.0002 -1.0000
vn 0.0003 -0.0003 -1.0000
vn 0.0002 -0.0003 -1.0000
vn 0.0002 -0.0004 -1.0000
vn 0.0001 -0.0004 -1.0000
vn 0.0000 -0.0004 -1.0000
vn -0.0001 -0.0004 -1.0000
vn -0.0002 -0.0004 -1.0000
vn -0.0002 -0.0003 -1.0000
vn -0.0003 -0.0003 -1.0000
vn -0.0000 -0.0000 -1.0000
vn -0.0003 -0.0002 -1.0000
vn -0.0004 -0.0002 -1.0000
vn -0.0004 -0.0001 -1.0000
vn -0.0003 0.0000 -1.0000
vn -0.0004 0.0001 -1.0000
vn -0.0004 0.0002 -1.0000
vn -0.0003 0.0002 -1.0000
vn -0.0003 0.0003 -1.0000
vn -0.0002 0.0003 -1.0000
vn -0.0002 0.0004 -1.0000
vn -0.0001 0.0004 -1.0000
vn 0.0000 0.0004 -1.0000
vn -0.4714 -0.8819 0.0000
vn -0.0980 -0.9952 0.0000
vn -0.6344 -0.7730 -0.0000
vn -0.7730 -0.6344 -0.0000
vn -0.8819 -0.4714 0.0000
vn -0.9569 -0.2903 -0.0000
vn -0.9952 -0.0980 -0.0000
vn -0.9952 0.0980 0.0000
vn -0.9569 0.2903 0.0000
vn -0.8819 0.4714 0.0000
vn -0.7730 0.6344 0.0000
vn -0.6344 0.7730 0.0000
vn -0.4714 0.8819 0.0000
vn -0.2903 0.9569 0.0000
vn -0.0980 0.9952 0.0000
vn 0.0980 0.9952 0.0000
vn 0.2903 0.9569 0.0000
vn 0.4714 0.8819 0.0000
vn 0.6344 0.7730 0.0000
vn 0.7730 0.6344 0.0000
vn 0.8819 0.4714 0.0000
vn 0.9569 0.2903 0.0000
vn 0.9952 0.0980 0.0000
vn 0.9952 -0.0980 -0.0000
vn 0.9569 -0.2903 -0.0000
vn 0.8819 -0.4714 0.0000
vn 0.7730 -0.6344 -0.0000
vn 0.6344 -0.7730 -0.0000
vn 0.4714 -0.8819 -0.0000
vn 0.2903 -0.9569 0.0000
vn -0.2903 -0.9569 0.0000
vn -0.0693 -0.7037 0.7071
vn -0.2053 -0.6767 0.7071
vn -0.3333 -0.6236 0.7071
vn -0.4486 -0.5466 0.7071
vn -0.5466 -0.4486 0.7071
vn -0.6236 -0.3333 0.7071
vn -0.6767 -0.2053 0.7071
vn -0.7037 -0.0693 0.7071
vn -0.7037 0.0693 0.7071
vn -0.6767 0.2053 0.7071
vn -0.6236 0.3333 0.7071
vn -0.5466 0.4486 0.7071
vn -0.4486 0.5466 0.7071
vn -0.3333 0.6236 0.7071
vn -0.2053 0.6767 0.7071
vn -0.0693 0.7037 0.7071
vn 0.0693 0.7037 0.7071
vn 0.2053 0.6767 0.7071
vn 0.3333 0.6236 0.7071
vn 0.4486 0.5466 0.7071
vn 0.5466 0.4486 0.7071
vn 0.6236 0.3333 0.7071
vn 0.6767 0.2053 0.7071
vn 0.6766 0.2053 0.7071
vn 0.7037 0.0693 0.7071
vn 0.7037 -0.0693 0.7071
vn 0.6767 -0.2053 0.7071
vn 0.6236 -0.3333 0.7071
vn 0.5466 -0.4486 0.7071
vn 0.4486 -0.5466 0.7071
vn 0.3333 -0.6236 0.7071
vn 0.2053 -0.6767 0.7071
vn 0.0693 -0.7037 0.7071
vn -0.0001 -0.0000 -1.0000
usemtl None.014
s 1
f 1//1 2//1 3//1
f 4//2 5//2 6//2
f 5//2 7//3 8//3
f 7//3 9//4 10//4
f 9//4 11//5 12//5
f 11//5 13//5 14//5
f 15//6 16//6 14//5
f 15//6 17//7 18//7
f 17//7 19//8 20//8
f 19//8 21//9 22//9
f 21//9 23//10 24//11
f 23//10 25//12 26//12
f 25//12 27//13 28//13
f 27//13 29//14 30//14
f 29//14 31//15 32//15
f 31//15 33//16 34//16
f 33//16 35//17 36//17
f 37//18 38//18 36//17
f 37//18 39//19 40//19
f 41//20 42//20 40//19
f 41//20 43//21 44//22
f 45//23 46//23 44//22
f 47//24 48//24 46//23
f 47//24 49//25 50//25
f 49//25 51//26 52//26
f 51//26 53//27 54//27
f 55//28 56//28 54//27
f 57//29 58//29 56//28
f 57//29 59//30 60//30
f 61//31 62//31 60//30
f 61//31 63//32 64//32
f 65//33 66//33 64//32
f 7//34 67//34 68//34
f 3//35 69//35 70//35
f 71//21 72//21 73//21
f 74//34 75//34 76//34
f 68//21 71//21 70//21
f 77//36 76//36 78//36
f 67//21 68//21 74//21
f 79//37 78//37 80//37
f 81//21 67//21 77//21
f 82//38 80//38 83//38
f 84//21 81//21 79//21
f 85//39 83//39 86//39
f 84//21 82//21 85//21
f 87//40 86//40 88//40
f 89//21 85//21 87//21
f 90//41 88//41 91//41
f 92//21 93//21 87//21
f 94//42 91//42 95//42
f 96//21 92//21 90//21
f 97//43 95//43 98//43
f 96//21 94//21 97//21
f 99//44 98//44 100//44
f 101//21 102//21 97//21
f 103//45 100//45 104//45
f 101//21 99//21 103//21
f 105//46 104//46 106//46
f 107//21 108//21 103//21
f 109//47 106//47 110//47
f 107//21 105//21 109//21
f 111//48 110//48 112//48
f 113//21 109//21 111//21
f 112//49 114//49 115//49
f 116//21 117//21 111//21
f 115//50 114//50 118//50
f 116//21 119//21 115//21
f 118//51 120//51 121//51
f 122//21 123//21 115//21
f 120//52 124//52 125//52
f 126//21 122//21 127//21
f 125//53 124//53 128//53
f 129//21 126//21 121//21
f 130//54 128//54 131//54
f 132//21 129//21 125//21
f 133//55 131//55 134//55
f 132//21 130//21 133//21
f 135//56 134//56 136//56
f 137//21 138//21 133//21
f 139//57 136//57 140//57
f 141//21 137//21 135//21
f 142//58 140//58 143//58
f 141//21 139//21 142//21
f 144//59 143//59 145//59
f 146//21 147//21 142//21
f 148//60 145//60 149//60
f 150//21 146//21 144//21
f 151//61 149//61 152//61
f 150//21 148//21 151//21
f 153//62 152//62 154//62
f 155//21 156//21 151//21
f 157//63 154//63 2//63
f 155//21 153//21 157//21
f 158//21 159//21 157//21
f 70//64 69//64 75//64
f 72//21 158//21 1//21
f 55//60 57//60 156//60
f 122//34 126//34 160//34
f 19//41 96//41 92//41
f 72//49 71//49 161//49
f 41//53 43//53 132//53
f 81//53 84//53 162//53
f 11//37 84//37 81//37
f 155//46 159//46 163//46
f 5//64 68//64 71//64
f 141//41 147//41 164//41
f 29//46 113//46 107//46
f 150//44 156//44 165//44
f 59//62 61//62 159//62
f 159//47 158//47 166//47
f 13//38 89//38 84//38
f 117//1 116//1 167//1
f 35//50 37//50 122//50
f 137//40 141//40 168//40
f 17//40 92//40 93//40
f 89//55 93//55 169//55
f 84//54 89//54 170//54
f 171//21 172//21 173//21
f 15//39 93//39 89//39
f 129//37 132//37 174//37
f 65//1 72//1 158//1
f 156//45 155//45 175//45
f 35//49 123//49 116//49
f 146//43 150//43 176//43
f 25//44 108//44 101//44
f 93//56 92//56 177//56
f 21//42 102//42 96//42
f 107//62 113//62 178//62
f 23//43 101//43 102//43
f 138//39 137//39 179//39
f 49//57 51//57 147//57
f 92//57 96//57 180//57
f 59//61 155//61 156//61
f 101//60 108//60 181//60
f 53//59 55//59 150//59
f 68//51 67//51 172//51
f 39//52 41//52 129//52
f 158//48 72//48 182//48
f 51//58 53//58 146//58
f 113//63 117//63 171//63
f 45//55 47//55 137//55
f 67//52 81//52 183//52
f 37//51 39//51 126//51
f 147//42 146//42 184//42
f 43//54 45//54 138//54
f 102//59 101//59 173//59
f 61//63 63//63 158//63
f 123//64 122//64 185//64
f 71//35 72//35 65//35
f 71//50 68//50 186//50
f 9//36 81//36 67//36
f 132//38 138//38 187//38
f 49//56 141//56 137//56
f 108//61 107//61 188//61
f 117//48 31//48 33//48
f 126//36 129//36 189//36
f 31//47 117//47 113//47
f 116//35 123//35 190//35
f 27//45 107//45 108//45
f 96//58 102//58 191//58
f 69//65 3//65 66//65
f 75//66 69//66 192//66
f 76//67 75//67 6//67
f 76//68 8//68 10//68
f 78//69 10//69 12//69
f 83//70 80//70 12//70
f 86//71 83//71 14//71
f 88//72 86//72 16//72
f 91//73 88//73 18//73
f 95//74 91//74 20//74
f 98//75 95//75 22//75
f 100//76 98//76 24//76
f 104//77 100//77 26//77
f 104//78 28//78 30//78
f 106//79 30//79 32//79
f 112//80 110//80 32//80
f 114//81 112//81 34//81
f 118//82 114//82 36//82
f 118//83 38//83 40//83
f 120//84 40//84 42//84
f 128//85 124//85 42//85
f 128//86 44//86 46//86
f 134//87 131//88 46//87
f 136//89 134//89 48//89
f 140//90 136//90 50//90
f 143//91 140//91 52//91
f 145//92 143//92 54//92
f 149//93 145//93 56//93
f 152//94 149//94 58//94
f 154//95 152//95 60//95
f 2//96 154//96 62//96
f 3//97 2//97 64//97
f 65//33 4//2 192//2
f 1//1 3//1 73//1
f 4//2 6//2 192//2
f 5//2 8//3 6//2
f 7//3 10//4 8//3
f 9//4 12//5 10//4
f 11//5 14//5 12//5
f 15//6 14//5 13//5
f 15//6 18//7 16//6
f 17//7 20//8 18//7
f 19//8 22//9 20//8
f 21//9 24//11 22//9
f 23//10 26//12 24//11
f 25//12 28//13 26//12
f 27//13 30//14 28//13
f 29//14 32//15 30//14
f 31//15 34//16 32//15
f 33//16 36//17 34//16
f 37//18 36//17 35//17
f 37//18 40//19 38//18
f 41//20 40//19 39//19
f 41//20 44//22 42//20
f 45//23 44//22 43//21
f 47//24 46//23 45//23
f 47//24 50//25 48//24
f 49//25 52//26 50//25
f 51//26 54//27 52//26
f 55//28 54//27 53//27
f 57//29 56//28 55//28
f 57//29 60//30 58//29
f 61//31 60//30 59//30
f 61//31 64//32 62//31
f 65//33 64//32 63//32
f 7//34 68//34 5//34
f 3//35 70//35 73//35
f 71//21 73//21 70//21
f 74//34 76//34 77//34
f 68//21 70//21 74//21
f 77//36 78//36 79//36
f 67//21 74//21 77//21
f 79//37 80//37 82//37
f 81//21 77//21 79//21
f 82//38 83//38 85//38
f 84//21 79//21 82//21
f 85//39 86//39 87//39
f 84//21 85//21 89//21
f 87//40 88//40 90//40
f 89//21 87//21 93//21
f 90//41 91//41 94//41
f 92//21 87//21 90//21
f 94//42 95//42 97//42
f 96//21 90//21 94//21
f 97//43 98//43 99//43
f 96//21 97//21 102//21
f 99//44 100//44 103//44
f 101//21 97//21 99//21
f 103//45 104//45 105//45
f 101//21 103//21 108//21
f 105//46 106//46 109//46
f 107//21 103//21 105//21
f 109//47 110//47 111//47
f 107//21 109//21 113//21
f 111//48 112//48 119//48
f 113//21 111//21 117//21
f 112//49 115//49 119//49
f 116//21 111//21 119//21
f 115//50 118//50 127//50
f 116//21 115//21 123//21
f 118//51 121//51 127//51
f 122//21 115//21 127//21
f 120//52 125//52 121//52
f 126//21 127//21 121//21
f 125//53 128//53 130//53
f 129//21 121//21 125//21
f 130//54 131//54 133//54
f 132//21 125//21 130//21
f 133//55 134//55 135//55
f 132//21 133//21 138//21
f 135//56 136//56 139//56
f 137//21 133//21 135//21
f 139//57 140//57 142//57
f 141//21 135//21 139//21
f 142//58 143//58 144//58
f 141//21 142//21 147//21
f 144//59 145//59 148//59
f 146//21 142//21 144//21
f 148//60 149//60 151//60
f 150//21 144//21 148//21
f 151//61 152//61 153//61
f 150//21 151//21 156//21
f 153//62 154//62 157//62
f 155//21 151//21 153//21
f 157//63 2//63 1//63
f 155//21 157//21 159//21
f 158//21 157//21 1//21
f 70//64 75//64 74//64
f 72//21 1//21 73//21
f 55//60 156//60 150//60
f 122//34 160//34 185//34
f 19//41 92//41 17//41
f 72//49 161//49 182//49
f 41//53 132//53 129//53
f 81//53 162//53 183//53
f 11//37 81//37 9//37
f 155//46 163//46 175//46
f 5//64 71//64 4//64
f 141//41 164//41 168//41
f 29//46 107//46 27//46
f 150//44 165//44 176//44
f 59//62 159//62 155//62
f 159//47 166//47 163//47
f 13//38 84//38 11//38
f 117//1 167//1 171//1
f 35//50 122//50 123//50
f 137//40 168//40 179//40
f 17//40 93//40 15//40
f 89//55 169//55 170//55
f 84//54 170//54 162//54
f 172//21 161//21 186//21
f 161//21 166//21 182//21
f 166//21 176//21 163//21
f 175//21 176//21 165//21
f 176//21 164//21 184//21
f 164//21 179//21 168//21
f 179//21 160//21 187//21
f 174//21 160//21 189//21
f 160//21 190//21 185//21
f 190//21 171//21 167//21
f 171//21 188//21 178//21
f 188//21 171//21 181//21
f 173//21 169//21 191//21
f 180//21 169//21 177//21
f 169//21 162//21 170//98
f 162//21 169//21 183//21
f 172//21 166//21 161//21
f 163//21 176//21 175//21
f 176//21 160//21 164//21
f 187//21 160//21 174//21
f 160//21 171//21 190//21
f 171//21 173//21 181//21
f 191//21 169//21 180//21
f 169//21 172//21 183//21
f 172//21 160//21 166//21
f 164//21 160//21 179//21
f 160//21 172//21 171//21
f 173//21 172//21 169//21
f 166//21 160//21 176//21
f 15//39 89//39 13//39
f 129//37 174//37 189//37
f 65//1 158//1 63//1
f 156//45 175//45 165//45
f 35//49 116//49 33//49
f 146//43 176//43 184//43
f 25//44 101//44 23//44
f 93//56 177//56 169//56
f 21//42 96//42 19//42
f 107//62 178//62 188//62
f 23//43 102//43 21//43
f 138//39 179//39 187//39
f 49//57 147//57 141//57
f 92//57 180//57 177//57
f 59//61 156//61 57//61
f 101//60 181//60 173//60
f 53//59 150//59 146//59
f 68//51 172//51 186//51
f 39//52 129//52 126//52
f 158//48 182//48 166//48
f 51//58 146//58 147//58
f 113//63 171//63 178//63
f 45//55 137//55 138//55
f 67//52 183//52 172//52
f 37//51 126//51 122//51
f 147//42 184//42 164//42
f 43//54 138//54 132//54
f 102//59 173//59 191//59
f 61//63 158//63 159//63
f 123//64 185//64 190//64
f 71//35 65//35 4//35
f 71//50 186//50 161//50
f 9//36 67//36 7//36
f 132//38 187//38 174//38
f 49//56 137//56 47//56
f 108//61 188//61 181//61
f 117//48 33//48 116//48
f 126//36 189//36 160//36
f 31//47 113//47 29//47
f 116//35 190//35 167//35
f 27//45 108//45 25//45
f 96//58 191//58 180//58
f 69//65 66//65 192//65
f 75//66 192//66 6//66
f 76//67 6//67 8//67
f 76//68 10//68 78//68
f 78//69 12//69 80//69
f 83//70 12//70 14//70
f 86//71 14//71 16//71
f 88//72 16//72 18//72
f 91//73 18//73 20//73
f 95//74 20//74 22//74
f 98//75 22//75 24//75
f 100//76 24//76 26//76
f 104//77 26//77 28//77
f 104//78 30//78 106//78
f 106//79 32//79 110//79
f 112//80 32//80 34//80
f 114//81 34//81 36//81
f 118//82 36//82 38//82
f 118//83 40//83 120//83
f 120//84 42//84 124//84
f 128//85 42//85 44//85
f 128//86 46//86 131//86
f 134//87 46//87 48//87
f 136//89 48//89 50//89
f 140//90 50//90 52//90
f 143//91 52//91 54//91
f 145//92 54//92 56//92
f 149//93 56//93 58//93
f 152//94 58//94 60//94
f 154//95 60//95 62//95
f 2//96 62//96 64//96
f 3//97 64//97 66//97
f 65//33 192//2 66//33
