# Blender v2.83.18 OBJ File: 'untitle3d.blend'
# www.blender.org
mtllib inner_bottom_handle.mtl
o íë¸Œ
v -0.600858 3.612520 3.630454
v -0.427092 3.612520 3.630454
v -0.427092 3.686657 3.630454
v -0.327774 3.612520 3.259057
v -0.427092 3.612520 3.259057
v -0.427092 3.686657 3.259057
v -0.600858 3.686657 3.259057
v -1.048096 3.566607 3.352036
v -1.205923 3.564436 3.349864
v -1.205923 3.585129 3.332882
v -0.600858 3.686657 3.630454
v -0.327774 3.612520 3.630454
v -0.970080 3.690558 3.615515
v -0.962712 3.603292 3.621156
v -0.327774 3.686657 3.630454
v -0.327774 3.776381 3.259057
v -0.327774 3.686657 3.259057
v -0.427092 3.776381 3.259057
v -0.427092 3.776381 3.630454
v -0.327774 3.776381 3.630454
v -0.957194 3.919286 3.339429
v -0.957194 3.402694 3.339428
v -0.957194 3.402694 3.553407
v -0.957400 3.601949 3.263561
v -0.600858 3.612520 3.259057
v -0.957194 3.816314 3.213959
v -1.516348 3.816314 3.213959
v -1.516348 3.767980 3.188124
v -0.957194 3.767980 3.188124
v -1.516348 3.715533 3.172214
v -0.957194 3.935194 3.391876
v -0.957194 3.940567 3.446419
v -1.516348 3.940567 3.446419
v -0.957194 3.505666 3.213959
v -0.957194 3.554001 3.188123
v -1.516348 3.554001 3.188123
v -0.957194 3.767979 3.704714
v -0.957194 3.715533 3.720624
v -1.516348 3.715533 3.720624
v -0.957194 3.554000 3.704714
v -0.957194 3.505665 3.678879
v -1.516348 3.505665 3.678879
v -0.957194 3.660990 3.725996
v -1.516348 3.660990 3.725996
v -0.957194 3.606447 3.720623
v -1.516348 3.554000 3.704714
v -0.957194 3.919286 3.553408
v -0.957194 3.893450 3.601743
v -1.516348 3.893450 3.601743
v -0.957194 3.935195 3.500961
v -1.516348 3.935195 3.500961
v -1.048096 3.660990 3.579896
v -1.205923 3.660990 3.582967
v -1.205923 3.634351 3.580343
v -1.048096 3.791903 3.420379
v -1.205923 3.794914 3.419780
v -1.205923 3.797539 3.446419
v -0.957194 3.463300 3.644109
v -0.957194 3.428530 3.601743
v -1.516348 3.428530 3.601743
v -0.957194 3.858681 3.644110
v -1.516348 3.858681 3.644110
v -0.957194 3.606447 3.172214
v -0.957194 3.660990 3.166842
v -1.516348 3.660990 3.166842
v -0.957194 3.816314 3.678879
v -1.516348 3.816314 3.678879
v -1.516348 3.463300 3.644109
v -0.957194 3.428530 3.291094
v -1.516348 3.428530 3.291094
v -0.957194 3.381413 3.446419
v -0.957194 3.386786 3.391876
v -1.516348 3.386786 3.391876
v -0.957194 3.858680 3.248728
v -0.957194 3.893450 3.291094
v -1.516348 3.893450 3.291094
v -0.957194 3.463300 3.248728
v -1.516348 3.505666 3.213959
v -1.205923 3.787143 3.394164
v -1.516348 3.402694 3.339429
v -0.957194 3.386786 3.500962
v -1.516348 3.386786 3.500962
v -1.516348 3.935194 3.391876
v -1.516348 3.767979 3.704714
v -1.205923 3.787144 3.498673
v -1.205923 3.794914 3.473058
v -1.516348 3.381413 3.446419
v -1.516348 3.402694 3.553408
v -1.205923 3.687629 3.312495
v -1.205923 3.713244 3.320265
v -1.048096 3.712070 3.323102
v -1.516348 3.606447 3.720623
v -1.048096 3.634951 3.315506
v -1.205923 3.634351 3.312495
v -1.205923 3.660990 3.309871
v -1.516348 3.919286 3.553408
v -1.205923 3.608736 3.572572
v -1.205923 3.527066 3.473058
v -1.205923 3.534837 3.498673
v -1.205923 3.774525 3.370557
v -1.516348 3.919286 3.339429
v -1.205923 3.774525 3.522281
v -1.205923 3.564436 3.542973
v -1.205923 3.585129 3.559953
v -1.205923 3.608736 3.320265
v -1.205923 3.757545 3.542973
v -1.205923 3.527066 3.419780
v -1.205923 3.524442 3.446419
v -1.205923 3.547455 3.370557
v -1.205923 3.713244 3.572573
v -1.205923 3.736852 3.559954
v -1.205923 3.547455 3.522280
v -1.205923 3.757545 3.349865
v -1.516348 3.858680 3.248728
v -1.205923 3.736852 3.332883
v -0.963364 3.691458 3.268231
v -1.205923 3.534837 3.394163
v -1.205923 3.687629 3.580343
v -1.048096 3.712070 3.569736
v -1.516348 3.606447 3.172214
v -1.048096 3.537673 3.395339
v -1.048096 3.755373 3.540802
v -1.048096 3.530077 3.420378
v -1.048096 3.771972 3.520575
v -1.048096 3.771972 3.372263
v -1.048096 3.784307 3.497498
v -1.048096 3.527513 3.446419
v -1.048096 3.755373 3.352036
v -1.048096 3.791903 3.472459
v -1.048096 3.530077 3.472458
v -1.048096 3.735147 3.335437
v -1.048096 3.794467 3.446419
v -1.048096 3.687031 3.577332
v -1.048096 3.537673 3.497499
v -1.048096 3.550008 3.520575
v -1.048096 3.586834 3.557400
v -1.048096 3.660990 3.312942
v -0.957194 3.715533 3.172214
v -1.048096 3.609910 3.569736
v -1.048096 3.634951 3.577332
v -1.516348 3.463300 3.248728
v -1.048096 3.609910 3.323102
v -1.048096 3.586834 3.335437
v -1.048096 3.784307 3.395340
v -1.048096 3.687031 3.315507
v -1.048096 3.550008 3.372262
v -1.048096 3.566607 3.540802
v -1.048096 3.735147 3.557401
vn 0.0000 -0.0000 1.0000
vn 0.0000 0.0000 -1.0000
vn 0.0003 0.0000 -1.0000
vn 0.0194 -0.6343 -0.7729
vn -0.0000 1.0000 -0.0000
vn 0.0120 0.9999 0.0015
vn 0.0000 -1.0000 0.0000
vn -0.0397 0.0611 0.9973
vn 1.0000 0.0000 0.0000
vn -1.0000 0.0000 0.0000
vn 0.0275 -0.9996 0.0020
vn 0.0296 -0.9996 0.0000
vn 0.0275 -0.9996 0.0021
vn 0.0000 -0.4714 0.8819
vn 0.0000 -0.2903 0.9569
vn 0.0000 -0.9952 0.0980
vn 0.0000 0.4714 0.8819
vn 0.0000 -0.2903 -0.9569
vn 0.0000 0.4714 -0.8819
vn 0.0000 -0.0980 -0.9952
vn 0.0000 0.2903 -0.9569
vn 0.0000 -0.8819 -0.4714
vn 0.0000 -0.9952 -0.0980
vn 0.0194 -0.0980 0.9950
vn 0.0194 0.9950 -0.0980
vn 0.0000 0.7730 -0.6344
vn 0.0000 -0.7730 -0.6344
vn 0.0000 0.0980 0.9952
vn 0.0000 -0.6344 -0.7730
vn 0.0000 0.6344 -0.7730
vn 0.0000 0.8819 0.4714
vn 0.0000 0.9952 0.0980
vn 0.0000 -0.7730 0.6344
vn 0.0000 0.6344 0.7730
vn 0.0194 0.9568 -0.2902
vn 0.0194 0.9568 -0.2903
vn 0.0000 0.9569 0.2903
vn -0.0000 0.9569 -0.2903
vn 0.0000 -0.9569 0.2903
vn 0.0000 -0.4714 -0.8819
vn 0.4168 0.8698 0.2639
vn 0.4168 0.8699 0.2639
vn 0.0000 0.9952 -0.0980
vn -0.0000 0.8819 -0.4714
vn 0.0194 0.2902 -0.9568
vn 0.0000 0.0980 -0.9952
vn 0.0194 -0.0980 -0.9950
vn 0.0000 -0.9569 -0.2903
vn 0.4168 -0.2639 0.8699
vn 0.4168 -0.5767 -0.7027
vn 0.4168 -0.5767 -0.7026
vn 0.4168 0.8699 -0.2639
vn 0.4168 0.8698 -0.2639
vn 0.4168 -0.8699 0.2639
vn 0.4168 -0.8698 0.2639
vn 0.4168 0.8017 -0.4285
vn 0.4168 0.8017 0.4285
vn 0.4168 -0.5767 0.7027
vn 0.4168 -0.5766 0.7027
vn 0.4168 -0.4285 -0.8017
vn 0.4168 0.5766 0.7027
vn 0.4168 0.5767 0.7027
vn 0.4168 -0.9046 -0.0891
vn 0.4168 -0.9046 -0.0890
vn 0.4168 -0.7027 -0.5767
vn 0.4168 0.4285 0.8017
vn 0.4168 0.7027 0.5766
vn 0.4168 -0.7027 0.5767
vn 0.4168 0.7027 -0.5766
vn 0.4168 0.7027 -0.5767
vn 0.4168 0.5767 -0.7027
vn 0.4168 0.0891 -0.9046
vn 0.4168 -0.0891 0.9046
vn 0.4168 -0.0891 -0.9046
vn 0.0119 0.9999 0.0014
vn 0.0105 0.9999 0.0028
vn 0.4168 -0.8698 -0.2639
vn 0.4168 -0.8699 -0.2636
vn 0.4168 -0.8699 -0.2639
vn 0.4168 -0.8017 0.4285
vn 0.4168 0.4285 -0.8017
vn 0.4168 -0.4285 0.8017
vn 0.4168 0.2639 -0.8699
vn 0.4168 -0.8017 -0.4285
vn 0.4168 0.9046 -0.0891
vn 0.4168 -0.2639 -0.8699
vn 0.4168 0.2639 0.8699
vn 0.4168 -0.9046 0.0890
vn 0.4168 -0.9046 0.0891
vn 0.4168 0.9046 0.0891
vn 0.4168 0.0891 0.9046
vn 0.0194 0.4713 0.8818
vn 0.0000 0.2903 0.9569
vn 0.0194 -0.8818 -0.4713
vn 0.0194 0.6343 0.7729
vn 0.0194 0.6342 0.7729
vn 0.0194 0.4713 -0.8818
vn 0.0194 -0.9568 -0.2903
vn 0.0194 -0.9568 -0.2902
vn 0.0194 0.7729 0.6343
vn 0.0194 0.7729 0.6342
vn 0.0194 -0.9950 -0.0980
vn 0.0194 0.8818 -0.4713
vn 0.0194 0.8817 0.4713
vn 0.0194 0.8818 0.4713
vn 0.0194 -0.9950 0.0980
vn 0.0194 0.7729 -0.6343
vn 0.0194 0.9568 0.2902
vn 0.0194 -0.9568 0.2902
vn 0.0194 0.6343 -0.7729
vn 0.0194 0.9950 0.0980
vn 0.0194 0.0980 0.9950
vn 0.0194 -0.8818 0.4713
vn 0.0000 -0.8819 0.4714
vn 0.0194 -0.7729 0.6343
vn 0.0194 -0.6342 0.7729
vn 0.0194 -0.6343 0.7729
vn 0.0194 0.0980 -0.9950
vn 0.0000 -0.0980 0.9952
vn 0.0194 -0.4713 0.8817
vn 0.0194 -0.2902 0.9568
vn 0.0000 0.7730 0.6344
vn 0.0194 -0.2902 -0.9568
vn 0.0194 0.2902 0.9568
vn 0.0194 -0.4713 -0.8818
vn 0.0194 -0.4713 -0.8817
vn -0.9963 -0.0851 -0.0145
vn 0.0000 -0.6344 0.7730
vn -0.0064 0.0000 -1.0000
vn -0.0126 0.0000 -0.9999
vn 0.0194 -0.7729 -0.6343
vn -0.0257 -0.0000 0.9997
vn 0.0254 -0.9997 0.0041
vn 0.4168 0.8699 -0.2638
vn 0.4168 -0.8699 0.2638
vn 0.0194 0.2903 0.9568
vn -0.9977 -0.0655 -0.0195
vn -0.0246 0.0505 -0.9984
usemtl None.012
s 1
f 1//1 2//1 3//1
f 4//2 5//2 6//2
f 7//3 6//2 5//2
f 8//4 9//4 10//4
f 7//5 11//6 3//5
f 4//7 12//7 2//7
f 11//8 13//8 14//8
f 15//1 3//1 2//1
f 16//2 17//2 6//2
f 18//5 19//5 20//5
f 20//9 15//9 17//9
f 18//10 6//10 3//10
f 21//10 22//10 23//10
f 24//11 25//12 1//13
f 26//14 27//14 28//14
f 29//15 28//15 30//15
f 31//16 32//16 33//16
f 34//17 35//17 36//17
f 37//18 38//18 39//18
f 40//19 41//19 42//19
f 38//20 43//20 44//20
f 45//21 40//21 46//21
f 47//22 48//22 49//22
f 32//23 50//23 51//23
f 52//24 53//24 54//24
f 55//25 56//25 57//25
f 58//26 59//26 60//26
f 48//27 61//27 62//27
f 12//9 4//9 17//9
f 63//28 64//28 65//28
f 61//29 66//29 67//29
f 41//30 58//30 68//30
f 22//31 69//31 70//31
f 71//32 72//32 73//32
f 74//33 75//33 76//33
f 77//34 34//34 78//34
f 79//35 56//35 55//36
f 72//37 22//37 80//37
f 23//38 81//38 82//38
f 21//39 31//39 83//39
f 66//40 37//40 84//40
f 85//41 86//41 51//42
f 81//43 71//43 87//43
f 59//44 23//44 88//44
f 89//45 90//45 91//45
f 22//10 21//10 35//10
f 43//46 45//46 92//46
f 93//47 94//47 95//47
f 50//48 47//48 96//48
f 46//49 97//49 54//49
f 78//50 10//51 9//51
f 83//52 56//53 79//53
f 82//54 98//55 99//55
f 100//56 76//56 101//56
f 49//57 102//57 85//57
f 68//58 103//59 104//59
f 105//60 10//60 78//60
f 106//61 62//62 67//62
f 73//63 107//64 108//64
f 9//65 109//65 70//65
f 84//66 110//66 111//66
f 62//67 106//67 102//67
f 60//68 112//68 103//68
f 100//69 113//69 114//70
f 114//71 113//71 115//71
f 30//72 89//72 95//72
f 54//73 53//73 44//73
f 65//74 95//74 94//74
f 116//75 13//76 11//6
f 117//77 107//78 73//79
f 99//80 112//80 60//80
f 27//81 115//81 90//81
f 104//82 97//82 46//82
f 90//83 89//83 30//83
f 70//84 109//84 117//84
f 33//85 57//85 56//85
f 94//86 105//86 36//86
f 39//87 118//87 110//87
f 108//88 98//88 82//89
f 86//90 57//90 33//90
f 44//91 53//91 118//91
f 111//92 110//92 119//92
f 63//93 120//93 36//93
f 121//94 117//94 109//94
f 122//95 106//96 111//95
f 91//97 90//97 115//97
f 123//98 107//99 117//99
f 124//100 102//101 106//101
f 108//102 107//102 123//102
f 125//103 100//103 79//103
f 126//104 85//105 102//105
f 98//106 108//106 127//106
f 128//107 113//107 100//107
f 129//108 86//108 85//108
f 99//109 98//109 130//109
f 131//110 115//110 113//110
f 132//111 57//111 86//111
f 133//112 118//112 53//112
f 112//113 99//113 134//113
f 75//114 21//114 101//114
f 103//115 112//115 135//115
f 136//116 104//117 103//117
f 137//118 95//118 89//118
f 64//119 138//119 30//119
f 139//120 97//120 104//120
f 140//121 54//121 97//121
f 69//122 77//122 141//122
f 142//123 105//123 94//123
f 110//124 118//124 133//124
f 10//125 105//125 142//126
f 24//127 14//127 13//127
f 5//7 2//7 1//7
f 26//128 74//128 114//128
f 19//1 3//1 15//1
f 7//3 25//129 24//130
f 21//10 32//10 31//10
f 32//10 21//10 50//10
f 47//10 61//10 48//10
f 61//10 37//10 66//10
f 37//10 43//10 38//10
f 43//10 40//10 45//10
f 40//10 58//10 41//10
f 58//10 23//10 59//10
f 23//10 71//10 81//10
f 71//10 23//10 72//10
f 22//10 77//10 69//10
f 77//10 35//10 34//10
f 35//10 29//10 63//10
f 64//10 29//10 138//10
f 29//10 74//10 26//10
f 74//10 29//10 75//10
f 21//10 47//10 50//10
f 47//10 37//10 61//10
f 37//10 23//10 43//10
f 40//10 23//10 58//10
f 23//10 22//10 72//10
f 22//10 35//10 77//10
f 63//10 29//10 64//10
f 29//10 21//10 75//10
f 21//10 37//10 47//10
f 43//10 23//10 40//10
f 143//9 129//9 140//9
f 35//10 21//10 29//10
f 129//9 55//9 132//9
f 55//9 129//9 144//9
f 125//9 145//9 128//9
f 131//9 145//9 91//9
f 145//9 93//9 137//9
f 93//9 143//9 142//9
f 143//9 123//9 8//9
f 146//9 123//9 121//9
f 123//9 130//9 127//9
f 130//9 123//9 134//9
f 135//9 136//9 147//9
f 136//9 140//9 139//9
f 140//9 133//9 52//9
f 133//9 140//9 119//9
f 148//9 124//9 122//9
f 124//9 148//9 126//9
f 129//9 125//9 144//9
f 128//9 145//9 131//9
f 145//9 143//9 93//9
f 8//9 123//9 146//9
f 123//9 135//9 134//9
f 135//9 123//9 136//9
f 140//9 148//9 119//9
f 148//9 129//9 126//9
f 129//9 145//9 125//9
f 145//9 129//9 143//9
f 123//9 140//9 136//9
f 140//9 129//9 148//9
f 109//131 9//131 8//131
f 1//1 3//1 11//1
f 4//2 6//2 17//2
f 7//3 5//2 25//129
f 8//4 10//4 143//4
f 7//5 3//5 6//5
f 4//7 2//7 5//7
f 11//132 14//132 1//132
f 15//1 2//1 12//1
f 16//2 6//2 18//2
f 18//5 20//5 16//5
f 20//9 17//9 16//9
f 18//10 3//10 19//10
f 21//10 23//10 37//10
f 24//11 1//13 14//133
f 26//14 28//14 29//14
f 29//15 30//15 138//15
f 31//16 33//16 83//16
f 34//17 36//17 78//17
f 37//18 39//18 84//18
f 40//19 42//19 46//19
f 38//20 44//20 39//20
f 45//21 46//21 92//21
f 47//22 49//22 96//22
f 32//23 51//23 33//23
f 52//24 54//24 140//24
f 55//25 57//25 132//25
f 58//26 60//26 68//26
f 48//27 62//27 49//27
f 12//9 17//9 15//9
f 63//28 65//28 120//28
f 61//29 67//29 62//29
f 41//30 68//30 42//30
f 22//31 70//31 80//31
f 71//32 73//32 87//32
f 74//33 76//33 114//33
f 77//34 78//34 141//34
f 79//35 55//36 144//36
f 72//37 80//37 73//37
f 23//38 82//38 88//38
f 21//39 83//39 101//39
f 66//40 84//40 67//40
f 85//41 51//42 96//42
f 81//43 87//43 82//43
f 59//44 88//44 60//44
f 89//45 91//45 145//45
f 43//46 92//46 44//46
f 93//47 95//47 137//47
f 50//48 96//48 51//48
f 46//49 54//49 92//49
f 78//50 9//51 141//50
f 83//52 79//53 101//134
f 82//54 99//55 88//135
f 100//56 101//56 79//56
f 49//57 85//57 96//57
f 68//58 104//59 42//58
f 105//60 78//60 36//60
f 106//61 67//62 111//61
f 73//63 108//64 87//63
f 9//65 70//65 141//65
f 84//66 111//66 67//66
f 62//67 102//67 49//67
f 60//68 103//68 68//68
f 100//69 114//70 76//70
f 114//71 115//71 27//71
f 30//72 95//72 65//72
f 54//73 44//73 92//73
f 65//74 94//74 120//74
f 116//75 11//6 7//5
f 117//77 73//79 80//79
f 99//80 60//80 88//80
f 27//81 90//81 28//81
f 104//82 46//82 42//82
f 90//83 30//83 28//83
f 70//84 117//84 80//84
f 33//85 56//85 83//85
f 94//86 36//86 120//86
f 39//87 110//87 84//87
f 108//88 82//89 87//89
f 86//90 33//90 51//90
f 44//91 118//91 39//91
f 111//92 119//92 148//92
f 63//93 36//93 35//93
f 121//94 109//94 146//94
f 122//95 111//95 148//95
f 91//97 115//97 131//97
f 123//98 117//99 121//98
f 124//100 106//101 122//100
f 108//102 123//102 127//102
f 125//103 79//103 144//103
f 126//104 102//105 124//104
f 98//106 127//106 130//106
f 128//107 100//107 125//107
f 129//108 85//108 126//108
f 99//109 130//109 134//109
f 131//110 113//110 128//110
f 132//111 86//111 129//111
f 133//112 53//112 52//112
f 112//113 134//113 135//113
f 75//114 101//114 76//114
f 103//115 135//115 147//115
f 136//116 103//117 147//116
f 137//118 89//118 145//118
f 64//119 30//119 65//119
f 139//120 104//120 136//120
f 140//121 97//121 139//121
f 69//122 141//122 70//122
f 142//123 94//123 93//123
f 110//124 133//124 119//136
f 10//125 142//126 143//126
f 24//137 13//137 116//137
f 5//7 1//7 25//7
f 26//128 114//128 27//128
f 19//1 15//1 20//1
f 7//138 24//138 116//138
f 143//9 140//9 123//9
f 109//131 8//131 146//131
