# Blender v2.83.18 OBJ File: 'untitle3d.blend'
# www.blender.org
mtllib shoulder_bar.mtl
o 실린더.001_실린더.001
v 0.856158 2.804173 -5.268777
v 0.902822 2.799579 -17.790344
v 0.856158 2.804175 -17.790344
v 0.902822 2.799577 -5.268777
v 0.947693 2.785967 -17.790344
v 0.947693 2.785965 -5.268777
v 0.989046 2.763863 -17.790344
v 0.989046 2.763861 -5.268777
v 1.025292 2.734117 -17.790344
v 1.025292 2.734115 -5.268777
v 1.055039 2.697871 -17.790344
v 1.055039 2.697868 -5.268777
v 1.077142 2.656517 -17.790344
v 1.077142 2.656515 -5.268777
v 1.090754 2.611647 -17.790344
v 1.090754 2.611645 -5.268777
v 1.095350 2.564983 -17.790344
v 1.095350 2.564981 -5.268777
v 1.090754 2.518319 -17.790344
v 1.090754 2.518317 -5.268777
v 1.077142 2.473448 -17.790344
v 1.077142 2.473446 -5.268777
v 1.055039 2.432095 -17.790344
v 1.055039 2.432092 -5.268777
v 1.025292 2.395848 -17.790344
v 1.025292 2.395846 -5.268777
v 0.989046 2.366102 -17.790344
v 0.989046 2.366100 -5.268777
v 0.947693 2.343998 -17.790344
v 0.947693 2.343996 -5.268777
v 0.902822 2.330387 -17.790344
v 0.902822 2.330385 -5.268777
v 0.856158 2.325791 -17.790344
v 0.856158 2.325789 -5.268777
v 0.809494 2.330387 -17.790344
v 0.809494 2.330385 -5.268777
v 0.764623 2.343998 -17.790344
v 0.764623 2.343996 -5.268777
v 0.723270 2.366102 -17.790344
v 0.723270 2.366100 -5.268777
v 0.687023 2.395848 -17.790344
v 0.687023 2.395846 -5.268777
v 0.657277 2.432095 -17.790344
v 0.657277 2.432093 -5.268777
v 0.635173 2.473448 -17.790344
v 0.635173 2.473446 -5.268777
v 0.621562 2.518319 -17.790344
v 0.621562 2.518317 -5.268777
v 0.616966 2.564983 -17.790344
v 0.616966 2.564981 -5.268777
v 0.621562 2.611647 -17.790344
v 0.621562 2.611645 -5.268777
v 0.635173 2.656518 -17.790344
v 0.657277 2.697869 -5.268777
v 0.657277 2.697871 -17.790344
v 0.687024 2.734117 -17.790344
v 0.687024 2.734115 -5.268777
v 0.723270 2.763864 -17.790344
v 0.723270 2.763862 -5.268777
v 0.764623 2.785967 -17.790344
v 0.635173 2.656516 -5.268777
v 0.764623 2.785965 -5.268777
v 0.809494 2.799579 -17.790344
v 0.809494 2.799577 -5.268777
v -0.831543 2.804173 -5.268778
v -0.784879 2.799579 -17.790344
v -0.831543 2.804175 -17.790344
v -0.784879 2.799577 -5.268778
v -0.740008 2.785967 -17.790344
v -0.740008 2.785965 -5.268778
v -0.698655 2.763864 -17.790344
v -0.698655 2.763862 -5.268778
v -0.662409 2.734117 -17.790344
v -0.662409 2.734115 -5.268778
v -0.632662 2.697871 -17.790344
v -0.632662 2.697869 -5.268778
v -0.610558 2.656518 -17.790344
v -0.596947 2.611645 -5.268778
v -0.596947 2.611647 -17.790344
v -0.592351 2.564983 -17.790344
v -0.592351 2.564981 -5.268778
v -0.596947 2.518319 -17.790344
v -0.596947 2.518317 -5.268778
v -0.610558 2.473448 -17.790344
v -0.610558 2.473446 -5.268778
v -0.632662 2.432095 -17.790344
v -0.662409 2.395846 -5.268778
v -0.662409 2.395848 -17.790344
v -0.698655 2.366102 -17.790344
v -0.698655 2.366100 -5.268778
v -0.740008 2.343998 -17.790344
v -0.740008 2.343996 -5.268778
v -0.784879 2.330387 -17.790344
v -0.784879 2.330385 -5.268778
v -0.831543 2.325791 -17.790344
v -0.831543 2.325789 -5.268778
v -0.878207 2.330387 -17.790344
v -0.878207 2.330385 -5.268778
v -0.923078 2.343998 -17.790344
v -0.923078 2.343996 -5.268778
v -0.964431 2.366102 -17.790344
v -0.964431 2.366100 -5.268778
v -1.000677 2.395849 -17.790344
v -1.000677 2.395847 -5.268778
v -1.030424 2.432095 -17.790344
v -1.030424 2.432093 -5.268778
v -1.052528 2.473448 -17.790344
v -1.066139 2.518317 -5.268778
v -1.066139 2.518319 -17.790344
v -1.070735 2.564983 -17.790344
v -1.070735 2.564981 -5.268778
v -1.066139 2.611647 -17.790344
v -1.066139 2.611645 -5.268778
v -1.052528 2.656518 -17.790344
v -1.052528 2.656516 -5.268778
v -1.030424 2.697871 -17.790344
v -1.030424 2.697869 -5.268778
v -1.000677 2.734117 -17.790344
v -1.000677 2.734115 -5.268778
v -0.964431 2.763864 -17.790344
v -0.964431 2.763862 -5.268778
v -0.923078 2.785967 -17.790344
v -0.923078 2.785965 -5.268778
v -0.878207 2.799579 -17.790344
v -0.878207 2.799577 -5.268778
v -0.610558 2.656516 -5.268778
v -0.632662 2.432093 -5.268778
v -1.052528 2.473446 -5.268778
vn 0.0980 0.9952 0.0000
vn 0.2903 0.9569 0.0000
vn 0.4714 0.8819 0.0000
vn 0.6344 0.7730 0.0000
vn 0.7730 0.6344 0.0000
vn 0.8819 0.4714 0.0000
vn 0.9569 0.2903 0.0000
vn 0.9952 0.0980 0.0000
vn 0.9952 -0.0980 -0.0000
vn 0.9569 -0.2903 -0.0000
vn 0.8819 -0.4714 -0.0000
vn 0.7730 -0.6344 -0.0000
vn 0.6344 -0.7730 -0.0000
vn 0.4714 -0.8819 -0.0000
vn 0.2903 -0.9569 -0.0000
vn 0.0980 -0.9952 -0.0000
vn -0.0980 -0.9952 -0.0000
vn -0.2903 -0.9569 -0.0000
vn -0.4714 -0.8819 -0.0000
vn -0.6344 -0.7730 -0.0000
vn -0.7730 -0.6344 -0.0000
vn -0.8819 -0.4714 -0.0000
vn -0.9569 -0.2903 -0.0000
vn -0.9952 -0.0980 -0.0000
vn -0.9952 0.0980 0.0000
vn -0.9569 0.2903 0.0000
vn -0.8819 0.4714 0.0000
vn -0.7730 0.6344 0.0000
vn -0.6344 0.7730 0.0000
vn -0.4714 0.8819 0.0000
vn -0.0000 0.0000 1.0000
vn -0.2903 0.9569 0.0000
vn -0.0980 0.9952 0.0000
vn -0.0000 0.0000 -1.0000
vn 0.0001 0.0000 1.0000
vn -0.0001 -0.0000 -1.0000
vn 0.0001 0.0000 -1.0000
vn -0.0002 -0.0000 -1.0000
vn -0.0001 0.0000 1.0000
vn 0.0002 0.0000 -1.0000
usemtl None.018
s 1
f 1//1 2//1 3//1
f 4//2 5//2 2//2
f 6//3 7//3 5//3
f 8//4 9//4 7//4
f 10//5 11//5 9//5
f 12//6 13//6 11//6
f 14//7 15//7 13//7
f 16//8 17//8 15//8
f 18//9 19//9 17//9
f 20//10 21//10 19//10
f 22//11 23//11 21//11
f 24//12 25//12 23//12
f 26//13 27//13 25//13
f 28//14 29//14 27//14
f 30//15 31//15 29//15
f 32//16 33//16 31//16
f 34//17 35//17 33//17
f 36//18 37//18 35//18
f 38//19 39//19 37//19
f 40//20 41//20 39//20
f 42//21 43//21 41//21
f 44//22 45//22 43//22
f 46//23 47//23 45//23
f 48//24 49//24 47//24
f 50//25 51//25 49//25
f 52//26 53//26 51//26
f 53//27 54//27 55//27
f 54//28 56//28 55//28
f 57//29 58//29 56//29
f 59//30 60//30 58//30
f 38//31 22//31 61//31
f 62//32 63//32 60//32
f 64//33 3//33 63//33
f 31//34 47//34 15//34
f 65//1 66//1 67//1
f 68//2 69//2 66//2
f 70//3 71//3 69//3
f 72//4 73//4 71//4
f 74//5 75//5 73//5
f 76//6 77//6 75//6
f 77//7 78//7 79//7
f 78//8 80//8 79//8
f 81//9 82//9 80//9
f 83//10 84//10 82//10
f 85//11 86//11 84//11
f 86//12 87//12 88//12
f 87//13 89//13 88//13
f 90//14 91//14 89//14
f 92//15 93//15 91//15
f 94//16 95//16 93//16
f 96//17 97//17 95//17
f 98//18 99//18 97//18
f 100//19 101//19 99//19
f 102//20 103//20 101//20
f 104//21 105//21 103//21
f 106//22 107//22 105//22
f 107//23 108//23 109//23
f 108//24 110//24 109//24
f 111//25 112//25 110//25
f 113//26 114//26 112//26
f 115//27 116//27 114//27
f 117//28 118//28 116//28
f 119//29 120//29 118//29
f 121//30 122//30 120//30
f 100//31 85//31 70//31
f 123//32 124//32 122//32
f 125//33 67//33 124//33
f 93//34 109//34 79//34
f 1//1 4//1 2//1
f 4//2 6//2 5//2
f 6//3 8//3 7//3
f 8//4 10//4 9//4
f 10//5 12//5 11//5
f 12//6 14//6 13//6
f 14//7 16//7 15//7
f 16//8 18//8 17//8
f 18//9 20//9 19//9
f 20//10 22//10 21//10
f 22//11 24//11 23//11
f 24//12 26//12 25//12
f 26//13 28//13 27//13
f 28//14 30//14 29//14
f 30//15 32//15 31//15
f 32//16 34//16 33//16
f 34//17 36//17 35//17
f 36//18 38//18 37//18
f 38//19 40//19 39//19
f 40//20 42//20 41//20
f 42//21 44//21 43//21
f 44//22 46//22 45//22
f 46//23 48//23 47//23
f 48//24 50//24 49//24
f 50//25 52//25 51//25
f 52//26 61//26 53//26
f 53//27 61//27 54//27
f 54//28 57//28 56//28
f 57//29 59//29 58//29
f 59//30 62//30 60//30
f 6//31 4//31 1//31
f 1//31 64//31 62//31
f 62//31 59//35 57//31
f 57//31 54//31 61//31
f 61//31 52//31 50//31
f 50//31 48//31 61//31
f 46//31 44//31 38//31
f 42//31 40//31 38//31
f 38//31 36//31 34//31
f 34//31 32//31 30//31
f 30//31 28//31 26//31
f 26//31 24//31 22//31
f 22//31 20//31 18//31
f 18//31 16//31 22//31
f 14//31 12//31 10//31
f 10//31 8//31 6//31
f 6//31 1//31 61//31
f 62//31 57//31 61//31
f 61//31 48//31 46//31
f 44//31 42//31 38//31
f 38//31 34//31 22//31
f 30//31 26//31 22//31
f 22//31 16//31 14//31
f 14//31 10//31 22//31
f 1//31 62//31 61//31
f 61//31 46//31 38//31
f 34//31 30//31 22//31
f 22//31 10//31 6//31
f 6//31 61//31 22//31
f 62//32 64//32 63//32
f 64//33 1//33 3//33
f 63//34 3//34 2//34
f 2//34 5//34 7//34
f 7//34 9//36 11//34
f 11//34 13//34 7//34
f 15//34 17//34 19//34
f 19//34 21//34 15//34
f 23//34 25//36 31//34
f 27//37 29//36 31//34
f 31//34 33//34 35//34
f 35//34 37//37 39//34
f 39//34 41//34 43//36
f 43//36 45//34 47//34
f 47//34 49//34 51//34
f 51//34 53//34 55//34
f 55//34 56//34 63//34
f 58//38 60//38 63//34
f 63//34 2//34 15//34
f 7//34 13//34 15//34
f 15//34 21//34 23//34
f 25//36 27//37 31//34
f 31//34 35//34 47//34
f 39//34 43//36 47//34
f 47//34 51//34 63//34
f 56//34 58//38 63//34
f 2//34 7//34 15//34
f 15//34 23//34 31//34
f 35//34 39//34 47//34
f 51//34 55//34 63//34
f 63//34 15//34 47//34
f 65//1 68//1 66//1
f 68//2 70//2 69//2
f 70//3 72//3 71//3
f 72//4 74//4 73//4
f 74//5 76//5 75//5
f 76//6 126//6 77//6
f 77//7 126//7 78//7
f 78//8 81//8 80//8
f 81//9 83//9 82//9
f 83//10 85//10 84//10
f 85//11 127//11 86//11
f 86//12 127//12 87//12
f 87//13 90//13 89//13
f 90//14 92//14 91//14
f 92//15 94//15 93//15
f 94//16 96//16 95//16
f 96//17 98//17 97//17
f 98//18 100//18 99//18
f 100//19 102//19 101//19
f 102//20 104//20 103//20
f 104//21 106//21 105//21
f 106//22 128//22 107//22
f 107//23 128//23 108//23
f 108//24 111//24 110//24
f 111//25 113//25 112//25
f 113//26 115//26 114//26
f 115//27 117//27 116//27
f 117//28 119//28 118//28
f 119//29 121//29 120//29
f 121//30 123//30 122//30
f 70//31 68//31 123//31
f 65//31 125//31 123//31
f 123//31 121//35 119//31
f 119//31 117//31 115//31
f 115//31 113//31 111//31
f 111//31 108//31 128//31
f 128//31 106//31 104//31
f 104//31 102//31 100//31
f 100//31 98//31 96//31
f 96//31 94//31 92//31
f 92//31 90//35 87//31
f 87//31 127//35 85//31
f 85//31 83//31 81//31
f 81//31 78//31 126//31
f 126//31 76//31 74//31
f 74//31 72//39 70//31
f 68//31 65//31 123//31
f 123//31 119//31 70//31
f 115//31 111//31 128//31
f 128//31 104//31 100//31
f 100//31 96//31 92//31
f 92//31 87//31 100//31
f 85//31 81//31 126//31
f 126//31 74//31 85//31
f 70//31 119//31 115//31
f 115//31 128//31 70//31
f 100//31 87//31 85//31
f 85//31 74//31 70//31
f 70//31 128//31 100//31
f 123//32 125//32 124//32
f 125//33 65//33 67//33
f 124//34 67//34 66//34
f 66//34 69//34 124//34
f 71//34 73//34 79//34
f 75//34 77//34 79//34
f 79//34 80//34 86//34
f 82//40 84//34 86//34
f 86//34 88//36 93//34
f 89//37 91//36 93//34
f 93//34 95//34 97//34
f 97//34 99//34 93//34
f 101//34 103//38 105//38
f 105//38 107//36 101//34
f 109//34 110//34 112//34
f 112//34 114//34 109//34
f 116//34 118//34 124//34
f 120//38 122//38 124//34
f 124//34 69//34 71//34
f 73//34 75//34 79//34
f 80//34 82//40 86//34
f 88//36 89//37 93//34
f 93//34 99//34 101//34
f 101//34 107//36 109//34
f 109//34 114//34 116//34
f 118//34 120//38 124//34
f 124//34 71//34 79//34
f 79//34 86//34 93//34
f 93//34 101//34 109//34
f 109//34 116//34 124//34
f 124//34 79//34 109//34
