# Blender v2.83.18 OBJ File: 'untitle3d.blend'
# www.blender.org
mtllib shoulder.mtl
o 실린더.001_실린더.003
v -0.742045 3.334409 -18.065006
v 1.244793 2.858370 -18.065004
v -1.218082 2.858372 -18.065008
v -0.670936 -3.650401 -17.912157
v 1.244793 -3.068910 -17.330664
v -1.218082 -3.068909 -17.330667
v 0.589704 3.513459 -17.885954
v 0.768755 3.334408 -17.330664
v 0.768755 3.334408 -18.065004
v 1.244793 -3.103255 -18.065004
v -1.218082 -3.103254 -18.065008
v -0.562994 3.513460 -17.509716
v 0.589704 3.513459 -17.509716
v 1.244793 2.858370 -17.330664
v -1.218082 2.858372 -17.330667
v -0.562994 3.513460 -17.885956
v -0.742045 3.334409 -17.330666
v -1.218082 -3.103254 -17.365011
v 0.697646 -3.650402 -17.912155
v 0.697646 -3.650402 -18.065006
v -0.670936 -3.650401 -18.065006
v 1.244793 -3.103255 -17.365007
vn -0.0000 0.0000 -1.0000
vn -0.0000 -0.7071 0.7071
vn 0.7071 0.7071 0.0000
vn 1.0000 0.0000 0.0000
vn -1.0000 -0.0000 0.0000
vn 0.0000 1.0000 0.0000
vn -0.0000 -0.0000 1.0000
vn 0.0000 0.7071 -0.7071
vn 0.0000 0.7071 0.7071
vn -0.7071 0.7071 0.0000
vn -0.7071 -0.7071 0.0000
vn 0.7071 -0.7071 0.0000
vn -0.0000 -1.0000 0.0000
vn -0.0001 -0.7071 0.7071
usemtl None.017
s 1
f 1//1 2//1 3//1
f 4//2 5//2 6//2
f 7//3 8//3 9//3
f 2//4 5//4 10//4
f 6//5 3//5 11//5
f 7//6 12//6 13//6
f 14//7 15//7 6//7
f 9//8 16//8 7//8
f 17//9 13//9 12//9
f 12//10 1//10 17//10
f 11//11 4//11 18//11
f 10//12 19//12 20//12
f 20//13 4//13 21//13
f 20//1 21//1 11//1
f 11//1 3//1 2//1
f 1//1 9//1 2//1
f 2//1 10//1 11//1
f 20//1 11//1 10//1
f 6//2 18//2 4//2
f 4//2 19//2 5//2
f 22//14 5//2 19//2
f 2//3 9//3 8//3
f 7//3 13//3 8//3
f 8//3 14//3 2//3
f 22//4 10//4 5//4
f 2//4 14//4 5//4
f 11//5 18//5 6//5
f 6//5 15//5 3//5
f 7//6 16//6 12//6
f 6//7 5//7 14//7
f 14//7 8//7 17//7
f 17//7 15//7 14//7
f 9//8 1//8 16//8
f 17//9 8//9 13//9
f 15//10 17//10 1//10
f 12//10 16//10 1//10
f 1//10 3//10 15//10
f 11//11 21//11 4//11
f 10//12 22//12 19//12
f 20//13 19//13 4//13
