# Blender v2.83.18 OBJ File: 'untitle3d.blend'
# www.blender.org
mtllib under_hit.mtl
o 큐브.007
v -0.145181 0.965426 -2.451162
v -0.145181 0.706959 -2.719814
v -0.145181 0.696787 -2.461751
v -0.145181 0.975597 -2.709226
v 0.123666 0.706959 -2.719814
v 0.123666 0.965426 -2.451162
v 0.123666 0.685274 0.138709
v 0.123666 0.696787 -2.461751
v 0.123666 0.953912 0.149297
v -0.145181 0.685274 0.138709
v 0.123666 0.975597 -2.709226
v -0.145181 0.953912 0.149297
vn -1.0000 0.0000 0.0000
vn 0.0000 0.0394 -0.9992
vn 1.0000 0.0000 0.0000
vn 0.0000 -0.0394 0.9992
vn 0.0000 -1.0000 -0.0044
vn 0.0000 1.0000 0.0044
vn 0.0000 0.9992 0.0394
vn 0.0000 -0.9992 -0.0394
usemtl None.022
s 1
f 1//1 2//1 3//1
f 4//2 5//2 2//2
f 6//3 7//3 8//3
f 9//4 10//4 7//4
f 8//5 10//5 3//5
f 1//6 9//6 6//6
f 4//7 6//7 11//7
f 11//3 8//3 5//3
f 10//1 1//1 3//1
f 4//2 11//2 5//2
f 2//8 5//8 3//8
f 1//1 4//1 2//1
f 6//3 9//3 7//3
f 9//4 12//4 10//4
f 8//5 7//5 10//5
f 1//6 12//6 9//6
f 4//7 1//7 6//7
f 11//3 6//3 8//3
f 10//1 12//1 1//1
f 5//8 8//8 3//8
