# Blender v2.83.18 OBJ File: 'untitle3d.blend'
# www.blender.org
mtllib under_1.mtl
o 큐브.005
v 0.628704 -0.165101 -3.411932
v -0.645933 0.474407 -7.095238
v -0.645933 -0.165101 -3.411932
v 0.628704 0.316379 -3.411932
v -0.645933 0.316379 -3.411932
v 0.628704 0.474407 -7.095238
v 0.473626 -0.795914 -3.983094
v 0.529889 -0.026699 -6.414810
v -0.547117 -0.026699 -6.414810
v 0.473626 -0.422845 -5.559182
v -0.490854 -0.422845 -5.559182
v -0.496339 -0.736470 -6.253976
v 0.479110 -0.736470 -6.253976
v -0.490854 -0.795914 -3.983094
v -0.327273 -0.165101 -3.411932
v 0.310045 -0.165101 -3.411932
vn 0.0000 0.9853 0.1711
vn 0.0000 0.0000 -1.0000
vn 0.0000 -0.6712 0.7413
vn 0.0000 -0.8052 -0.5930
vn 0.9722 -0.2301 -0.0426
vn -0.9722 -0.2301 -0.0426
vn 0.0000 -0.2210 -0.9753
vn -0.9999 0.0115 0.0027
vn 1.0000 0.0000 0.0000
vn 0.9674 -0.2496 -0.0433
vn 0.9790 -0.1982 -0.0469
vn -0.9790 -0.1982 -0.0469
vn -0.9674 -0.2496 -0.0433
vn 0.9999 0.0115 0.0027
vn 0.9973 -0.0631 0.0364
vn -0.9973 -0.0631 0.0364
vn -1.0000 0.0000 0.0000
usemtl None.020
s 1
f 1//1 2//1 3//1
f 4//2 3//2 5//2
f 4//2 1//2 3//2
f 1//1 6//1 2//1
f 3//3 7//3 1//3
f 2//4 8//4 9//4
f 1//5 10//5 8//5
f 9//6 11//6 3//6
f 12//7 8//7 13//7
f 12//8 14//8 11//8
f 4//9 1//9 6//9
f 3//3 14//3 7//3
f 2//4 6//4 8//4
f 8//10 6//10 1//10
f 1//11 7//11 10//11
f 14//12 3//12 11//12
f 2//13 9//13 3//13
f 10//14 7//14 13//14
f 13//15 8//15 10//15
f 12//7 9//7 8//7
f 11//16 9//16 12//16
f 2//17 3//17 5//17
l 15 16
l 1 16
l 15 3
