# Blender v2.83.18 OBJ File: 'untitle3d.blend'
# www.blender.org
mtllib under_handle.mtl
o 큐브.006
v -0.490854 -0.795914 -3.983094
v 0.533128 -5.933621 -4.510860
v 0.473626 -0.795914 -3.983094
v 0.479110 -0.736470 -6.253976
v -0.550357 -4.916651 -8.485499
v -0.496339 -0.736470 -6.253976
v 0.533128 -4.916651 -8.485499
v -0.550357 -5.933621 -4.510860
vn 0.0000 -0.1022 0.9948
vn 0.0000 0.4709 -0.8822
vn 0.0000 -0.9688 -0.2479
vn 0.9999 0.0113 0.0028
vn 0.9999 0.0113 0.0027
vn 0.9999 0.0114 0.0029
vn -0.9999 0.0114 0.0029
vn -0.9999 0.0113 0.0027
usemtl None.021
s 1
f 1//1 2//1 3//1
f 4//2 5//2 6//2
f 7//3 8//3 5//3
f 2//4 4//4 3//5
f 1//1 8//1 2//1
f 4//2 7//2 5//2
f 7//3 2//3 8//3
f 2//4 7//6 4//4
f 6//7 5//7 8//7
f 8//8 1//8 6//8
