# Blender v2.83.18 OBJ File: 'untitle3d.blend'
# www.blender.org
mtllib under.mtl
o íë¸Œ.004
v 0.628704 2.474405 4.328198
v -0.645933 1.329598 4.328198
v 0.628704 1.329598 4.328198
v 0.628704 -0.165101 -3.411932
v -0.645933 0.474407 -7.095238
v -0.645933 -0.165101 -3.411932
v -0.645933 5.056538 -8.743674
v -0.264169 5.438301 -8.743674
v 0.628704 5.070392 -8.743674
v 0.628704 0.316379 -3.411932
v -0.645933 0.316379 -3.411932
v 0.628704 0.474407 -7.095238
v 0.628704 2.122844 -8.743675
v 0.628704 3.179380 -7.697784
v -0.645933 3.179380 -7.697784
v 0.628704 2.474407 -4.735487
v 0.628704 0.217354 0.767011
v 0.628704 -0.165102 0.767011
v 0.628704 0.684471 0.300002
v -0.645933 0.685245 -3.042981
v -0.645933 0.684471 0.300002
v 0.628704 5.070392 -7.697784
v -0.264169 5.438301 -7.697784
v -0.645933 5.056538 -7.697784
v -0.645933 0.217354 0.767011
v -0.645933 -0.165102 0.767011
v 0.628704 0.685245 -3.042981
v 0.260795 5.438301 -8.743674
v 0.310045 -1.165162 -2.416407
v -0.327273 -0.165101 -3.411932
v 0.310045 -0.165101 -3.411932
v -0.327273 -0.165102 0.767011
v 0.310045 -0.681210 0.767011
v 0.310045 -0.165102 0.767011
v 0.310045 -1.165602 0.282540
v -0.327273 -0.681210 0.767011
v -0.327273 -1.165602 0.282540
v -0.645933 2.122844 -8.743675
v -0.327273 -1.165162 -2.416406
v -0.645933 2.474405 4.328198
v 0.473626 -0.795914 -3.983094
v 0.529889 -0.026699 -6.414810
v -0.547117 -0.026699 -6.414810
v 0.473626 -0.422845 -5.559182
v -0.490854 -0.422845 -5.559182
v -0.496339 -0.736470 -6.253976
v 0.479110 -0.736470 -6.253976
v -0.490854 -0.795914 -3.983094
v 0.260795 5.438301 -7.697784
v -0.645933 2.474407 -4.735487
v -0.815708 2.914304 -4.836411
v -0.743916 2.907233 -8.704914
v -0.815708 2.914304 -8.704914
v -0.743916 2.907233 -4.836411
v -0.674883 2.886293 -8.704914
v -0.674883 2.886293 -4.836411
v -0.611263 2.852286 -8.704914
v -0.611263 2.852286 -4.836411
v -0.555498 2.806522 -8.704914
v -0.555498 2.806522 -4.836411
v -0.509734 2.750758 -8.704914
v -0.509734 2.750758 -4.836411
v -0.475728 2.687136 -8.704914
v -0.475728 2.687136 -4.836411
v -0.454787 2.618104 -8.704914
v -0.454787 2.618104 -4.836411
v -0.447716 2.546312 -8.704914
v -0.447716 2.546312 -4.836411
v -0.454787 2.474520 -8.704914
v -0.454787 2.474520 -4.836411
v -0.475727 2.405488 -8.704914
v -0.475727 2.405487 -4.836411
v -0.509734 2.341866 -8.704914
v -0.509734 2.341866 -4.836411
v -0.555498 2.286103 -8.704914
v -0.555498 2.286102 -4.836411
v -0.611263 2.240337 -8.704914
v -0.611263 2.240337 -4.836411
v -0.674884 2.206331 -8.704914
v -0.674884 2.206331 -4.836411
v -0.743916 2.185391 -8.704914
v -0.743916 2.185391 -4.836411
v -0.815708 2.178320 -8.704914
v -0.815708 2.178320 -4.836411
v -0.887500 2.185391 -8.704914
v -0.887500 2.185391 -4.836411
v -0.956533 2.206331 -8.704914
v -0.956533 2.206331 -4.836411
v -1.020154 2.240338 -8.704914
v -1.020154 2.240337 -4.836411
v -1.075918 2.286103 -8.704914
v -1.075918 2.286102 -4.836411
v -1.121683 2.341867 -8.704914
v -1.121683 2.341867 -4.836411
v -1.155689 2.405488 -8.704914
v -1.155689 2.405488 -4.836411
v -1.176630 2.474520 -8.704914
v -1.176630 2.474520 -4.836411
v -1.183700 2.546312 -8.704914
v -1.183700 2.546312 -4.836411
v -1.176629 2.618104 -8.704914
v -1.176629 2.618104 -4.836411
v -1.155689 2.687137 -8.704914
v -1.155689 2.687137 -4.836411
v -1.121682 2.750758 -8.704914
v -1.121682 2.750758 -4.836411
v -1.075918 2.806522 -8.704914
v -1.075918 2.806522 -4.836411
v -1.020153 2.852288 -8.704914
v -1.020153 2.852287 -4.836411
v -0.956532 2.886293 -8.704914
v -0.956532 2.886293 -4.836411
v -0.887499 2.907234 -8.704914
v -0.887499 2.907233 -4.836411
v 0.843893 2.914305 -4.836411
v 0.915685 2.907234 -8.704914
v 0.843893 2.914305 -8.704914
v 0.915685 2.907234 -4.836411
v 0.984717 2.886293 -8.704914
v 0.984717 2.886293 -4.836411
v 1.048339 2.852288 -8.704914
v 1.048339 2.852287 -4.836411
v 1.104103 2.806522 -8.704914
v 1.104103 2.806522 -4.836411
v 1.149867 2.750758 -8.704914
v 1.149867 2.750758 -4.836411
v 1.183874 2.687137 -8.704914
v 1.183873 2.687137 -4.836411
v 1.204815 2.618105 -8.704914
v 1.204814 2.618105 -4.836411
v 1.211885 2.546314 -8.704914
v 1.211885 2.546313 -4.836411
v 1.204815 2.474521 -8.704914
v 1.204815 2.474521 -4.836411
v 1.183874 2.405488 -8.704914
v 1.149867 2.341867 -4.836411
v 1.149867 2.341867 -8.704914
v 1.104103 2.286103 -8.704914
v 1.104103 2.286103 -4.836411
v 1.048339 2.240338 -8.704914
v 1.048339 2.240338 -4.836411
v 0.984717 2.206332 -8.704914
v 0.984717 2.206332 -4.836411
v 0.915685 2.185391 -8.704914
v 0.915684 2.185391 -4.836411
v 0.843893 2.178320 -8.704914
v 0.772101 2.185391 -4.836411
v 0.772101 2.185391 -8.704914
v 0.703068 2.206332 -8.704914
v 0.703068 2.206332 -4.836411
v 0.639447 2.240338 -8.704914
v 0.639447 2.240338 -4.836411
v 0.583683 2.286103 -8.704914
v 0.537918 2.341867 -4.836411
v 0.537918 2.341867 -8.704914
v 0.503912 2.405488 -8.704914
v 0.503912 2.405488 -4.836411
v 0.482971 2.474521 -8.704914
v 0.482971 2.474521 -4.836411
v 0.475901 2.546314 -8.704914
v 0.475901 2.546313 -4.836411
v 0.482971 2.618105 -8.704914
v 0.482971 2.618105 -4.836411
v 0.503913 2.687137 -8.704914
v 0.503912 2.687138 -4.836411
v 0.537919 2.750758 -8.704914
v 0.537919 2.750759 -4.836411
v 0.583683 2.806523 -8.704914
v 0.583683 2.806523 -4.836411
v 0.639448 2.852288 -8.704914
v 0.639448 2.852287 -4.836411
v 0.703069 2.886293 -8.704914
v 0.703069 2.886293 -4.836411
v 0.772102 2.907234 -8.704914
v 0.772102 2.907234 -4.836411
v -0.763583 2.808362 -8.704914
v -0.763583 2.808362 -4.836411
v -0.815708 2.813495 -4.836411
v -0.713461 2.793157 -8.704914
v -0.667269 2.768467 -8.704914
v -0.713462 2.793157 -4.836411
v -0.626781 2.735240 -8.704914
v -0.626781 2.735239 -4.836411
v -0.667269 2.768467 -4.836411
v -0.593553 2.694752 -8.704914
v -0.568863 2.648559 -8.704914
v -0.568863 2.648559 -4.836411
v -0.593553 2.694751 -4.836411
v -0.553659 2.598438 -8.704914
v -0.553659 2.598437 -4.836411
v -0.548525 2.546312 -8.704914
v -0.553659 2.494187 -8.704914
v -0.553659 2.494187 -4.836411
v -0.548525 2.546312 -4.836411
v -0.568863 2.444065 -8.704914
v -0.568863 2.444065 -4.836411
v -0.593553 2.397873 -8.704914
v -0.593553 2.397873 -4.836411
v -0.626781 2.357385 -8.704914
v -0.626781 2.357385 -4.836411
v -0.667269 2.324157 -8.704914
v -0.667269 2.324157 -4.836411
v -0.713462 2.299467 -8.704914
v -0.763583 2.284262 -8.704914
v -0.713462 2.299467 -4.836411
v -0.815708 2.279130 -8.704914
v -0.815708 2.279129 -4.836411
v -0.763583 2.284262 -4.836411
v -0.867833 2.284262 -8.704914
v -0.867833 2.284262 -4.836411
v -0.917955 2.299467 -8.704914
v -0.917955 2.299467 -4.836411
v -0.964147 2.324157 -8.704914
v -0.964147 2.324157 -4.836411
v -1.004635 2.357385 -8.704914
v -1.037863 2.397873 -8.704914
v -1.037863 2.397873 -4.836411
v -1.004635 2.357385 -4.836411
v -1.062553 2.444065 -8.704914
v -1.077758 2.494187 -8.704914
v -1.062553 2.444065 -4.836411
v -1.082891 2.546312 -8.704914
v -1.082891 2.546312 -4.836411
v -1.077758 2.494187 -4.836411
v -1.077757 2.598438 -8.704914
v -1.062553 2.648559 -8.704914
v -1.062553 2.648559 -4.836411
v -1.077757 2.598437 -4.836411
v -1.037863 2.694752 -8.704914
v -1.037863 2.694751 -4.836411
v -1.004635 2.735240 -8.704914
v -0.964147 2.768467 -8.704914
v -0.964147 2.768467 -4.836411
v -1.004635 2.735239 -4.836411
v -0.917954 2.793157 -8.704914
v -0.867833 2.808362 -8.704914
v -0.867833 2.808362 -4.836411
v -0.917954 2.793157 -4.836411
v -0.815708 2.813495 -8.704914
v 0.896018 2.808362 -8.704914
v 0.896018 2.808362 -4.836411
v 0.843893 2.813496 -4.836411
v 0.946140 2.793159 -8.704914
v 0.992332 2.768467 -8.704914
v 0.992332 2.768467 -4.836411
v 0.946140 2.793158 -4.836411
v 1.032820 2.735240 -8.704914
v 1.032820 2.735240 -4.836411
v 1.066048 2.694752 -8.704914
v 1.090738 2.648559 -8.704914
v 1.066048 2.694752 -4.836411
v 1.105943 2.598438 -8.704914
v 1.105942 2.598437 -4.836411
v 1.090738 2.648559 -4.836411
v 1.111076 2.546314 -8.704914
v 1.111076 2.546313 -4.836411
v 1.105943 2.494189 -8.704914
v 1.105943 2.494188 -4.836411
v 1.090738 2.444067 -8.704914
v 1.183874 2.405488 -4.836411
v 1.066048 2.397873 -8.704914
v 1.090738 2.444066 -4.836411
v 1.032820 2.357385 -8.704914
v 1.032820 2.357385 -4.836411
v 1.066048 2.397874 -4.836411
v 0.992332 2.324158 -8.704914
v 0.992332 2.324158 -4.836411
v 0.946140 2.299467 -8.704914
v 0.896018 2.284263 -8.704914
v 0.946140 2.299468 -4.836411
v 0.843893 2.279130 -8.704914
v 0.843893 2.279129 -4.836411
v 0.896018 2.284263 -4.836411
v 0.791768 2.284263 -8.704914
v 0.791768 2.284263 -4.836411
v 0.843893 2.178320 -4.836411
v 0.741646 2.299467 -8.704914
v 0.741646 2.299468 -4.836411
v 0.695454 2.324158 -8.704914
v 0.695454 2.324158 -4.836411
v 0.654966 2.357385 -8.704914
v 0.654966 2.357386 -4.836411
v 0.621738 2.397873 -8.704914
v 0.621738 2.397874 -4.836411
v 0.583683 2.286103 -4.836411
v 0.597048 2.444067 -8.704914
v 0.597048 2.444066 -4.836411
v 0.581843 2.494189 -8.704914
v 0.581843 2.494188 -4.836411
v 0.576710 2.546314 -8.704914
v 0.576710 2.546313 -4.836411
v 0.581843 2.598438 -8.704914
v 0.581843 2.598438 -4.836411
v 0.597048 2.648559 -8.704914
v 0.597048 2.648560 -4.836411
v 0.621738 2.694752 -8.704914
v 0.654966 2.735240 -8.704914
v 0.654966 2.735240 -4.836411
v 0.621738 2.694752 -4.836411
v 0.695454 2.768467 -8.704914
v 0.695454 2.768467 -4.836411
v 0.741647 2.793159 -8.704914
v 0.791769 2.808362 -8.704914
v 0.791768 2.808362 -4.836411
v 0.741647 2.793158 -4.836411
v 0.843893 2.813496 -8.704914
v -0.645933 -0.165102 0.767011
v 0.628704 -0.165102 0.767011
vn 0.0000 -0.0000 1.0000
vn 0.0000 0.9853 0.1711
vn 0.0000 0.0000 -1.0000
vn 1.0000 -0.0000 0.0000
vn 0.0000 0.9728 0.2315
vn 0.0000 -0.7071 -0.7071
vn 0.0000 1.0000 0.0002
vn 0.0000 0.7070 0.7072
vn 0.0000 0.7072 -0.7070
vn 0.0000 -0.7055 -0.7087
vn 0.0000 -0.7072 0.7070
vn -0.0000 -1.0000 -0.0002
vn 0.0000 -0.6712 0.7413
vn 0.0000 -0.8052 -0.5930
vn 0.9722 -0.2301 -0.0426
vn -0.9722 -0.2301 -0.0426
vn 0.0000 -0.2210 -0.9753
vn -0.9999 0.0115 0.0027
vn 0.7071 0.7071 0.0000
vn -1.0000 -0.0000 0.0000
vn -0.7071 0.7071 0.0000
vn 0.0000 1.0000 0.0000
vn 0.0980 0.9952 0.0000
vn 0.2903 0.9569 0.0000
vn 0.4714 0.8819 0.0000
vn 0.6344 0.7730 0.0000
vn 0.7730 0.6344 0.0000
vn 0.8819 0.4714 0.0000
vn 0.9569 0.2903 0.0000
vn 0.9952 0.0980 0.0000
vn 0.9952 -0.0980 -0.0000
vn 0.9569 -0.2903 -0.0000
vn 0.8819 -0.4714 -0.0000
vn 0.7730 -0.6344 -0.0000
vn 0.6344 -0.7730 -0.0000
vn 0.4714 -0.8819 -0.0000
vn 0.2903 -0.9569 -0.0000
vn 0.0980 -0.9952 -0.0000
vn -0.0980 -0.9952 -0.0000
vn -0.2903 -0.9569 -0.0000
vn -0.4714 -0.8819 -0.0000
vn -0.6344 -0.7730 -0.0000
vn -0.7730 -0.6344 -0.0000
vn -0.8819 -0.4714 -0.0000
vn -0.9569 -0.2903 -0.0000
vn -0.9952 -0.0980 -0.0000
vn -0.9952 0.0980 0.0000
vn -0.9569 0.2903 0.0000
vn -0.8819 0.4714 0.0000
vn -0.7730 0.6344 0.0000
vn -0.6344 0.7730 0.0000
vn -0.4714 0.8819 0.0000
vn -0.2903 0.9569 0.0000
vn -0.0980 0.9952 0.0000
vn 0.9674 -0.2496 -0.0433
vn 0.9790 -0.1982 -0.0469
vn -0.9790 -0.1982 -0.0469
vn -0.9674 -0.2496 -0.0433
vn 0.9999 0.0115 0.0027
vn 0.9973 -0.0631 0.0364
vn -0.9973 -0.0631 0.0364
usemtl None.019
s 1
f 1//1 2//1 3//1
f 4//2 5//2 6//2
f 7//3 8//3 9//3
f 10//3 6//3 11//3
f 12//4 13//4 14//4
f 15//5 16//5 14//5
f 5//6 13//6 12//6
f 3//4 17//4 1//4
f 3//4 18//4 17//4
f 19//7 20//7 21//7
f 22//1 23//1 24//1
f 21//8 17//8 19//8
f 18//1 25//1 26//1
f 11//9 27//9 10//9
f 16//4 1//4 19//4
f 10//3 4//3 6//3
f 8//3 28//3 9//3
f 29//10 30//10 31//10
f 32//1 33//1 34//1
f 35//11 36//11 37//11
f 38//3 7//3 13//3
f 35//12 39//12 29//12
f 9//3 13//3 7//3
f 4//2 12//2 5//2
f 1//1 40//1 2//1
f 6//13 41//13 4//13
f 5//14 42//14 43//14
f 4//15 44//15 42//15
f 43//16 45//16 6//16
f 46//17 42//17 47//17
f 46//18 48//18 45//18
f 49//19 9//19 28//19
f 21//20 40//20 50//20
f 8//21 24//21 23//21
f 28//22 23//22 49//22
f 51//23 52//23 53//23
f 54//24 55//24 52//24
f 56//25 57//25 55//25
f 58//26 59//26 57//26
f 60//27 61//27 59//27
f 62//28 63//28 61//28
f 64//29 65//29 63//29
f 66//30 67//30 65//30
f 68//31 69//31 67//31
f 70//32 71//32 69//32
f 72//33 73//33 71//33
f 74//34 75//34 73//34
f 76//35 77//35 75//35
f 78//36 79//36 77//36
f 80//37 81//37 79//37
f 82//38 83//38 81//38
f 84//39 85//39 83//39
f 86//40 87//40 85//40
f 88//41 89//41 87//41
f 90//42 91//42 89//42
f 92//43 93//43 91//43
f 94//44 95//44 93//44
f 96//45 97//45 95//45
f 98//46 99//46 97//46
f 100//47 101//47 99//47
f 102//48 103//48 101//48
f 104//49 105//49 103//49
f 106//50 107//50 105//50
f 108//51 109//51 107//51
f 110//52 111//52 109//52
f 112//53 113//53 111//53
f 114//54 53//54 113//54
f 115//23 116//23 117//23
f 118//24 119//24 116//24
f 120//25 121//25 119//25
f 122//26 123//26 121//26
f 124//27 125//27 123//27
f 126//28 127//28 125//28
f 128//29 129//29 127//29
f 130//30 131//30 129//30
f 132//31 133//31 131//31
f 134//32 135//32 133//32
f 135//33 136//33 137//33
f 136//34 138//34 137//34
f 139//35 140//35 138//35
f 141//36 142//36 140//36
f 143//37 144//37 142//37
f 145//38 146//38 144//38
f 146//39 147//39 148//39
f 147//40 149//40 148//40
f 150//41 151//41 149//41
f 152//42 153//42 151//42
f 153//43 154//43 155//43
f 154//44 156//44 155//44
f 157//45 158//45 156//45
f 159//46 160//46 158//46
f 161//47 162//47 160//47
f 163//48 164//48 162//48
f 165//49 166//49 164//49
f 167//50 168//50 166//50
f 169//51 170//51 168//51
f 171//52 172//52 170//52
f 173//53 174//53 172//53
f 175//54 117//54 174//54
f 176//3 53//3 52//3
f 177//1 51//1 178//1
f 176//3 55//3 179//3
f 177//1 56//1 54//1
f 179//3 57//3 180//3
f 181//1 58//1 56//1
f 180//3 59//3 182//3
f 183//1 58//1 184//1
f 185//3 59//3 61//3
f 183//1 62//1 60//1
f 185//3 63//3 186//3
f 187//1 62//1 188//1
f 189//3 63//3 65//3
f 190//1 64//1 187//1
f 189//3 67//3 191//3
f 190//1 68//1 66//1
f 192//3 67//3 69//3
f 193//1 68//1 194//1
f 192//3 71//3 195//3
f 196//1 70//1 193//1
f 197//3 71//3 73//3
f 198//1 72//1 196//1
f 199//3 73//3 75//3
f 200//1 74//1 198//1
f 199//3 77//3 201//3
f 202//1 76//1 200//1
f 203//3 77//3 79//3
f 202//1 80//1 78//1
f 204//3 79//3 81//3
f 205//1 82//1 80//1
f 204//3 83//3 206//3
f 207//1 82//1 208//1
f 209//3 83//3 85//3
f 210//1 84//1 207//1
f 211//3 85//3 87//3
f 212//1 86//1 210//1
f 213//3 87//3 89//3
f 214//1 88//1 212//1
f 213//3 91//3 215//3
f 214//1 92//1 90//1
f 216//3 91//3 93//3
f 217//1 92//1 218//1
f 216//3 95//3 219//3
f 217//1 96//1 94//1
f 219//3 97//3 220//3
f 221//1 98//1 96//1
f 222//3 97//3 99//3
f 223//1 98//1 224//1
f 222//3 101//3 225//3
f 223//1 102//1 100//1
f 226//3 101//3 103//3
f 227//1 102//1 228//1
f 226//3 105//3 229//3
f 230//1 104//1 227//1
f 231//3 105//3 107//3
f 230//1 108//1 106//1
f 232//3 107//3 109//3
f 233//1 108//1 234//1
f 232//3 111//3 235//3
f 233//1 112//1 110//1
f 236//3 111//3 113//3
f 237//1 112//1 238//1
f 239//3 113//3 53//3
f 237//1 51//1 114//1
f 240//3 117//3 116//3
f 241//1 115//1 242//1
f 240//3 119//3 243//3
f 241//1 120//1 118//1
f 244//3 119//3 121//3
f 245//1 120//1 246//1
f 247//3 121//3 123//3
f 248//1 122//1 245//1
f 247//3 125//3 249//3
f 248//1 126//1 124//1
f 250//3 125//3 127//3
f 251//1 128//1 126//1
f 252//3 127//3 129//3
f 253//1 128//1 254//1
f 252//3 131//3 255//3
f 256//1 130//1 253//1
f 257//3 131//3 133//3
f 258//1 132//1 256//1
f 257//3 135//3 259//3
f 258//1 260//1 134//1
f 259//3 137//3 261//3
f 262//1 136//1 260//1
f 263//3 137//3 138//3
f 264//1 136//1 265//1
f 263//3 140//3 266//3
f 267//1 139//1 264//1
f 266//3 142//3 268//3
f 267//1 143//1 141//1
f 268//3 144//3 269//3
f 270//1 145//1 143//1
f 271//3 144//3 146//3
f 272//1 145//1 273//1
f 271//3 148//3 274//3
f 275//1 276//1 272//1
f 274//3 149//3 277//3
f 278//1 147//1 275//1
f 279//3 149//3 151//3
f 280//1 150//1 278//1
f 281//3 151//3 153//3
f 282//1 152//1 280//1
f 281//3 155//3 283//3
f 284//1 285//1 282//1
f 286//3 155//3 156//3
f 287//1 154//1 284//1
f 288//3 156//3 158//3
f 289//1 157//1 287//1
f 288//3 160//3 290//3
f 291//1 159//1 289//1
f 292//3 160//3 162//3
f 293//1 161//1 291//1
f 294//3 162//3 164//3
f 295//1 163//1 293//1
f 294//3 166//3 296//3
f 295//1 167//1 165//1
f 296//3 168//3 297//3
f 298//1 167//1 299//1
f 297//3 170//3 300//3
f 301//1 169//1 298//1
f 300//3 172//3 302//3
f 301//1 173//1 171//1
f 303//3 172//3 174//3
f 304//1 173//1 305//1
f 303//3 117//3 306//3
f 304//1 115//1 175//1
f 1//4 17//4 19//4
f 16//4 19//4 27//4
f 9//4 22//4 14//4
f 14//4 16//4 12//4
f 10//4 4//4 12//4
f 16//4 27//4 10//4
f 13//4 9//4 14//4
f 10//4 12//4 16//4
f 15//5 50//5 16//5
f 5//6 38//6 13//6
f 19//7 27//7 20//7
f 24//1 15//1 14//1
f 14//1 22//1 24//1
f 49//1 23//1 22//1
f 21//8 25//8 17//8
f 18//1 17//1 25//1
f 11//9 20//9 27//9
f 29//10 39//10 30//10
f 32//1 36//1 33//1
f 35//11 33//11 36//11
f 35//12 37//12 39//12
f 6//13 48//13 41//13
f 5//14 12//14 42//14
f 42//55 12//55 4//55
f 4//56 41//56 44//56
f 48//57 6//57 45//57
f 5//58 43//58 6//58
f 44//59 41//59 47//59
f 47//60 42//60 44//60
f 46//17 43//17 42//17
f 45//61 43//61 46//61
f 49//19 22//19 9//19
f 38//20 5//20 15//20
f 5//20 6//20 11//20
f 24//20 7//20 15//20
f 15//20 7//20 38//20
f 5//20 11//20 50//20
f 11//20 20//20 50//20
f 50//20 15//20 5//20
f 2//20 40//20 25//20
f 25//20 26//20 2//20
f 50//20 20//20 21//20
f 21//20 25//20 40//20
f 8//21 7//21 24//21
f 28//22 8//22 23//22
f 51//23 54//23 52//23
f 54//24 56//24 55//24
f 56//25 58//25 57//25
f 58//26 60//26 59//26
f 60//27 62//27 61//27
f 62//28 64//28 63//28
f 64//29 66//29 65//29
f 66//30 68//30 67//30
f 68//31 70//31 69//31
f 70//32 72//32 71//32
f 72//33 74//33 73//33
f 74//34 76//34 75//34
f 76//35 78//35 77//35
f 78//36 80//36 79//36
f 80//37 82//37 81//37
f 82//38 84//38 83//38
f 84//39 86//39 85//39
f 86//40 88//40 87//40
f 88//41 90//41 89//41
f 90//42 92//42 91//42
f 92//43 94//43 93//43
f 94//44 96//44 95//44
f 96//45 98//45 97//45
f 98//46 100//46 99//46
f 100//47 102//47 101//47
f 102//48 104//48 103//48
f 104//49 106//49 105//49
f 106//50 108//50 107//50
f 108//51 110//51 109//51
f 110//52 112//52 111//52
f 112//53 114//53 113//53
f 114//54 51//54 53//54
f 115//23 118//23 116//23
f 118//24 120//24 119//24
f 120//25 122//25 121//25
f 122//26 124//26 123//26
f 124//27 126//27 125//27
f 126//28 128//28 127//28
f 128//29 130//29 129//29
f 130//30 132//30 131//30
f 132//31 134//31 133//31
f 134//32 260//32 135//32
f 135//33 260//33 136//33
f 136//34 139//34 138//34
f 139//35 141//35 140//35
f 141//36 143//36 142//36
f 143//37 145//37 144//37
f 145//38 276//38 146//38
f 146//39 276//39 147//39
f 147//40 150//40 149//40
f 150//41 152//41 151//41
f 152//42 285//42 153//42
f 153//43 285//43 154//43
f 154//44 157//44 156//44
f 157//45 159//45 158//45
f 159//46 161//46 160//46
f 161//47 163//47 162//47
f 163//48 165//48 164//48
f 165//49 167//49 166//49
f 167//50 169//50 168//50
f 169//51 171//51 170//51
f 171//52 173//52 172//52
f 173//53 175//53 174//53
f 175//54 115//54 117//54
f 176//3 239//3 53//3
f 177//1 54//1 51//1
f 176//3 52//3 55//3
f 177//1 181//1 56//1
f 179//3 55//3 57//3
f 181//1 184//1 58//1
f 180//3 57//3 59//3
f 183//1 60//1 58//1
f 185//3 182//3 59//3
f 183//1 188//1 62//1
f 185//3 61//3 63//3
f 187//1 64//1 62//1
f 189//3 186//3 63//3
f 190//1 66//1 64//1
f 189//3 65//3 67//3
f 190//1 194//1 68//1
f 192//3 191//3 67//3
f 193//1 70//1 68//1
f 192//3 69//3 71//3
f 196//1 72//1 70//1
f 197//3 195//3 71//3
f 198//1 74//1 72//1
f 199//3 197//3 73//3
f 200//1 76//1 74//1
f 199//3 75//3 77//3
f 202//1 78//1 76//1
f 203//3 201//3 77//3
f 202//1 205//1 80//1
f 204//3 203//3 79//3
f 205//1 208//1 82//1
f 204//3 81//3 83//3
f 207//1 84//1 82//1
f 209//3 206//3 83//3
f 210//1 86//1 84//1
f 211//3 209//3 85//3
f 212//1 88//1 86//1
f 213//3 211//3 87//3
f 214//1 90//1 88//1
f 213//3 89//3 91//3
f 214//1 218//1 92//1
f 216//3 215//3 91//3
f 217//1 94//1 92//1
f 216//3 93//3 95//3
f 217//1 221//1 96//1
f 219//3 95//3 97//3
f 221//1 224//1 98//1
f 222//3 220//3 97//3
f 223//1 100//1 98//1
f 222//3 99//3 101//3
f 223//1 228//1 102//1
f 226//3 225//3 101//3
f 227//1 104//1 102//1
f 226//3 103//3 105//3
f 230//1 106//1 104//1
f 231//3 229//3 105//3
f 230//1 234//1 108//1
f 232//3 231//3 107//3
f 233//1 110//1 108//1
f 232//3 109//3 111//3
f 233//1 238//1 112//1
f 236//3 235//3 111//3
f 237//1 114//1 112//1
f 239//3 236//3 113//3
f 237//1 178//1 51//1
f 240//3 306//3 117//3
f 241//1 118//1 115//1
f 240//3 116//3 119//3
f 241//1 246//1 120//1
f 244//3 243//3 119//3
f 245//1 122//1 120//1
f 247//3 244//3 121//3
f 248//1 124//1 122//1
f 247//3 123//3 125//3
f 248//1 251//1 126//1
f 250//3 249//3 125//3
f 251//1 254//1 128//1
f 252//3 250//3 127//3
f 253//1 130//1 128//1
f 252//3 129//3 131//3
f 256//1 132//1 130//1
f 257//3 255//3 131//3
f 258//1 134//1 132//1
f 257//3 133//3 135//3
f 258//1 262//1 260//1
f 259//3 135//3 137//3
f 262//1 265//1 136//1
f 263//3 261//3 137//3
f 264//1 139//1 136//1
f 263//3 138//3 140//3
f 267//1 141//1 139//1
f 266//3 140//3 142//3
f 267//1 270//1 143//1
f 268//3 142//3 144//3
f 270//1 273//1 145//1
f 271//3 269//3 144//3
f 272//1 276//1 145//1
f 271//3 146//3 148//3
f 275//1 147//1 276//1
f 274//3 148//3 149//3
f 278//1 150//1 147//1
f 279//3 277//3 149//3
f 280//1 152//1 150//1
f 281//3 279//3 151//3
f 282//1 285//1 152//1
f 281//3 153//3 155//3
f 284//1 154//1 285//1
f 286//3 283//3 155//3
f 287//1 157//1 154//1
f 288//3 286//3 156//3
f 289//1 159//1 157//1
f 288//3 158//3 160//3
f 291//1 161//1 159//1
f 292//3 290//3 160//3
f 293//1 163//1 161//1
f 294//3 292//3 162//3
f 295//1 165//1 163//1
f 294//3 164//3 166//3
f 295//1 299//1 167//1
f 296//3 166//3 168//3
f 298//1 169//1 167//1
f 297//3 168//3 170//3
f 301//1 171//1 169//1
f 300//3 170//3 172//3
f 301//1 305//1 173//1
f 303//3 302//3 172//3
f 304//1 175//1 173//1
f 303//3 174//3 117//3
f 304//1 242//1 115//1
l 4 31
l 308 34
l 32 307
l 30 6
